<?xml version="1.0" encoding="UTF-8" standalone="no"?><svg xmlns="http://www.w3.org/2000/svg" xmlns:xlink="http://www.w3.org/1999/xlink" contentStyleType="text/css" height="366px" preserveAspectRatio="none" style="width:480px;height:366px;background:#FFFFFF;" version="1.1" viewBox="0 0 480 366" width="480px" zoomAndPan="magnify"><defs/><g><!--MD5=[e7ccf89f1fb90ecd4edbcca648d4973e]
class nz.ac.vuw.ecs.swen225.gp22.domain.Door--><a href="Door.html" target="_top" title="Door.html" xlink:actuate="onRequest" xlink:href="Door.html" xlink:show="new" xlink:title="Door.html" xlink:type="simple"><g id="elem_nz.ac.vuw.ecs.swen225.gp22.domain.Door"><rect codeLine="5" fill="#F1F1F1" height="153.8438" id="nz.ac.vuw.ecs.swen225.gp22.domain.Door" rx="2.5" ry="2.5" style="stroke:#181818;stroke-width:0.5;" width="343" x="7" y="186"/><ellipse cx="86.25" cy="206.0938" fill="#ADD1B2" rx="11" ry="11" style="stroke:#181818;stroke-width:1.0;"/><path d="M89.0156,201.9688 Q89.1719,201.75 89.3594,201.6406 Q89.5469,201.5313 89.7656,201.5313 Q90.1406,201.5313 90.375,201.7969 Q90.6094,202.0469 90.6094,202.6563 L90.6094,204.1094 Q90.6094,204.7188 90.375,204.9844 Q90.1406,205.25 89.7656,205.25 Q89.4219,205.25 89.2188,205.0469 Q89.0156,204.8594 88.9063,204.3438 Q88.8594,203.9844 88.6719,203.7969 Q88.3438,203.4219 87.7344,203.2031 Q87.125,202.9844 86.5,202.9844 Q85.7344,202.9844 85.0938,203.3125 Q84.4688,203.6406 83.9688,204.3906 Q83.4844,205.1406 83.4844,206.1719 L83.4844,207.2656 Q83.4844,208.5 84.375,209.3281 Q85.2656,210.1406 86.8594,210.1406 Q87.7969,210.1406 88.4531,209.8906 Q88.8438,209.7344 89.2656,209.2969 Q89.5313,209.0313 89.6719,208.9531 Q89.8281,208.875 90.0313,208.875 Q90.3594,208.875 90.6094,209.1406 Q90.875,209.3906 90.875,209.7344 Q90.875,210.0781 90.5313,210.4844 Q90.0313,211.0625 89.2344,211.3906 Q88.1563,211.8438 86.8594,211.8438 Q85.3438,211.8438 84.1406,211.2188 Q83.1563,210.7188 82.4688,209.6563 Q81.7813,208.5781 81.7813,207.2969 L81.7813,206.1406 Q81.7813,204.8125 82.3906,203.6719 Q83.0156,202.5156 84.1094,201.9063 Q85.2031,201.2813 86.4375,201.2813 Q87.1719,201.2813 87.8125,201.4531 Q88.4688,201.6094 89.0156,201.9688 Z " fill="#000000"/><text fill="#000000" font-family="sans-serif" font-size="14" lengthAdjust="spacing" textLength="31" x="179.25" y="205.5332">Door</text><text fill="#000000" font-family="sans-serif" font-size="10" lengthAdjust="spacing" textLength="176" x="106.75" y="218.9902">nz.ac.vuw.ecs.swen225.gp22.domain</text><line style="stroke:#181818;stroke-width:0.5;" x1="8" x2="349" y1="226.1875" y2="226.1875"/><ellipse cx="18" cy="240.4922" fill="#84BE84" rx="3" ry="3" style="stroke:#038048;stroke-width:1.0;"/><text fill="#000000" font-family="sans-serif" font-size="14" lengthAdjust="spacing" textLength="75" x="27" y="244.7207">Door(Color)</text><ellipse cx="18" cy="258.1016" fill="#84BE84" rx="3" ry="3" style="stroke:#038048;stroke-width:1.0;"/><text fill="#000000" font-family="sans-serif" font-size="14" lengthAdjust="spacing" textLength="216" x="27" y="262.3301">getCustomImage(): BufferedImage</text><ellipse cx="18" cy="275.7109" fill="#84BE84" rx="3" ry="3" style="stroke:#038048;stroke-width:1.0;"/><text fill="#000000" font-family="sans-serif" font-size="14" lengthAdjust="spacing" textLength="307" x="27" y="279.9395">canInteractWithPlayer(Tile[], List&lt;Tile&gt;): boolean</text><ellipse cx="18" cy="293.3203" fill="#84BE84" rx="3" ry="3" style="stroke:#038048;stroke-width:1.0;"/><text fill="#000000" font-family="sans-serif" font-size="14" lengthAdjust="spacing" textLength="317" x="27" y="297.5488">interactWithPlayer(Tile[], List&lt;Tile&gt;, Position): void</text><ellipse cx="18" cy="310.9297" fill="#84BE84" rx="3" ry="3" style="stroke:#038048;stroke-width:1.0;"/><text fill="#000000" font-family="sans-serif" font-size="14" lengthAdjust="spacing" textLength="154" x="27" y="315.1582">tick(Tile[], Position): void</text><ellipse cx="18" cy="328.5391" fill="#84BE84" rx="3" ry="3" style="stroke:#038048;stroke-width:1.0;"/><text fill="#000000" font-family="sans-serif" font-size="14" lengthAdjust="spacing" textLength="83" x="27" y="332.7676">color(): Color</text></g></a><!--MD5=[aeced6b90a5f9cea7e9b0d4e8b5a9b7c]
class java.lang.Record--><g id="elem_java.lang.Record"><rect codeLine="14" fill="#F1F1F1" height="40.1875" id="java.lang.Record" rx="2.5" ry="2.5" style="stroke:#181818;stroke-width:0.5;" width="78" x="16.5" y="46.5"/><ellipse cx="31.5" cy="66.5938" fill="#A9DCDF" rx="11" ry="11" style="stroke:#181818;stroke-width:1.0;"/><path d="M33.6875,68.3594 L29.5469,68.3594 L29.125,69.3906 L29.5469,69.3906 Q30.1563,69.3906 30.4219,69.625 Q30.6875,69.8594 30.6875,70.25 Q30.6875,70.625 30.4219,70.8594 Q30.1563,71.0938 29.5469,71.0938 L27.25,71.0938 Q26.6406,71.0938 26.3906,70.8594 Q26.125,70.625 26.125,70.2344 Q26.125,69.8594 26.4063,69.625 Q26.6719,69.375 27.2969,69.3906 L29.9688,62.7344 L28.8594,62.7344 Q28.25,62.7344 27.9844,62.5 Q27.7188,62.2656 27.7188,61.875 Q27.7188,61.5 27.9844,61.2656 Q28.25,61.0313 28.8594,61.0313 L32.5313,61.0313 L35.9219,69.3906 Q36.5156,69.3906 36.7031,69.5313 Q37.0938,69.7969 37.0938,70.25 Q37.0938,70.625 36.8281,70.8594 Q36.5781,71.0938 35.9688,71.0938 L33.6719,71.0938 Q33.0625,71.0938 32.7969,70.8594 Q32.5313,70.625 32.5313,70.2344 Q32.5313,69.8594 32.7969,69.625 Q33.0625,69.3906 33.6719,69.3906 L34.0938,69.3906 L33.6875,68.3594 Z M32.9688,66.6563 L31.6094,63.2813 L30.2344,66.6563 L32.9688,66.6563 Z " fill="#000000"/><text fill="#000000" font-family="sans-serif" font-size="14" font-style="italic" lengthAdjust="spacing" textLength="46" x="45.5" y="66.0332">Record</text><text fill="#000000" font-family="sans-serif" font-size="10" font-style="italic" lengthAdjust="spacing" textLength="43" x="47" y="79.4902">java.lang</text></g><!--MD5=[186e21ba2cd9930336d13f364b5bb404]
class nz.ac.vuw.ecs.swen225.gp22.domain.Tile--><a href="Tile.html" target="_top" title="Tile.html" xlink:actuate="onRequest" xlink:href="Tile.html" xlink:show="new" xlink:title="Tile.html" xlink:type="simple"><g id="elem_nz.ac.vuw.ecs.swen225.gp22.domain.Tile"><rect codeLine="15" fill="#F1F1F1" height="118.625" id="nz.ac.vuw.ecs.swen225.gp22.domain.Tile" rx="2.5" ry="2.5" style="stroke:#181818;stroke-width:0.5;" width="343" x="130" y="7"/><ellipse cx="209.25" cy="27.0938" fill="#B4A7E5" rx="11" ry="11" style="stroke:#181818;stroke-width:1.0;"/><path d="M210.2031,23.7344 L210.2031,30.3906 L211.9219,30.3906 Q212.5313,30.3906 212.7969,30.625 Q213.0625,30.8594 213.0625,31.25 Q213.0625,31.625 212.7969,31.8594 Q212.5313,32.0938 211.9219,32.0938 L206.7813,32.0938 Q206.1719,32.0938 205.9063,31.8594 Q205.6406,31.625 205.6406,31.2344 Q205.6406,30.8594 205.9063,30.625 Q206.1719,30.3906 206.7813,30.3906 L208.5,30.3906 L208.5,23.7344 L206.7813,23.7344 Q206.1719,23.7344 205.9063,23.5 Q205.6406,23.2656 205.6406,22.875 Q205.6406,22.5 205.9063,22.2656 Q206.1719,22.0313 206.7813,22.0313 L211.9219,22.0313 Q212.5313,22.0313 212.7969,22.2656 Q213.0625,22.5 213.0625,22.875 Q213.0625,23.2656 212.7969,23.5 Q212.5313,23.7344 211.9219,23.7344 L210.2031,23.7344 Z " fill="#000000"/><text fill="#000000" font-family="sans-serif" font-size="14" font-style="italic" lengthAdjust="spacing" textLength="23" x="306.25" y="26.5332">Tile</text><text fill="#000000" font-family="sans-serif" font-size="10" font-style="italic" lengthAdjust="spacing" textLength="176" x="229.75" y="39.9902">nz.ac.vuw.ecs.swen225.gp22.domain</text><line style="stroke:#181818;stroke-width:0.5;" x1="131" x2="472" y1="47.1875" y2="47.1875"/><ellipse cx="141" cy="61.4922" fill="#84BE84" rx="3" ry="3" style="stroke:#038048;stroke-width:1.0;"/><text fill="#000000" font-family="sans-serif" font-size="14" font-style="italic" lengthAdjust="spacing" textLength="218" x="150" y="65.7207">getCustomImage(): BufferedImage</text><ellipse cx="141" cy="79.1016" fill="#84BE84" rx="3" ry="3" style="stroke:#038048;stroke-width:1.0;"/><text fill="#000000" font-family="sans-serif" font-size="14" font-style="italic" lengthAdjust="spacing" textLength="309" x="150" y="83.3301">canInteractWithPlayer(Tile[], List&lt;Tile&gt;): boolean</text><ellipse cx="141" cy="96.7109" fill="#84BE84" rx="3" ry="3" style="stroke:#038048;stroke-width:1.0;"/><text fill="#000000" font-family="sans-serif" font-size="14" font-style="italic" lengthAdjust="spacing" textLength="317" x="150" y="100.9395">interactWithPlayer(Tile[], List&lt;Tile&gt;, Position): void</text><ellipse cx="141" cy="114.3203" fill="#84BE84" rx="3" ry="3" style="stroke:#038048;stroke-width:1.0;"/><text fill="#000000" font-family="sans-serif" font-size="14" font-style="italic" lengthAdjust="spacing" textLength="154" x="150" y="118.5488">tick(Tile[], Position): void</text></g></a><!--MD5=[a7e5767858dfe2b1b0b18c237fafee80]
reverse link java.lang.Record to nz.ac.vuw.ecs.swen225.gp22.domain.Door--><g id="link_java.lang.Record_nz.ac.vuw.ecs.swen225.gp22.domain.Door"><path codeLine="22" d="M78.28,103.52 C92.9,126.64 112.44,157.54 130.38,185.91 " fill="none" id="java.lang.Record-backto-nz.ac.vuw.ecs.swen225.gp22.domain.Door" style="stroke:#181818;stroke-width:1.0;"/><polygon fill="none" points="72.29,107.15,67.52,86.5,84.12,99.67,72.29,107.15" style="stroke:#181818;stroke-width:1.0;"/></g><!--MD5=[6f50ece1b44f285c7bab88f9f8f67255]
reverse link nz.ac.vuw.ecs.swen225.gp22.domain.Tile to nz.ac.vuw.ecs.swen225.gp22.domain.Door--><g id="link_nz.ac.vuw.ecs.swen225.gp22.domain.Tile_nz.ac.vuw.ecs.swen225.gp22.domain.Door"><path codeLine="23" d="M253.52,143.37 C244.7,157.32 235.48,171.9 226.65,185.86 " fill="none" id="nz.ac.vuw.ecs.swen225.gp22.domain.Tile-backto-nz.ac.vuw.ecs.swen225.gp22.domain.Door" style="stroke:#181818;stroke-width:1.0;stroke-dasharray:7.0,7.0;"/><polygon fill="none" points="247.82,139.28,264.43,126.12,259.66,146.77,247.82,139.28" style="stroke:#181818;stroke-width:1.0;"/></g><rect fill="none" height="12.5781" style="stroke:none;stroke-width:1.0;" width="184" x="141" y="345.8438"/><text fill="#888888" font-family="sans-serif" font-size="10" lengthAdjust="spacing" textLength="184" x="141" y="356.2246">UMLDoclet 2.0.19, PlantUML 1.2022.8</text><!--MD5=[5ddd0ff520e36b853916e0e283e878d8]
@startuml
    set namespaceSeparator none
    hide empty fields
    hide empty methods

    class "<size:14>Door\n<size:10>nz.ac.vuw.ecs.swen225.gp22.domain" as nz.ac.vuw.ecs.swen225.gp22.domain.Door [[Door.html]] {
        +Door(Color)
        +getCustomImage(): BufferedImage
        +canInteractWithPlayer(Tile[], List<Tile>): boolean
        +interactWithPlayer(Tile[], List<Tile>, Position): void
        +tick(Tile[], Position): void
        +color(): Color
    }

    abstract class "<size:14>Record\n<size:10>java.lang" as java.lang.Record
    interface "<size:14>Tile\n<size:10>nz.ac.vuw.ecs.swen225.gp22.domain" as nz.ac.vuw.ecs.swen225.gp22.domain.Tile [[Tile.html]] {
        {abstract} +getCustomImage(): BufferedImage
        {abstract} +canInteractWithPlayer(Tile[], List<Tile>): boolean
        {abstract} +interactWithPlayer(Tile[], List<Tile>, Position): void
        {abstract} +tick(Tile[], Position): void
    }

    java.lang.Record <|- - nz.ac.vuw.ecs.swen225.gp22.domain.Door
    nz.ac.vuw.ecs.swen225.gp22.domain.Tile <|.. nz.ac.vuw.ecs.swen225.gp22.domain.Door

    center footer UMLDoclet 2.0.19, PlantUML 1.2022.8
@enduml

PlantUML version 1.2022.8(Sun Sep 25 22:00:33 NZDT 2022)
(APACHE source distribution)
Java Runtime: OpenJDK Runtime Environment
JVM: OpenJDK 64-Bit Server VM
Default Encoding: UTF-8
Language: en
Country: NZ
--></g></svg>