<?xml version="1.0" encoding="UTF-8" standalone="no"?><svg xmlns="http://www.w3.org/2000/svg" xmlns:xlink="http://www.w3.org/1999/xlink" contentStyleType="text/css" height="382px" preserveAspectRatio="none" style="width:536px;height:382px;background:#FFFFFF;" version="1.1" viewBox="0 0 536 382" width="536px" zoomAndPan="magnify"><defs/><g><!--MD5=[02e57345d016cacb810ea02e8ecd6a98]
class nz.ac.vuw.ecs.swen225.gp22.domain.Maze--><a href="Maze.html" target="_top" title="Maze.html" xlink:actuate="onRequest" xlink:href="Maze.html" xlink:show="new" xlink:title="Maze.html" xlink:type="simple"><g id="elem_nz.ac.vuw.ecs.swen225.gp22.domain.Maze"><rect codeLine="5" fill="#F1F1F1" height="347.5469" id="nz.ac.vuw.ecs.swen225.gp22.domain.Maze" rx="2.5" ry="2.5" style="stroke:#181818;stroke-width:0.5;" width="515" x="7" y="7"/><ellipse cx="172.25" cy="27.0938" fill="#ADD1B2" rx="11" ry="11" style="stroke:#181818;stroke-width:1.0;"/><path d="M175.0156,22.9688 Q175.1719,22.75 175.3594,22.6406 Q175.5469,22.5313 175.7656,22.5313 Q176.1406,22.5313 176.375,22.7969 Q176.6094,23.0469 176.6094,23.6563 L176.6094,25.1094 Q176.6094,25.7188 176.375,25.9844 Q176.1406,26.25 175.7656,26.25 Q175.4219,26.25 175.2188,26.0469 Q175.0156,25.8594 174.9063,25.3438 Q174.8594,24.9844 174.6719,24.7969 Q174.3438,24.4219 173.7344,24.2031 Q173.125,23.9844 172.5,23.9844 Q171.7344,23.9844 171.0938,24.3125 Q170.4688,24.6406 169.9688,25.3906 Q169.4844,26.1406 169.4844,27.1719 L169.4844,28.2656 Q169.4844,29.5 170.375,30.3281 Q171.2656,31.1406 172.8594,31.1406 Q173.7969,31.1406 174.4531,30.8906 Q174.8438,30.7344 175.2656,30.2969 Q175.5313,30.0313 175.6719,29.9531 Q175.8281,29.875 176.0313,29.875 Q176.3594,29.875 176.6094,30.1406 Q176.875,30.3906 176.875,30.7344 Q176.875,31.0781 176.5313,31.4844 Q176.0313,32.0625 175.2344,32.3906 Q174.1563,32.8438 172.8594,32.8438 Q171.3438,32.8438 170.1406,32.2188 Q169.1563,31.7188 168.4688,30.6563 Q167.7813,29.5781 167.7813,28.2969 L167.7813,27.1406 Q167.7813,25.8125 168.3906,24.6719 Q169.0156,23.5156 170.1094,22.9063 Q171.2031,22.2813 172.4375,22.2813 Q173.1719,22.2813 173.8125,22.4531 Q174.4688,22.6094 175.0156,22.9688 Z " fill="#000000"/><text fill="#000000" font-family="sans-serif" font-size="14" lengthAdjust="spacing" textLength="33" x="264.25" y="26.5332">Maze</text><text fill="#000000" font-family="sans-serif" font-size="10" lengthAdjust="spacing" textLength="176" x="192.75" y="39.9902">nz.ac.vuw.ecs.swen225.gp22.domain</text><line style="stroke:#181818;stroke-width:0.5;" x1="8" x2="521" y1="47.1875" y2="47.1875"/><ellipse cx="18" cy="61.4922" fill="#84BE84" rx="3" ry="3" style="stroke:#038048;stroke-width:1.0;"/><text fill="#000000" font-family="sans-serif" font-size="14" lengthAdjust="spacing" textLength="166" x="27" y="65.7207">Maze(Tile[], int, int, int, int)</text><ellipse cx="18" cy="79.1016" fill="#84BE84" rx="3" ry="3" style="stroke:#038048;stroke-width:1.0;"/><text fill="#000000" font-family="sans-serif" font-size="14" lengthAdjust="spacing" textLength="235" x="27" y="83.3301">Maze(Tile[], int, int, List&lt;Tile&gt;, int, int)</text><ellipse cx="18" cy="96.7109" fill="#84BE84" rx="3" ry="3" style="stroke:#038048;stroke-width:1.0;"/><text fill="#000000" font-family="sans-serif" font-size="14" lengthAdjust="spacing" textLength="87" x="27" y="100.9395">getRows(): int</text><ellipse cx="18" cy="114.3203" fill="#84BE84" rx="3" ry="3" style="stroke:#038048;stroke-width:1.0;"/><text fill="#000000" font-family="sans-serif" font-size="14" lengthAdjust="spacing" textLength="81" x="27" y="118.5488">getCols(): int</text><ellipse cx="18" cy="131.9297" fill="#84BE84" rx="3" ry="3" style="stroke:#038048;stroke-width:1.0;"/><text fill="#000000" font-family="sans-serif" font-size="14" lengthAdjust="spacing" textLength="99" x="27" y="136.1582">getTiles(): Tile[]</text><ellipse cx="18" cy="149.5391" fill="#84BE84" rx="3" ry="3" style="stroke:#038048;stroke-width:1.0;"/><text fill="#000000" font-family="sans-serif" font-size="14" lengthAdjust="spacing" textLength="157" x="27" y="153.7676">getInventory(): List&lt;Tile&gt;</text><ellipse cx="18" cy="167.1484" fill="#84BE84" rx="3" ry="3" style="stroke:#038048;stroke-width:1.0;"/><text fill="#000000" font-family="sans-serif" font-size="14" lengthAdjust="spacing" textLength="172" x="27" y="171.377">getChapPosition(): Position</text><ellipse cx="18" cy="184.7578" fill="#84BE84" rx="3" ry="3" style="stroke:#038048;stroke-width:1.0;"/><text fill="#000000" font-family="sans-serif" font-size="14" lengthAdjust="spacing" textLength="184" x="27" y="188.9863">getChapDirection(): Direction</text><ellipse cx="18" cy="202.3672" fill="#84BE84" rx="3" ry="3" style="stroke:#038048;stroke-width:1.0;"/><text fill="#000000" font-family="sans-serif" font-size="14" lengthAdjust="spacing" textLength="108" x="27" y="206.5957">getTimeLeft(): int</text><ellipse cx="18" cy="219.9766" fill="#84BE84" rx="3" ry="3" style="stroke:#038048;stroke-width:1.0;"/><text fill="#000000" font-family="sans-serif" font-size="14" lengthAdjust="spacing" textLength="87" x="27" y="224.2051">getLevel(): int</text><ellipse cx="18" cy="237.5859" fill="#84BE84" rx="3" ry="3" style="stroke:#038048;stroke-width:1.0;"/><text fill="#000000" font-family="sans-serif" font-size="14" lengthAdjust="spacing" textLength="65" x="27" y="241.8145">tick(): void</text><ellipse cx="18" cy="255.1953" fill="#84BE84" rx="3" ry="3" style="stroke:#038048;stroke-width:1.0;"/><text fill="#000000" font-family="sans-serif" font-size="14" lengthAdjust="spacing" textLength="104" x="27" y="259.4238">getState(): State</text><ellipse cx="18" cy="272.8047" fill="#84BE84" rx="3" ry="3" style="stroke:#038048;stroke-width:1.0;"/><text fill="#000000" font-family="sans-serif" font-size="14" lengthAdjust="spacing" textLength="216" x="27" y="277.0332">canMoveChap(Direction): boolean</text><ellipse cx="18" cy="290.4141" fill="#84BE84" rx="3" ry="3" style="stroke:#038048;stroke-width:1.0;"/><text fill="#000000" font-family="sans-serif" font-size="14" lengthAdjust="spacing" textLength="168" x="27" y="294.6426">moveChap(Direction): void</text><ellipse cx="18" cy="308.0234" fill="#84BE84" rx="3" ry="3" style="stroke:#038048;stroke-width:1.0;"/><text fill="#000000" font-family="sans-serif" font-size="14" lengthAdjust="spacing" textLength="489" x="27" y="312.252">getTilesOfType(Class&lt;T extends Tile&gt;): List&lt;Entry&lt;Position, T extends Tile&gt;&gt;</text><ellipse cx="18" cy="325.6328" fill="#84BE84" rx="3" ry="3" style="stroke:#038048;stroke-width:1.0;"/><text fill="#000000" font-family="sans-serif" font-size="14" lengthAdjust="spacing" textLength="309" x="27" y="329.8613">getCountOfMazeTiles(Class&lt;T extends Tile&gt;): int</text><ellipse cx="18" cy="343.2422" fill="#84BE84" rx="3" ry="3" style="stroke:#038048;stroke-width:1.0;"/><text fill="#000000" font-family="sans-serif" font-size="14" lengthAdjust="spacing" textLength="125" x="27" y="347.4707">getInfoText(): String</text></g></a><rect fill="none" height="12.5781" style="stroke:none;stroke-width:1.0;" width="184" x="172" y="361.5469"/><text fill="#888888" font-family="sans-serif" font-size="10" lengthAdjust="spacing" textLength="184" x="172" y="371.9277">UMLDoclet 2.0.19, PlantUML 1.2022.8</text><!--MD5=[cc43396ad749d16e1bdfd547bcdda3b1]
@startuml
    set namespaceSeparator none
    hide empty fields
    hide empty methods

    class "<size:14>Maze\n<size:10>nz.ac.vuw.ecs.swen225.gp22.domain" as nz.ac.vuw.ecs.swen225.gp22.domain.Maze [[Maze.html]] {
        +Maze(Tile[], int, int, int, int)
        +Maze(Tile[], int, int, List<Tile>, int, int)
        +getRows(): int
        +getCols(): int
        +getTiles(): Tile[]
        +getInventory(): List<Tile>
        +getChapPosition(): Position
        +getChapDirection(): Direction
        +getTimeLeft(): int
        +getLevel(): int
        +tick(): void
        +getState(): State
        +canMoveChap(Direction): boolean
        +moveChap(Direction): void
        +getTilesOfType(Class<T extends Tile>): List<Entry<Position, T extends Tile>>
        +getCountOfMazeTiles(Class<T extends Tile>): int
        +getInfoText(): String
    }

    center footer UMLDoclet 2.0.19, PlantUML 1.2022.8
@enduml

PlantUML version 1.2022.8(Sun Sep 25 22:00:33 NZDT 2022)
(APACHE source distribution)
Java Runtime: OpenJDK Runtime Environment
JVM: OpenJDK 64-Bit Server VM
Default Encoding: UTF-8
Language: en
Country: NZ
--></g></svg>