<?xml version="1.0" encoding="UTF-8" standalone="no"?><svg xmlns="http://www.w3.org/2000/svg" xmlns:xlink="http://www.w3.org/1999/xlink" contentStyleType="text/css" height="234px" preserveAspectRatio="none" style="width:222px;height:234px;background:#FFFFFF;" version="1.1" viewBox="0 0 222 234" width="222px" zoomAndPan="magnify"><defs/><g><!--MD5=[fdc7ed54385c7bbff9619c944fc46ba4]
class nz.ac.vuw.ecs.swen225.gp22.domain.Position--><a href="Position.html" target="_top" title="Position.html" xlink:actuate="onRequest" xlink:href="Position.html" xlink:show="new" xlink:title="Position.html" xlink:type="simple"><g id="elem_nz.ac.vuw.ecs.swen225.gp22.domain.Position"><rect codeLine="5" fill="#F1F1F1" height="101.0156" id="nz.ac.vuw.ecs.swen225.gp22.domain.Position" rx="2.5" ry="2.5" style="stroke:#181818;stroke-width:0.5;" width="208" x="7" y="107"/><ellipse cx="22" cy="127.0938" fill="#ADD1B2" rx="11" ry="11" style="stroke:#181818;stroke-width:1.0;"/><path d="M24.7656,122.9688 Q24.9219,122.75 25.1094,122.6406 Q25.2969,122.5313 25.5156,122.5313 Q25.8906,122.5313 26.125,122.7969 Q26.3594,123.0469 26.3594,123.6563 L26.3594,125.1094 Q26.3594,125.7188 26.125,125.9844 Q25.8906,126.25 25.5156,126.25 Q25.1719,126.25 24.9688,126.0469 Q24.7656,125.8594 24.6563,125.3438 Q24.6094,124.9844 24.4219,124.7969 Q24.0938,124.4219 23.4844,124.2031 Q22.875,123.9844 22.25,123.9844 Q21.4844,123.9844 20.8438,124.3125 Q20.2188,124.6406 19.7188,125.3906 Q19.2344,126.1406 19.2344,127.1719 L19.2344,128.2656 Q19.2344,129.5 20.125,130.3281 Q21.0156,131.1406 22.6094,131.1406 Q23.5469,131.1406 24.2031,130.8906 Q24.5938,130.7344 25.0156,130.2969 Q25.2813,130.0313 25.4219,129.9531 Q25.5781,129.875 25.7813,129.875 Q26.1094,129.875 26.3594,130.1406 Q26.625,130.3906 26.625,130.7344 Q26.625,131.0781 26.2813,131.4844 Q25.7813,132.0625 24.9844,132.3906 Q23.9063,132.8438 22.6094,132.8438 Q21.0938,132.8438 19.8906,132.2188 Q18.9063,131.7188 18.2188,130.6563 Q17.5313,129.5781 17.5313,128.2969 L17.5313,127.1406 Q17.5313,125.8125 18.1406,124.6719 Q18.7656,123.5156 19.8594,122.9063 Q20.9531,122.2813 22.1875,122.2813 Q22.9219,122.2813 23.5625,122.4531 Q24.2188,122.6094 24.7656,122.9688 Z " fill="#000000"/><text fill="#000000" font-family="sans-serif" font-size="14" lengthAdjust="spacing" textLength="50" x="99" y="126.5332">Position</text><text fill="#000000" font-family="sans-serif" font-size="10" lengthAdjust="spacing" textLength="176" x="36" y="139.9902">nz.ac.vuw.ecs.swen225.gp22.domain</text><line style="stroke:#181818;stroke-width:0.5;" x1="8" x2="214" y1="147.1875" y2="147.1875"/><ellipse cx="18" cy="161.4922" fill="#84BE84" rx="3" ry="3" style="stroke:#038048;stroke-width:1.0;"/><text fill="#000000" font-family="sans-serif" font-size="14" lengthAdjust="spacing" textLength="98" x="27" y="165.7207">Position(int, int)</text><ellipse cx="18" cy="179.1016" fill="#84BE84" rx="3" ry="3" style="stroke:#038048;stroke-width:1.0;"/><text fill="#000000" font-family="sans-serif" font-size="14" lengthAdjust="spacing" textLength="39" x="27" y="183.3301">x(): int</text><ellipse cx="18" cy="196.7109" fill="#84BE84" rx="3" ry="3" style="stroke:#038048;stroke-width:1.0;"/><text fill="#000000" font-family="sans-serif" font-size="14" lengthAdjust="spacing" textLength="40" x="27" y="200.9395">y(): int</text></g></a><!--MD5=[aeced6b90a5f9cea7e9b0d4e8b5a9b7c]
class java.lang.Record--><g id="elem_java.lang.Record"><rect codeLine="11" fill="#F1F1F1" height="40.1875" id="java.lang.Record" rx="2.5" ry="2.5" style="stroke:#181818;stroke-width:0.5;" width="78" x="72" y="7"/><ellipse cx="87" cy="27.0938" fill="#A9DCDF" rx="11" ry="11" style="stroke:#181818;stroke-width:1.0;"/><path d="M89.1875,28.8594 L85.0469,28.8594 L84.625,29.8906 L85.0469,29.8906 Q85.6563,29.8906 85.9219,30.125 Q86.1875,30.3594 86.1875,30.75 Q86.1875,31.125 85.9219,31.3594 Q85.6563,31.5938 85.0469,31.5938 L82.75,31.5938 Q82.1406,31.5938 81.8906,31.3594 Q81.625,31.125 81.625,30.7344 Q81.625,30.3594 81.9063,30.125 Q82.1719,29.875 82.7969,29.8906 L85.4688,23.2344 L84.3594,23.2344 Q83.75,23.2344 83.4844,23 Q83.2188,22.7656 83.2188,22.375 Q83.2188,22 83.4844,21.7656 Q83.75,21.5313 84.3594,21.5313 L88.0313,21.5313 L91.4219,29.8906 Q92.0156,29.8906 92.2031,30.0313 Q92.5938,30.2969 92.5938,30.75 Q92.5938,31.125 92.3281,31.3594 Q92.0781,31.5938 91.4688,31.5938 L89.1719,31.5938 Q88.5625,31.5938 88.2969,31.3594 Q88.0313,31.125 88.0313,30.7344 Q88.0313,30.3594 88.2969,30.125 Q88.5625,29.8906 89.1719,29.8906 L89.5938,29.8906 L89.1875,28.8594 Z M88.4688,27.1563 L87.1094,23.7813 L85.7344,27.1563 L88.4688,27.1563 Z " fill="#000000"/><text fill="#000000" font-family="sans-serif" font-size="14" font-style="italic" lengthAdjust="spacing" textLength="46" x="101" y="26.5332">Record</text><text fill="#000000" font-family="sans-serif" font-size="10" font-style="italic" lengthAdjust="spacing" textLength="43" x="102.5" y="39.9902">java.lang</text></g><!--MD5=[fea772386e6763be83d4dfe499f2754d]
reverse link java.lang.Record to nz.ac.vuw.ecs.swen225.gp22.domain.Position--><g id="link_java.lang.Record_nz.ac.vuw.ecs.swen225.gp22.domain.Position"><path codeLine="13" d="M111,67.52 C111,79.94 111,93.82 111,106.84 " fill="none" id="java.lang.Record-backto-nz.ac.vuw.ecs.swen225.gp22.domain.Position" style="stroke:#181818;stroke-width:1.0;"/><polygon fill="none" points="104,67.24,111,47.24,118,67.24,104,67.24" style="stroke:#181818;stroke-width:1.0;"/></g><rect fill="none" height="12.5781" style="stroke:none;stroke-width:1.0;" width="184" x="12" y="214.0156"/><text fill="#888888" font-family="sans-serif" font-size="10" lengthAdjust="spacing" textLength="184" x="12" y="224.3965">UMLDoclet 2.0.19, PlantUML 1.2022.8</text><!--MD5=[9b950db05d9b0a878934d81d60103007]
@startuml
    set namespaceSeparator none
    hide empty fields
    hide empty methods

    class "<size:14>Position\n<size:10>nz.ac.vuw.ecs.swen225.gp22.domain" as nz.ac.vuw.ecs.swen225.gp22.domain.Position [[Position.html]] {
        +Position(int, int)
        +x(): int
        +y(): int
    }

    abstract class "<size:14>Record\n<size:10>java.lang" as java.lang.Record

    java.lang.Record <|- - nz.ac.vuw.ecs.swen225.gp22.domain.Position

    center footer UMLDoclet 2.0.19, PlantUML 1.2022.8
@enduml

PlantUML version 1.2022.8(Sun Sep 25 22:00:33 NZDT 2022)
(APACHE source distribution)
Java Runtime: OpenJDK Runtime Environment
JVM: OpenJDK 64-Bit Server VM
Default Encoding: UTF-8
Language: en
Country: NZ
--></g></svg>