<?xml version="1.0" encoding="UTF-8" standalone="no"?><svg xmlns="http://www.w3.org/2000/svg" xmlns:xlink="http://www.w3.org/1999/xlink" contentStyleType="text/css" height="153px" preserveAspectRatio="none" style="width:364px;height:153px;background:#FFFFFF;" version="1.1" viewBox="0 0 364 153" width="364px" zoomAndPan="magnify"><defs/><g><!--MD5=[186e21ba2cd9930336d13f364b5bb404]
class nz.ac.vuw.ecs.swen225.gp22.domain.Tile--><a href="Tile.html" target="_top" title="Tile.html" xlink:actuate="onRequest" xlink:href="Tile.html" xlink:show="new" xlink:title="Tile.html" xlink:type="simple"><g id="elem_nz.ac.vuw.ecs.swen225.gp22.domain.Tile"><rect codeLine="5" fill="#F1F1F1" height="118.625" id="nz.ac.vuw.ecs.swen225.gp22.domain.Tile" rx="2.5" ry="2.5" style="stroke:#181818;stroke-width:0.5;" width="343" x="7" y="7"/><ellipse cx="86.25" cy="27.0938" fill="#B4A7E5" rx="11" ry="11" style="stroke:#181818;stroke-width:1.0;"/><path d="M87.2031,23.7344 L87.2031,30.3906 L88.9219,30.3906 Q89.5313,30.3906 89.7969,30.625 Q90.0625,30.8594 90.0625,31.25 Q90.0625,31.625 89.7969,31.8594 Q89.5313,32.0938 88.9219,32.0938 L83.7813,32.0938 Q83.1719,32.0938 82.9063,31.8594 Q82.6406,31.625 82.6406,31.2344 Q82.6406,30.8594 82.9063,30.625 Q83.1719,30.3906 83.7813,30.3906 L85.5,30.3906 L85.5,23.7344 L83.7813,23.7344 Q83.1719,23.7344 82.9063,23.5 Q82.6406,23.2656 82.6406,22.875 Q82.6406,22.5 82.9063,22.2656 Q83.1719,22.0313 83.7813,22.0313 L88.9219,22.0313 Q89.5313,22.0313 89.7969,22.2656 Q90.0625,22.5 90.0625,22.875 Q90.0625,23.2656 89.7969,23.5 Q89.5313,23.7344 88.9219,23.7344 L87.2031,23.7344 Z " fill="#000000"/><text fill="#000000" font-family="sans-serif" font-size="14" font-style="italic" lengthAdjust="spacing" textLength="23" x="183.25" y="26.5332">Tile</text><text fill="#000000" font-family="sans-serif" font-size="10" font-style="italic" lengthAdjust="spacing" textLength="176" x="106.75" y="39.9902">nz.ac.vuw.ecs.swen225.gp22.domain</text><line style="stroke:#181818;stroke-width:0.5;" x1="8" x2="349" y1="47.1875" y2="47.1875"/><ellipse cx="18" cy="61.4922" fill="#84BE84" rx="3" ry="3" style="stroke:#038048;stroke-width:1.0;"/><text fill="#000000" font-family="sans-serif" font-size="14" font-style="italic" lengthAdjust="spacing" textLength="218" x="27" y="65.7207">getCustomImage(): BufferedImage</text><ellipse cx="18" cy="79.1016" fill="#84BE84" rx="3" ry="3" style="stroke:#038048;stroke-width:1.0;"/><text fill="#000000" font-family="sans-serif" font-size="14" font-style="italic" lengthAdjust="spacing" textLength="309" x="27" y="83.3301">canInteractWithPlayer(Tile[], List&lt;Tile&gt;): boolean</text><ellipse cx="18" cy="96.7109" fill="#84BE84" rx="3" ry="3" style="stroke:#038048;stroke-width:1.0;"/><text fill="#000000" font-family="sans-serif" font-size="14" font-style="italic" lengthAdjust="spacing" textLength="317" x="27" y="100.9395">interactWithPlayer(Tile[], List&lt;Tile&gt;, Position): void</text><ellipse cx="18" cy="114.3203" fill="#84BE84" rx="3" ry="3" style="stroke:#038048;stroke-width:1.0;"/><text fill="#000000" font-family="sans-serif" font-size="14" font-style="italic" lengthAdjust="spacing" textLength="154" x="27" y="118.5488">tick(Tile[], Position): void</text></g></a><rect fill="none" height="12.5781" style="stroke:none;stroke-width:1.0;" width="184" x="86" y="132.625"/><text fill="#888888" font-family="sans-serif" font-size="10" lengthAdjust="spacing" textLength="184" x="86" y="143.0059">UMLDoclet 2.0.19, PlantUML 1.2022.8</text><!--MD5=[0799b1a92b5f0ceafd5a8dced95a9a70]
@startuml
    set namespaceSeparator none
    hide empty fields
    hide empty methods

    interface "<size:14>Tile\n<size:10>nz.ac.vuw.ecs.swen225.gp22.domain" as nz.ac.vuw.ecs.swen225.gp22.domain.Tile [[Tile.html]] {
        {abstract} +getCustomImage(): BufferedImage
        {abstract} +canInteractWithPlayer(Tile[], List<Tile>): boolean
        {abstract} +interactWithPlayer(Tile[], List<Tile>, Position): void
        {abstract} +tick(Tile[], Position): void
    }

    center footer UMLDoclet 2.0.19, PlantUML 1.2022.8
@enduml

PlantUML version 1.2022.8(Sun Sep 25 22:00:33 NZDT 2022)
(APACHE source distribution)
Java Runtime: OpenJDK Runtime Environment
JVM: OpenJDK 64-Bit Server VM
Default Encoding: UTF-8
Language: en
Country: NZ
--></g></svg>