<?xml version="1.0" encoding="UTF-8" standalone="no"?><svg xmlns="http://www.w3.org/2000/svg" xmlns:xlink="http://www.w3.org/1999/xlink" contentStyleType="text/css" height="220px" preserveAspectRatio="none" style="width:325px;height:220px;background:#FFFFFF;" version="1.1" viewBox="0 0 325 220" width="325px" zoomAndPan="magnify"><defs/><g><!--MD5=[9f52dd7ce84f1bad0dac5c49c17778b7]
cluster nz.ac.vuw.ecs.swen225.gp22.persistency--><g id="cluster_nz.ac.vuw.ecs.swen225.gp22.persistency"><path d="M8.5,6 L296.5,6 A3.75,3.75 0 0 1 299,8.5 L306,29.6094 L315.5,29.6094 A2.5,2.5 0 0 1 318,32.1094 L318,191.5 A2.5,2.5 0 0 1 315.5,194 L8.5,194 A2.5,2.5 0 0 1 6,191.5 L6,8.5 A2.5,2.5 0 0 1 8.5,6 " fill="none" style="stroke:#000000;stroke-width:1.5;"/><line style="stroke:#000000;stroke-width:1.5;" x1="6" x2="306" y1="29.6094" y2="29.6094"/><text fill="#000000" font-family="sans-serif" font-size="14" font-weight="bold" lengthAdjust="spacing" textLength="287" x="10" y="22.5332">nz.ac.vuw.ecs.swen225.gp22.persistency</text></g><!--MD5=[1e5bd5194c5f5340875eed9b2cc1dbdd]
class nz.ac.vuw.ecs.swen225.gp22.persistency.Persistency--><a href="Persistency.html" target="_top" title="Persistency.html" xlink:actuate="onRequest" xlink:href="Persistency.html" xlink:show="new" xlink:title="Persistency.html" xlink:type="simple"><g id="elem_nz.ac.vuw.ecs.swen225.gp22.persistency.Persistency"><rect codeLine="3" fill="#F1F1F1" height="136.0469" id="nz.ac.vuw.ecs.swen225.gp22.persistency.Persistency" rx="2.5" ry="2.5" style="stroke:#181818;stroke-width:0.5;" width="280" x="22" y="42"/><ellipse cx="121.25" cy="58" fill="#ADD1B2" rx="11" ry="11" style="stroke:#181818;stroke-width:1.0;"/><path d="M124.0156,53.875 Q124.1719,53.6563 124.3594,53.5469 Q124.5469,53.4375 124.7656,53.4375 Q125.1406,53.4375 125.375,53.7031 Q125.6094,53.9531 125.6094,54.5625 L125.6094,56.0156 Q125.6094,56.625 125.375,56.8906 Q125.1406,57.1563 124.7656,57.1563 Q124.4219,57.1563 124.2188,56.9531 Q124.0156,56.7656 123.9063,56.25 Q123.8594,55.8906 123.6719,55.7031 Q123.3438,55.3281 122.7344,55.1094 Q122.125,54.8906 121.5,54.8906 Q120.7344,54.8906 120.0938,55.2188 Q119.4688,55.5469 118.9688,56.2969 Q118.4844,57.0469 118.4844,58.0781 L118.4844,59.1719 Q118.4844,60.4063 119.375,61.2344 Q120.2656,62.0469 121.8594,62.0469 Q122.7969,62.0469 123.4531,61.7969 Q123.8438,61.6406 124.2656,61.2031 Q124.5313,60.9375 124.6719,60.8594 Q124.8281,60.7813 125.0313,60.7813 Q125.3594,60.7813 125.6094,61.0469 Q125.875,61.2969 125.875,61.6406 Q125.875,61.9844 125.5313,62.3906 Q125.0313,62.9688 124.2344,63.2969 Q123.1563,63.75 121.8594,63.75 Q120.3438,63.75 119.1406,63.125 Q118.1563,62.625 117.4688,61.5625 Q116.7813,60.4844 116.7813,59.2031 L116.7813,58.0469 Q116.7813,56.7188 117.3906,55.5781 Q118.0156,54.4219 119.1094,53.8125 Q120.2031,53.1875 121.4375,53.1875 Q122.1719,53.1875 122.8125,53.3594 Q123.4688,53.5156 124.0156,53.875 Z " fill="#000000"/><text fill="#000000" font-family="sans-serif" font-size="14" lengthAdjust="spacing" textLength="73" x="141.75" y="63.7285">Persistency</text><line style="stroke:#181818;stroke-width:0.5;" x1="23" x2="301" y1="74" y2="74"/><line style="stroke:#181818;stroke-width:0.5;" x1="23" x2="301" y1="82" y2="82"/><ellipse cx="33" cy="96.3047" fill="#84BE84" rx="3" ry="3" style="stroke:#038048;stroke-width:1.0;"/><text fill="#000000" font-family="sans-serif" font-size="14" lengthAdjust="spacing" text-decoration="underline" textLength="190" x="42" y="100.5332">saveGame(String, Maze): void</text><ellipse cx="33" cy="113.9141" fill="#84BE84" rx="3" ry="3" style="stroke:#038048;stroke-width:1.0;"/><text fill="#000000" font-family="sans-serif" font-size="14" lengthAdjust="spacing" text-decoration="underline" textLength="199" x="42" y="118.1426">loadGame(String, int, int): Maze</text><ellipse cx="33" cy="131.5234" fill="#84BE84" rx="3" ry="3" style="stroke:#038048;stroke-width:1.0;"/><text fill="#000000" font-family="sans-serif" font-size="14" lengthAdjust="spacing" text-decoration="underline" textLength="209" x="42" y="135.752">getParsedDoc(String): Document</text><ellipse cx="33" cy="149.1328" fill="#84BE84" rx="3" ry="3" style="stroke:#038048;stroke-width:1.0;"/><text fill="#000000" font-family="sans-serif" font-size="14" lengthAdjust="spacing" text-decoration="underline" textLength="248" x="42" y="153.3613">newCustomActor(String, Direction): Tile</text><ellipse cx="33" cy="166.7422" fill="#84BE84" rx="3" ry="3" style="stroke:#038048;stroke-width:1.0;"/><text fill="#000000" font-family="sans-serif" font-size="14" lengthAdjust="spacing" text-decoration="underline" textLength="254" x="42" y="170.9707">getCustomActorDirection(Tile): Direction</text></g></a><rect fill="none" height="12.5781" style="stroke:none;stroke-width:1.0;" width="184" x="63.5" y="200"/><text fill="#888888" font-family="sans-serif" font-size="10" lengthAdjust="spacing" textLength="184" x="63.5" y="210.3809">UMLDoclet 2.0.19, PlantUML 1.2022.8</text><!--MD5=[d3aecb6d401f2aa21da89c357affab43]
@startuml
    namespace nz.ac.vuw.ecs.swen225.gp22.persistency {

        class Persistency [[Persistency.html]] {
            {static} +saveGame(String, Maze): void
            {static} +loadGame(String, int, int): Maze
            {static} +getParsedDoc(String): Document
            {static} +newCustomActor(String, Direction): Tile
            {static} +getCustomActorDirection(Tile): Direction
        }

    }

    center footer UMLDoclet 2.0.19, PlantUML 1.2022.8
@enduml

PlantUML version 1.2022.8(Sun Sep 25 22:00:33 NZDT 2022)
(APACHE source distribution)
Java Runtime: OpenJDK Runtime Environment
JVM: OpenJDK 64-Bit Server VM
Default Encoding: UTF-8
Language: en
Country: NZ
--></g></svg>