<?xml version="1.0" encoding="UTF-8" standalone="no"?><svg xmlns="http://www.w3.org/2000/svg" xmlns:xlink="http://www.w3.org/1999/xlink" contentStyleType="text/css" height="170px" preserveAspectRatio="none" style="width:301px;height:170px;background:#FFFFFF;" version="1.1" viewBox="0 0 301 170" width="301px" zoomAndPan="magnify"><defs/><g><!--MD5=[1e5bd5194c5f5340875eed9b2cc1dbdd]
class nz.ac.vuw.ecs.swen225.gp22.persistency.Persistency--><a href="Persistency.html" target="_top" title="Persistency.html" xlink:actuate="onRequest" xlink:href="Persistency.html" xlink:show="new" xlink:title="Persistency.html" xlink:type="simple"><g id="elem_nz.ac.vuw.ecs.swen225.gp22.persistency.Persistency"><rect codeLine="5" fill="#F1F1F1" height="136.2344" id="nz.ac.vuw.ecs.swen225.gp22.persistency.Persistency" rx="2.5" ry="2.5" style="stroke:#181818;stroke-width:0.5;" width="280" x="7" y="7"/><ellipse cx="47.2" cy="27.0938" fill="#ADD1B2" rx="11" ry="11" style="stroke:#181818;stroke-width:1.0;"/><path d="M49.9656,22.9688 Q50.1219,22.75 50.3094,22.6406 Q50.4969,22.5313 50.7156,22.5313 Q51.0906,22.5313 51.325,22.7969 Q51.5594,23.0469 51.5594,23.6563 L51.5594,25.1094 Q51.5594,25.7188 51.325,25.9844 Q51.0906,26.25 50.7156,26.25 Q50.3719,26.25 50.1688,26.0469 Q49.9656,25.8594 49.8563,25.3438 Q49.8094,24.9844 49.6219,24.7969 Q49.2938,24.4219 48.6844,24.2031 Q48.075,23.9844 47.45,23.9844 Q46.6844,23.9844 46.0438,24.3125 Q45.4188,24.6406 44.9188,25.3906 Q44.4344,26.1406 44.4344,27.1719 L44.4344,28.2656 Q44.4344,29.5 45.325,30.3281 Q46.2156,31.1406 47.8094,31.1406 Q48.7469,31.1406 49.4031,30.8906 Q49.7938,30.7344 50.2156,30.2969 Q50.4813,30.0313 50.6219,29.9531 Q50.7781,29.875 50.9813,29.875 Q51.3094,29.875 51.5594,30.1406 Q51.825,30.3906 51.825,30.7344 Q51.825,31.0781 51.4813,31.4844 Q50.9813,32.0625 50.1844,32.3906 Q49.1063,32.8438 47.8094,32.8438 Q46.2938,32.8438 45.0906,32.2188 Q44.1063,31.7188 43.4188,30.6563 Q42.7313,29.5781 42.7313,28.2969 L42.7313,27.1406 Q42.7313,25.8125 43.3406,24.6719 Q43.9656,23.5156 45.0594,22.9063 Q46.1531,22.2813 47.3875,22.2813 Q48.1219,22.2813 48.7625,22.4531 Q49.4188,22.6094 49.9656,22.9688 Z " fill="#000000"/><text fill="#000000" font-family="sans-serif" font-size="14" lengthAdjust="spacing" textLength="73" x="126.3" y="26.5332">Persistency</text><text fill="#000000" font-family="sans-serif" font-size="10" lengthAdjust="spacing" textLength="192" x="66.8" y="39.9902">nz.ac.vuw.ecs.swen225.gp22.persistency</text><line style="stroke:#181818;stroke-width:0.5;" x1="8" x2="286" y1="47.1875" y2="47.1875"/><ellipse cx="18" cy="61.4922" fill="#84BE84" rx="3" ry="3" style="stroke:#038048;stroke-width:1.0;"/><text fill="#000000" font-family="sans-serif" font-size="14" lengthAdjust="spacing" text-decoration="underline" textLength="190" x="27" y="65.7207">saveGame(String, Maze): void</text><ellipse cx="18" cy="79.1016" fill="#84BE84" rx="3" ry="3" style="stroke:#038048;stroke-width:1.0;"/><text fill="#000000" font-family="sans-serif" font-size="14" lengthAdjust="spacing" text-decoration="underline" textLength="199" x="27" y="83.3301">loadGame(String, int, int): Maze</text><ellipse cx="18" cy="96.7109" fill="#84BE84" rx="3" ry="3" style="stroke:#038048;stroke-width:1.0;"/><text fill="#000000" font-family="sans-serif" font-size="14" lengthAdjust="spacing" text-decoration="underline" textLength="209" x="27" y="100.9395">getParsedDoc(String): Document</text><ellipse cx="18" cy="114.3203" fill="#84BE84" rx="3" ry="3" style="stroke:#038048;stroke-width:1.0;"/><text fill="#000000" font-family="sans-serif" font-size="14" lengthAdjust="spacing" text-decoration="underline" textLength="248" x="27" y="118.5488">newCustomActor(String, Direction): Tile</text><ellipse cx="18" cy="131.9297" fill="#84BE84" rx="3" ry="3" style="stroke:#038048;stroke-width:1.0;"/><text fill="#000000" font-family="sans-serif" font-size="14" lengthAdjust="spacing" text-decoration="underline" textLength="254" x="27" y="136.1582">getCustomActorDirection(Tile): Direction</text></g></a><rect fill="none" height="12.5781" style="stroke:none;stroke-width:1.0;" width="184" x="54.5" y="150.2344"/><text fill="#888888" font-family="sans-serif" font-size="10" lengthAdjust="spacing" textLength="184" x="54.5" y="160.6152">UMLDoclet 2.0.19, PlantUML 1.2022.8</text><!--MD5=[e9da3a2556ddb00a2eda8d076e52bdd7]
@startuml
    set namespaceSeparator none
    hide empty fields
    hide empty methods

    class "<size:14>Persistency\n<size:10>nz.ac.vuw.ecs.swen225.gp22.persistency" as nz.ac.vuw.ecs.swen225.gp22.persistency.Persistency [[Persistency.html]] {
        {static} +saveGame(String, Maze): void
        {static} +loadGame(String, int, int): Maze
        {static} +getParsedDoc(String): Document
        {static} +newCustomActor(String, Direction): Tile
        {static} +getCustomActorDirection(Tile): Direction
    }

    center footer UMLDoclet 2.0.19, PlantUML 1.2022.8
@enduml

PlantUML version 1.2022.8(Sun Sep 25 22:00:33 NZDT 2022)
(APACHE source distribution)
Java Runtime: OpenJDK Runtime Environment
JVM: OpenJDK 64-Bit Server VM
Default Encoding: UTF-8
Language: en
Country: NZ
--></g></svg>