<?xml version="1.0" encoding="UTF-8" standalone="no"?><svg xmlns="http://www.w3.org/2000/svg" xmlns:xlink="http://www.w3.org/1999/xlink" contentStyleType="text/css" height="199px" preserveAspectRatio="none" style="width:225px;height:199px;background:#FFFFFF;" version="1.1" viewBox="0 0 225 199" width="225px" zoomAndPan="magnify"><defs/><g><!--MD5=[f14bf8ab4ef8ac7dbefd3667437267fe]
class nz.ac.vuw.ecs.swen225.gp22.app.ActionPanel--><a href="ActionPanel.html" target="_top" title="ActionPanel.html" xlink:actuate="onRequest" xlink:href="ActionPanel.html" xlink:show="new" xlink:title="ActionPanel.html" xlink:type="simple"><g id="elem_nz.ac.vuw.ecs.swen225.gp22.app.ActionPanel"><rect codeLine="5" fill="#F1F1F1" height="65.7969" id="nz.ac.vuw.ecs.swen225.gp22.app.ActionPanel" rx="2.5" ry="2.5" style="stroke:#181818;stroke-width:0.5;" width="209" x="9" y="107"/><ellipse cx="32.55" cy="127.0938" fill="#ADD1B2" rx="11" ry="11" style="stroke:#181818;stroke-width:1.0;"/><path d="M35.3156,122.9688 Q35.4719,122.75 35.6594,122.6406 Q35.8469,122.5313 36.0656,122.5313 Q36.4406,122.5313 36.675,122.7969 Q36.9094,123.0469 36.9094,123.6563 L36.9094,125.1094 Q36.9094,125.7188 36.675,125.9844 Q36.4406,126.25 36.0656,126.25 Q35.7219,126.25 35.5188,126.0469 Q35.3156,125.8594 35.2063,125.3438 Q35.1594,124.9844 34.9719,124.7969 Q34.6438,124.4219 34.0344,124.2031 Q33.425,123.9844 32.8,123.9844 Q32.0344,123.9844 31.3937,124.3125 Q30.7687,124.6406 30.2687,125.3906 Q29.7844,126.1406 29.7844,127.1719 L29.7844,128.2656 Q29.7844,129.5 30.675,130.3281 Q31.5656,131.1406 33.1594,131.1406 Q34.0969,131.1406 34.7531,130.8906 Q35.1438,130.7344 35.5656,130.2969 Q35.8313,130.0313 35.9719,129.9531 Q36.1281,129.875 36.3313,129.875 Q36.6594,129.875 36.9094,130.1406 Q37.175,130.3906 37.175,130.7344 Q37.175,131.0781 36.8313,131.4844 Q36.3313,132.0625 35.5344,132.3906 Q34.4563,132.8438 33.1594,132.8438 Q31.6437,132.8438 30.4406,132.2188 Q29.4562,131.7188 28.7687,130.6563 Q28.0812,129.5781 28.0812,128.2969 L28.0812,127.1406 Q28.0812,125.8125 28.6906,124.6719 Q29.3156,123.5156 30.4094,122.9063 Q31.5031,122.2813 32.7375,122.2813 Q33.4719,122.2813 34.1125,122.4531 Q34.7688,122.6094 35.3156,122.9688 Z " fill="#000000"/><text fill="#000000" font-family="sans-serif" font-size="14" lengthAdjust="spacing" textLength="75" x="89.95" y="126.5332">ActionPanel</text><text fill="#000000" font-family="sans-serif" font-size="10" lengthAdjust="spacing" textLength="158" x="48.45" y="139.9902">nz.ac.vuw.ecs.swen225.gp22.app</text><line style="stroke:#181818;stroke-width:0.5;" x1="10" x2="217" y1="147.1875" y2="147.1875"/><polygon fill="#FFFF44" points="20,156.4922,24,160.4922,20,164.4922,16,160.4922" style="stroke:#B38D22;stroke-width:1.0;"/><text fill="#000000" font-family="sans-serif" font-size="14" lengthAdjust="spacing" textLength="183" x="29" y="165.7207">createButton(String): JButton</text></g></a><!--MD5=[56a185cb33bdc7c23303e5865f20a19b]
class javax.swing.JPanel--><g id="elem_javax.swing.JPanel"><rect codeLine="9" fill="#F1F1F1" height="40.1875" id="javax.swing.JPanel" rx="2.5" ry="2.5" style="stroke:#181818;stroke-width:0.5;" width="86" x="70.5" y="7"/><ellipse cx="85.5" cy="27.0938" fill="#ADD1B2" rx="11" ry="11" style="stroke:#181818;stroke-width:1.0;"/><path d="M88.2656,22.9688 Q88.4219,22.75 88.6094,22.6406 Q88.7969,22.5313 89.0156,22.5313 Q89.3906,22.5313 89.625,22.7969 Q89.8594,23.0469 89.8594,23.6563 L89.8594,25.1094 Q89.8594,25.7188 89.625,25.9844 Q89.3906,26.25 89.0156,26.25 Q88.6719,26.25 88.4688,26.0469 Q88.2656,25.8594 88.1563,25.3438 Q88.1094,24.9844 87.9219,24.7969 Q87.5938,24.4219 86.9844,24.2031 Q86.375,23.9844 85.75,23.9844 Q84.9844,23.9844 84.3438,24.3125 Q83.7188,24.6406 83.2188,25.3906 Q82.7344,26.1406 82.7344,27.1719 L82.7344,28.2656 Q82.7344,29.5 83.625,30.3281 Q84.5156,31.1406 86.1094,31.1406 Q87.0469,31.1406 87.7031,30.8906 Q88.0938,30.7344 88.5156,30.2969 Q88.7813,30.0313 88.9219,29.9531 Q89.0781,29.875 89.2813,29.875 Q89.6094,29.875 89.8594,30.1406 Q90.125,30.3906 90.125,30.7344 Q90.125,31.0781 89.7813,31.4844 Q89.2813,32.0625 88.4844,32.3906 Q87.4063,32.8438 86.1094,32.8438 Q84.5938,32.8438 83.3906,32.2188 Q82.4063,31.7188 81.7188,30.6563 Q81.0313,29.5781 81.0313,28.2969 L81.0313,27.1406 Q81.0313,25.8125 81.6406,24.6719 Q82.2656,23.5156 83.3594,22.9063 Q84.4531,22.2813 85.6875,22.2813 Q86.4219,22.2813 87.0625,22.4531 Q87.7188,22.6094 88.2656,22.9688 Z " fill="#000000"/><text fill="#000000" font-family="sans-serif" font-size="14" lengthAdjust="spacing" textLength="42" x="105.5" y="26.5332">JPanel</text><text fill="#000000" font-family="sans-serif" font-size="10" lengthAdjust="spacing" textLength="54" x="99.5" y="39.9902">javax.swing</text></g><!--MD5=[56b59739c465d43f137de3e595037556]
reverse link javax.swing.JPanel to nz.ac.vuw.ecs.swen225.gp22.app.ActionPanel--><g id="link_javax.swing.JPanel_nz.ac.vuw.ecs.swen225.gp22.app.ActionPanel"><path codeLine="11" d="M113.5,67.09 C113.5,80.05 113.5,94.32 113.5,106.71 " fill="none" id="javax.swing.JPanel-backto-nz.ac.vuw.ecs.swen225.gp22.app.ActionPanel" style="stroke:#181818;stroke-width:1.0;"/><polygon fill="none" points="106.5,67.08,113.5,47.08,120.5,67.08,106.5,67.08" style="stroke:#181818;stroke-width:1.0;"/></g><rect fill="none" height="12.5781" style="stroke:none;stroke-width:1.0;" width="184" x="13.5" y="178.7969"/><text fill="#888888" font-family="sans-serif" font-size="10" lengthAdjust="spacing" textLength="184" x="13.5" y="189.1777">UMLDoclet 2.0.19, PlantUML 1.2022.8</text><!--MD5=[1c31d38ca63db86f7669b98ae2ca097a]
@startuml
    set namespaceSeparator none
    hide empty fields
    hide empty methods

    class "<size:14>ActionPanel\n<size:10>nz.ac.vuw.ecs.swen225.gp22.app" as nz.ac.vuw.ecs.swen225.gp22.app.ActionPanel [[ActionPanel.html]] {
        #createButton(String): JButton
    }

    class "<size:14>JPanel\n<size:10>javax.swing" as javax.swing.JPanel

    javax.swing.JPanel <|- - nz.ac.vuw.ecs.swen225.gp22.app.ActionPanel

    center footer UMLDoclet 2.0.19, PlantUML 1.2022.8
@enduml

PlantUML version 1.2022.8(Sun Sep 25 22:00:33 NZDT 2022)
(APACHE source distribution)
Java Runtime: OpenJDK Runtime Environment
JVM: OpenJDK 64-Bit Server VM
Default Encoding: UTF-8
Language: en
Country: NZ
--></g></svg>