<?xml version="1.0" encoding="UTF-8" standalone="no"?><svg xmlns="http://www.w3.org/2000/svg" xmlns:xlink="http://www.w3.org/1999/xlink" contentStyleType="text/css" height="718px" preserveAspectRatio="none" style="width:339px;height:718px;background:#FFFFFF;" version="1.1" viewBox="0 0 339 718" width="339px" zoomAndPan="magnify"><defs/><g><!--MD5=[eddf5876533f66e37afa5b3ab048c7b1]
class nz.ac.vuw.ecs.swen225.gp22.app.App--><a href="App.html" target="_top" title="App.html" xlink:actuate="onRequest" xlink:href="App.html" xlink:show="new" xlink:title="App.html" xlink:type="simple"><g id="elem_nz.ac.vuw.ecs.swen225.gp22.app.App"><rect codeLine="5" fill="#F1F1F1" height="329.9375" id="nz.ac.vuw.ecs.swen225.gp22.app.App" rx="2.5" ry="2.5" style="stroke:#181818;stroke-width:0.5;" width="205" x="37.5" y="362"/><ellipse cx="59.25" cy="382.0938" fill="#ADD1B2" rx="11" ry="11" style="stroke:#181818;stroke-width:1.0;"/><path d="M62.0156,377.9688 Q62.1719,377.75 62.3594,377.6406 Q62.5469,377.5313 62.7656,377.5313 Q63.1406,377.5313 63.375,377.7969 Q63.6094,378.0469 63.6094,378.6563 L63.6094,380.1094 Q63.6094,380.7188 63.375,380.9844 Q63.1406,381.25 62.7656,381.25 Q62.4219,381.25 62.2188,381.0469 Q62.0156,380.8594 61.9063,380.3438 Q61.8594,379.9844 61.6719,379.7969 Q61.3438,379.4219 60.7344,379.2031 Q60.125,378.9844 59.5,378.9844 Q58.7344,378.9844 58.0938,379.3125 Q57.4688,379.6406 56.9688,380.3906 Q56.4844,381.1406 56.4844,382.1719 L56.4844,383.2656 Q56.4844,384.5 57.375,385.3281 Q58.2656,386.1406 59.8594,386.1406 Q60.7969,386.1406 61.4531,385.8906 Q61.8438,385.7344 62.2656,385.2969 Q62.5313,385.0313 62.6719,384.9531 Q62.8281,384.875 63.0313,384.875 Q63.3594,384.875 63.6094,385.1406 Q63.875,385.3906 63.875,385.7344 Q63.875,386.0781 63.5313,386.4844 Q63.0313,387.0625 62.2344,387.3906 Q61.1563,387.8438 59.8594,387.8438 Q58.3438,387.8438 57.1406,387.2188 Q56.1563,386.7188 55.4688,385.6563 Q54.7813,384.5781 54.7813,383.2969 L54.7813,382.1406 Q54.7813,380.8125 55.3906,379.6719 Q56.0156,378.5156 57.1094,377.9063 Q58.2031,377.2813 59.4375,377.2813 Q60.1719,377.2813 60.8125,377.4531 Q61.4688,377.6094 62.0156,377.9688 Z " fill="#000000"/><text fill="#000000" font-family="sans-serif" font-size="14" lengthAdjust="spacing" textLength="25" x="141.25" y="381.5332">App</text><text fill="#000000" font-family="sans-serif" font-size="10" lengthAdjust="spacing" textLength="158" x="74.75" y="394.9902">nz.ac.vuw.ecs.swen225.gp22.app</text><line style="stroke:#181818;stroke-width:0.5;" x1="38.5" x2="241.5" y1="402.1875" y2="402.1875"/><ellipse cx="48.5" cy="416.4922" fill="#84BE84" rx="3" ry="3" style="stroke:#038048;stroke-width:1.0;"/><text fill="#000000" font-family="sans-serif" font-size="14" lengthAdjust="spacing" textLength="86" x="57.5" y="420.7207">App(boolean)</text><ellipse cx="48.5" cy="434.1016" fill="#84BE84" rx="3" ry="3" style="stroke:#038048;stroke-width:1.0;"/><text fill="#000000" font-family="sans-serif" font-size="14" lengthAdjust="spacing" textLength="121" x="57.5" y="438.3301">toMainMenu(): void</text><ellipse cx="48.5" cy="451.7109" fill="#84BE84" rx="3" ry="3" style="stroke:#038048;stroke-width:1.0;"/><text fill="#000000" font-family="sans-serif" font-size="14" lengthAdjust="spacing" textLength="134" x="57.5" y="455.9395">move(Direction): void</text><ellipse cx="48.5" cy="469.3203" fill="#84BE84" rx="3" ry="3" style="stroke:#038048;stroke-width:1.0;"/><text fill="#000000" font-family="sans-serif" font-size="14" lengthAdjust="spacing" textLength="83" x="57.5" y="473.5488">pause(): void</text><ellipse cx="48.5" cy="486.9297" fill="#84BE84" rx="3" ry="3" style="stroke:#038048;stroke-width:1.0;"/><text fill="#000000" font-family="sans-serif" font-size="14" lengthAdjust="spacing" textLength="99" x="57.5" y="491.1582">unpause(): void</text><ellipse cx="48.5" cy="504.5391" fill="#84BE84" rx="3" ry="3" style="stroke:#038048;stroke-width:1.0;"/><text fill="#000000" font-family="sans-serif" font-size="14" lengthAdjust="spacing" textLength="123" x="57.5" y="508.7676">togglePause(): void</text><ellipse cx="48.5" cy="522.1484" fill="#84BE84" rx="3" ry="3" style="stroke:#038048;stroke-width:1.0;"/><text fill="#000000" font-family="sans-serif" font-size="14" lengthAdjust="spacing" textLength="74" x="57.5" y="526.377">save(): void</text><ellipse cx="48.5" cy="539.7578" fill="#84BE84" rx="3" ry="3" style="stroke:#038048;stroke-width:1.0;"/><text fill="#000000" font-family="sans-serif" font-size="14" lengthAdjust="spacing" textLength="65" x="57.5" y="543.9863">exit(): void</text><ellipse cx="48.5" cy="557.3672" fill="#84BE84" rx="3" ry="3" style="stroke:#038048;stroke-width:1.0;"/><text fill="#000000" font-family="sans-serif" font-size="14" lengthAdjust="spacing" textLength="179" x="57.5" y="561.5957">getGameAndResume(): void</text><ellipse cx="48.5" cy="574.9766" fill="#84BE84" rx="3" ry="3" style="stroke:#038048;stroke-width:1.0;"/><text fill="#000000" font-family="sans-serif" font-size="14" lengthAdjust="spacing" textLength="121" x="57.5" y="579.2051">startLevel(int): void</text><ellipse cx="48.5" cy="592.5859" fill="#84BE84" rx="3" ry="3" style="stroke:#038048;stroke-width:1.0;"/><text fill="#000000" font-family="sans-serif" font-size="14" lengthAdjust="spacing" textLength="143" x="57.5" y="596.8145">startLevel(String): void</text><ellipse cx="48.5" cy="610.1953" fill="#84BE84" rx="3" ry="3" style="stroke:#038048;stroke-width:1.0;"/><text fill="#000000" font-family="sans-serif" font-size="14" lengthAdjust="spacing" textLength="132" x="57.5" y="614.4238">replayLevel(int): void</text><ellipse cx="48.5" cy="627.8047" fill="#84BE84" rx="3" ry="3" style="stroke:#038048;stroke-width:1.0;"/><text fill="#000000" font-family="sans-serif" font-size="14" lengthAdjust="spacing" textLength="115" x="57.5" y="632.0332">stepReplay(): void</text><ellipse cx="48.5" cy="645.4141" fill="#84BE84" rx="3" ry="3" style="stroke:#038048;stroke-width:1.0;"/><text fill="#000000" font-family="sans-serif" font-size="14" lengthAdjust="spacing" textLength="148" x="57.5" y="649.6426">setReplaySpeed(): void</text><ellipse cx="48.5" cy="663.0234" fill="#84BE84" rx="3" ry="3" style="stroke:#038048;stroke-width:1.0;"/><text fill="#000000" font-family="sans-serif" font-size="14" lengthAdjust="spacing" textLength="154" x="57.5" y="667.252">showPopup(String): void</text><ellipse cx="48.5" cy="680.6328" fill="#84BE84" rx="3" ry="3" style="stroke:#038048;stroke-width:1.0;"/><text fill="#000000" font-family="sans-serif" font-size="14" lengthAdjust="spacing" textLength="90" x="57.5" y="684.8613">clear(int): void</text></g></a><!--MD5=[18a7562403221f513ca44e0f82c4c17a]
class javax.swing.JFrame--><g id="elem_javax.swing.JFrame"><rect codeLine="24" fill="#F1F1F1" height="40.1875" id="javax.swing.JFrame" rx="2.5" ry="2.5" style="stroke:#181818;stroke-width:0.5;" width="86" x="7" y="134.5"/><ellipse cx="22" cy="154.5938" fill="#ADD1B2" rx="11" ry="11" style="stroke:#181818;stroke-width:1.0;"/><path d="M24.7656,150.4688 Q24.9219,150.25 25.1094,150.1406 Q25.2969,150.0313 25.5156,150.0313 Q25.8906,150.0313 26.125,150.2969 Q26.3594,150.5469 26.3594,151.1563 L26.3594,152.6094 Q26.3594,153.2188 26.125,153.4844 Q25.8906,153.75 25.5156,153.75 Q25.1719,153.75 24.9688,153.5469 Q24.7656,153.3594 24.6563,152.8438 Q24.6094,152.4844 24.4219,152.2969 Q24.0938,151.9219 23.4844,151.7031 Q22.875,151.4844 22.25,151.4844 Q21.4844,151.4844 20.8438,151.8125 Q20.2188,152.1406 19.7188,152.8906 Q19.2344,153.6406 19.2344,154.6719 L19.2344,155.7656 Q19.2344,157 20.125,157.8281 Q21.0156,158.6406 22.6094,158.6406 Q23.5469,158.6406 24.2031,158.3906 Q24.5938,158.2344 25.0156,157.7969 Q25.2813,157.5313 25.4219,157.4531 Q25.5781,157.375 25.7813,157.375 Q26.1094,157.375 26.3594,157.6406 Q26.625,157.8906 26.625,158.2344 Q26.625,158.5781 26.2813,158.9844 Q25.7813,159.5625 24.9844,159.8906 Q23.9063,160.3438 22.6094,160.3438 Q21.0938,160.3438 19.8906,159.7188 Q18.9063,159.2188 18.2188,158.1563 Q17.5313,157.0781 17.5313,155.7969 L17.5313,154.6406 Q17.5313,153.3125 18.1406,152.1719 Q18.7656,151.0156 19.8594,150.4063 Q20.9531,149.7813 22.1875,149.7813 Q22.9219,149.7813 23.5625,149.9531 Q24.2188,150.1094 24.7656,150.4688 Z " fill="#000000"/><text fill="#000000" font-family="sans-serif" font-size="14" lengthAdjust="spacing" textLength="47" x="39.5" y="154.0332">JFrame</text><text fill="#000000" font-family="sans-serif" font-size="10" lengthAdjust="spacing" textLength="54" x="36" y="167.4902">javax.swing</text></g><!--MD5=[ffd6f034cfad678921a5ab837a155e30]
class nz.ac.vuw.ecs.swen225.gp22.app.WindowActions--><g id="elem_nz.ac.vuw.ecs.swen225.gp22.app.WindowActions"><rect codeLine="25" fill="#F1F1F1" height="294.7188" id="nz.ac.vuw.ecs.swen225.gp22.app.WindowActions" rx="2.5" ry="2.5" style="stroke:#181818;stroke-width:0.5;" width="204" x="128" y="7"/><ellipse cx="148.4" cy="27.0938" fill="#B4A7E5" rx="11" ry="11" style="stroke:#181818;stroke-width:1.0;"/><path d="M149.3531,23.7344 L149.3531,30.3906 L151.0719,30.3906 Q151.6813,30.3906 151.9469,30.625 Q152.2125,30.8594 152.2125,31.25 Q152.2125,31.625 151.9469,31.8594 Q151.6813,32.0938 151.0719,32.0938 L145.9313,32.0938 Q145.3219,32.0938 145.0563,31.8594 Q144.7906,31.625 144.7906,31.2344 Q144.7906,30.8594 145.0563,30.625 Q145.3219,30.3906 145.9313,30.3906 L147.65,30.3906 L147.65,23.7344 L145.9313,23.7344 Q145.3219,23.7344 145.0563,23.5 Q144.7906,23.2656 144.7906,22.875 Q144.7906,22.5 145.0563,22.2656 Q145.3219,22.0313 145.9313,22.0313 L151.0719,22.0313 Q151.6813,22.0313 151.9469,22.2656 Q152.2125,22.5 152.2125,22.875 Q152.2125,23.2656 151.9469,23.5 Q151.6813,23.7344 151.0719,23.7344 L149.3531,23.7344 Z " fill="#000000"/><text fill="#000000" font-family="sans-serif" font-size="14" font-style="italic" lengthAdjust="spacing" textLength="96" x="195.6" y="26.5332">WindowActions</text><text fill="#000000" font-family="sans-serif" font-size="10" font-style="italic" lengthAdjust="spacing" textLength="160" x="163.6" y="39.9902">nz.ac.vuw.ecs.swen225.gp22.app</text><line style="stroke:#181818;stroke-width:0.5;" x1="129" x2="331" y1="47.1875" y2="47.1875"/><ellipse cx="139" cy="61.4922" fill="#84BE84" rx="3" ry="3" style="stroke:#038048;stroke-width:1.0;"/><text fill="#000000" font-family="sans-serif" font-size="14" font-style="italic" lengthAdjust="spacing" textLength="132" x="148" y="65.7207">move(Direction): void</text><ellipse cx="139" cy="79.1016" fill="#84BE84" rx="3" ry="3" style="stroke:#038048;stroke-width:1.0;"/><text fill="#000000" font-family="sans-serif" font-size="14" font-style="italic" lengthAdjust="spacing" textLength="82" x="148" y="83.3301">pause(): void</text><ellipse cx="139" cy="96.7109" fill="#84BE84" rx="3" ry="3" style="stroke:#038048;stroke-width:1.0;"/><text fill="#000000" font-family="sans-serif" font-size="14" font-style="italic" lengthAdjust="spacing" textLength="98" x="148" y="100.9395">unpause(): void</text><ellipse cx="139" cy="114.3203" fill="#84BE84" rx="3" ry="3" style="stroke:#038048;stroke-width:1.0;"/><text fill="#000000" font-family="sans-serif" font-size="14" font-style="italic" lengthAdjust="spacing" textLength="64" x="148" y="118.5488">exit(): void</text><ellipse cx="139" cy="131.9297" fill="#84BE84" rx="3" ry="3" style="stroke:#038048;stroke-width:1.0;"/><text fill="#000000" font-family="sans-serif" font-size="14" font-style="italic" lengthAdjust="spacing" textLength="72" x="148" y="136.1582">save(): void</text><ellipse cx="139" cy="149.5391" fill="#84BE84" rx="3" ry="3" style="stroke:#038048;stroke-width:1.0;"/><text fill="#000000" font-family="sans-serif" font-size="14" font-style="italic" lengthAdjust="spacing" textLength="89" x="148" y="153.7676">clear(int): void</text><ellipse cx="139" cy="167.1484" fill="#84BE84" rx="3" ry="3" style="stroke:#038048;stroke-width:1.0;"/><text fill="#000000" font-family="sans-serif" font-size="14" font-style="italic" lengthAdjust="spacing" textLength="178" x="148" y="171.377">getGameAndResume(): void</text><ellipse cx="139" cy="184.7578" fill="#84BE84" rx="3" ry="3" style="stroke:#038048;stroke-width:1.0;"/><text fill="#000000" font-family="sans-serif" font-size="14" font-style="italic" lengthAdjust="spacing" textLength="119" x="148" y="188.9863">startLevel(int): void</text><ellipse cx="139" cy="202.3672" fill="#84BE84" rx="3" ry="3" style="stroke:#038048;stroke-width:1.0;"/><text fill="#000000" font-family="sans-serif" font-size="14" font-style="italic" lengthAdjust="spacing" textLength="130" x="148" y="206.5957">replayLevel(int): void</text><ellipse cx="139" cy="219.9766" fill="#84BE84" rx="3" ry="3" style="stroke:#038048;stroke-width:1.0;"/><text fill="#000000" font-family="sans-serif" font-size="14" font-style="italic" lengthAdjust="spacing" textLength="122" x="148" y="224.2051">togglePause(): void</text><ellipse cx="139" cy="237.5859" fill="#84BE84" rx="3" ry="3" style="stroke:#038048;stroke-width:1.0;"/><text fill="#000000" font-family="sans-serif" font-size="14" font-style="italic" lengthAdjust="spacing" textLength="147" x="148" y="241.8145">setReplaySpeed(): void</text><ellipse cx="139" cy="255.1953" fill="#84BE84" rx="3" ry="3" style="stroke:#038048;stroke-width:1.0;"/><text fill="#000000" font-family="sans-serif" font-size="14" font-style="italic" lengthAdjust="spacing" textLength="114" x="148" y="259.4238">stepReplay(): void</text><ellipse cx="139" cy="272.8047" fill="#84BE84" rx="3" ry="3" style="stroke:#038048;stroke-width:1.0;"/><text fill="#000000" font-family="sans-serif" font-size="14" font-style="italic" lengthAdjust="spacing" textLength="122" x="148" y="277.0332">toMainMenu(): void</text><ellipse cx="139" cy="290.4141" fill="#84BE84" rx="3" ry="3" style="stroke:#038048;stroke-width:1.0;"/><text fill="#000000" font-family="sans-serif" font-size="14" font-style="italic" lengthAdjust="spacing" textLength="153" x="148" y="294.6426">showPopup(String): void</text></g><!--MD5=[51c36962e29644d77dc98068282f9dbb]
reverse link javax.swing.JFrame to nz.ac.vuw.ecs.swen225.gp22.app.App--><g id="link_javax.swing.JFrame_nz.ac.vuw.ecs.swen225.gp22.app.App"><path codeLine="42" d="M59.38,194.1 C69.1,234.14 84.98,299.49 100.08,361.66 " fill="none" id="javax.swing.JFrame-backto-nz.ac.vuw.ecs.swen225.gp22.app.App" style="stroke:#181818;stroke-width:1.0;"/><polygon fill="none" points="52.57,195.73,54.65,174.64,66.17,192.42,52.57,195.73" style="stroke:#181818;stroke-width:1.0;"/></g><!--MD5=[99c900415ffdbeb8a0a591e249646092]
reverse link nz.ac.vuw.ecs.swen225.gp22.app.WindowActions to nz.ac.vuw.ecs.swen225.gp22.app.App--><g id="link_nz.ac.vuw.ecs.swen225.gp22.app.WindowActions_nz.ac.vuw.ecs.swen225.gp22.app.App"><path codeLine="43" d="M189.64,321.66 C186.39,335.03 183.11,348.54 179.86,361.9 " fill="none" id="nz.ac.vuw.ecs.swen225.gp22.app.WindowActions-backto-nz.ac.vuw.ecs.swen225.gp22.app.App" style="stroke:#181818;stroke-width:1.0;stroke-dasharray:7.0,7.0;"/><polygon fill="none" points="182.84,319.98,194.36,302.2,196.45,323.28,182.84,319.98" style="stroke:#181818;stroke-width:1.0;"/></g><rect fill="none" height="12.5781" style="stroke:none;stroke-width:1.0;" width="184" x="70.5" y="697.9375"/><text fill="#888888" font-family="sans-serif" font-size="10" lengthAdjust="spacing" textLength="184" x="70.5" y="708.3184">UMLDoclet 2.0.19, PlantUML 1.2022.8</text><!--MD5=[c65455e1e9b9d39e4a00ab4b94a16869]
@startuml
    set namespaceSeparator none
    hide empty fields
    hide empty methods

    class "<size:14>App\n<size:10>nz.ac.vuw.ecs.swen225.gp22.app" as nz.ac.vuw.ecs.swen225.gp22.app.App [[App.html]] {
        +App(boolean)
        +toMainMenu(): void
        +move(Direction): void
        +pause(): void
        +unpause(): void
        +togglePause(): void
        +save(): void
        +exit(): void
        +getGameAndResume(): void
        +startLevel(int): void
        +startLevel(String): void
        +replayLevel(int): void
        +stepReplay(): void
        +setReplaySpeed(): void
        +showPopup(String): void
        +clear(int): void
    }

    class "<size:14>JFrame\n<size:10>javax.swing" as javax.swing.JFrame
    interface "<size:14>WindowActions\n<size:10>nz.ac.vuw.ecs.swen225.gp22.app" as nz.ac.vuw.ecs.swen225.gp22.app.WindowActions {
        {abstract} +move(Direction): void
        {abstract} +pause(): void
        {abstract} +unpause(): void
        {abstract} +exit(): void
        {abstract} +save(): void
        {abstract} +clear(int): void
        {abstract} +getGameAndResume(): void
        {abstract} +startLevel(int): void
        {abstract} +replayLevel(int): void
        {abstract} +togglePause(): void
        {abstract} +setReplaySpeed(): void
        {abstract} +stepReplay(): void
        {abstract} +toMainMenu(): void
        {abstract} +showPopup(String): void
    }

    javax.swing.JFrame <|- - nz.ac.vuw.ecs.swen225.gp22.app.App
    nz.ac.vuw.ecs.swen225.gp22.app.WindowActions <|.. nz.ac.vuw.ecs.swen225.gp22.app.App

    center footer UMLDoclet 2.0.19, PlantUML 1.2022.8
@enduml

PlantUML version 1.2022.8(Sun Sep 25 22:00:33 NZDT 2022)
(APACHE source distribution)
Java Runtime: OpenJDK Runtime Environment
JVM: OpenJDK 64-Bit Server VM
Default Encoding: UTF-8
Language: en
Country: NZ
--></g></svg>