<?xml version="1.0" encoding="UTF-8" standalone="no"?><svg xmlns="http://www.w3.org/2000/svg" xmlns:xlink="http://www.w3.org/1999/xlink" contentStyleType="text/css" height="365px" preserveAspectRatio="none" style="width:335px;height:365px;background:#FFFFFF;" version="1.1" viewBox="0 0 335 365" width="335px" zoomAndPan="magnify"><defs/><g><!--MD5=[14c5d4fe363245769437778b9f84bd21]
class nz.ac.vuw.ecs.swen225.gp22.app.GamePanel--><a href="GamePanel.html" target="_top" title="GamePanel.html" xlink:actuate="onRequest" xlink:href="GamePanel.html" xlink:show="new" xlink:title="GamePanel.html" xlink:type="simple"><g id="elem_nz.ac.vuw.ecs.swen225.gp22.app.GamePanel"><rect codeLine="5" fill="#F1F1F1" height="232.2813" id="nz.ac.vuw.ecs.swen225.gp22.app.GamePanel" rx="2.5" ry="2.5" style="stroke:#181818;stroke-width:0.5;" width="319" x="9" y="107"/><ellipse cx="85.25" cy="127.0938" fill="#ADD1B2" rx="11" ry="11" style="stroke:#181818;stroke-width:1.0;"/><path d="M88.0156,122.9688 Q88.1719,122.75 88.3594,122.6406 Q88.5469,122.5313 88.7656,122.5313 Q89.1406,122.5313 89.375,122.7969 Q89.6094,123.0469 89.6094,123.6563 L89.6094,125.1094 Q89.6094,125.7188 89.375,125.9844 Q89.1406,126.25 88.7656,126.25 Q88.4219,126.25 88.2188,126.0469 Q88.0156,125.8594 87.9063,125.3438 Q87.8594,124.9844 87.6719,124.7969 Q87.3438,124.4219 86.7344,124.2031 Q86.125,123.9844 85.5,123.9844 Q84.7344,123.9844 84.0938,124.3125 Q83.4688,124.6406 82.9688,125.3906 Q82.4844,126.1406 82.4844,127.1719 L82.4844,128.2656 Q82.4844,129.5 83.375,130.3281 Q84.2656,131.1406 85.8594,131.1406 Q86.7969,131.1406 87.4531,130.8906 Q87.8438,130.7344 88.2656,130.2969 Q88.5313,130.0313 88.6719,129.9531 Q88.8281,129.875 89.0313,129.875 Q89.3594,129.875 89.6094,130.1406 Q89.875,130.3906 89.875,130.7344 Q89.875,131.0781 89.5313,131.4844 Q89.0313,132.0625 88.2344,132.3906 Q87.1563,132.8438 85.8594,132.8438 Q84.3438,132.8438 83.1406,132.2188 Q82.1563,131.7188 81.4688,130.6563 Q80.7813,129.5781 80.7813,128.2969 L80.7813,127.1406 Q80.7813,125.8125 81.3906,124.6719 Q82.0156,123.5156 83.1094,122.9063 Q84.2031,122.2813 85.4375,122.2813 Q86.1719,122.2813 86.8125,122.4531 Q87.4688,122.6094 88.0156,122.9688 Z " fill="#000000"/><text fill="#000000" font-family="sans-serif" font-size="14" lengthAdjust="spacing" textLength="74" x="147.75" y="126.5332">GamePanel</text><text fill="#000000" font-family="sans-serif" font-size="10" lengthAdjust="spacing" textLength="158" x="105.75" y="139.9902">nz.ac.vuw.ecs.swen225.gp22.app</text><line style="stroke:#181818;stroke-width:0.5;" x1="10" x2="327" y1="147.1875" y2="147.1875"/><ellipse cx="20" cy="161.4922" fill="none" rx="3" ry="3" style="stroke:#038048;stroke-width:1.0;"/><text fill="#000000" font-family="sans-serif" font-size="14" lengthAdjust="spacing" textLength="74" x="29" y="165.7207">maze: Maze</text><ellipse cx="20" cy="179.1016" fill="none" rx="3" ry="3" style="stroke:#038048;stroke-width:1.0;"/><text fill="#000000" font-family="sans-serif" font-size="14" lengthAdjust="spacing" textLength="121" x="29" y="183.3301">recorder: Recorder</text><line style="stroke:#181818;stroke-width:0.5;" x1="10" x2="327" y1="190.4063" y2="190.4063"/><ellipse cx="20" cy="204.7109" fill="#84BE84" rx="3" ry="3" style="stroke:#038048;stroke-width:1.0;"/><text fill="#000000" font-family="sans-serif" font-size="14" lengthAdjust="spacing" textLength="293" x="29" y="208.9395">GamePanel(Maze, Recorder, JPanel, boolean)</text><ellipse cx="20" cy="222.3203" fill="#84BE84" rx="3" ry="3" style="stroke:#038048;stroke-width:1.0;"/><text fill="#000000" font-family="sans-serif" font-size="14" lengthAdjust="spacing" textLength="121" x="29" y="226.5488">startLevel(int): void</text><ellipse cx="20" cy="239.9297" fill="#84BE84" rx="3" ry="3" style="stroke:#038048;stroke-width:1.0;"/><text fill="#000000" font-family="sans-serif" font-size="14" lengthAdjust="spacing" textLength="127" x="29" y="244.1582">isPaused(): boolean</text><ellipse cx="20" cy="257.5391" fill="#84BE84" rx="3" ry="3" style="stroke:#038048;stroke-width:1.0;"/><text fill="#000000" font-family="sans-serif" font-size="14" lengthAdjust="spacing" textLength="154" x="29" y="261.7676">setPause(boolean): void</text><ellipse cx="20" cy="275.1484" fill="#84BE84" rx="3" ry="3" style="stroke:#038048;stroke-width:1.0;"/><text fill="#000000" font-family="sans-serif" font-size="14" lengthAdjust="spacing" textLength="147" x="29" y="279.377">setSpeed(double): void</text><ellipse cx="20" cy="292.7578" fill="#84BE84" rx="3" ry="3" style="stroke:#038048;stroke-width:1.0;"/><text fill="#000000" font-family="sans-serif" font-size="14" lengthAdjust="spacing" textLength="104" x="29" y="296.9863">setTick(int): void</text><ellipse cx="20" cy="310.3672" fill="#84BE84" rx="3" ry="3" style="stroke:#038048;stroke-width:1.0;"/><text fill="#000000" font-family="sans-serif" font-size="14" lengthAdjust="spacing" textLength="79" x="29" y="314.5957">getTick(): int</text><polygon fill="#FFFF44" points="20,322.9766,24,326.9766,20,330.9766,16,326.9766" style="stroke:#B38D22;stroke-width:1.0;"/><text fill="#000000" font-family="sans-serif" font-size="14" lengthAdjust="spacing" textLength="205" x="29" y="332.2051">paintComponent(Graphics): void</text></g></a><!--MD5=[56a185cb33bdc7c23303e5865f20a19b]
class javax.swing.JPanel--><g id="elem_javax.swing.JPanel"><rect codeLine="18" fill="#F1F1F1" height="40.1875" id="javax.swing.JPanel" rx="2.5" ry="2.5" style="stroke:#181818;stroke-width:0.5;" width="86" x="125.5" y="7"/><ellipse cx="140.5" cy="27.0938" fill="#ADD1B2" rx="11" ry="11" style="stroke:#181818;stroke-width:1.0;"/><path d="M143.2656,22.9688 Q143.4219,22.75 143.6094,22.6406 Q143.7969,22.5313 144.0156,22.5313 Q144.3906,22.5313 144.625,22.7969 Q144.8594,23.0469 144.8594,23.6563 L144.8594,25.1094 Q144.8594,25.7188 144.625,25.9844 Q144.3906,26.25 144.0156,26.25 Q143.6719,26.25 143.4688,26.0469 Q143.2656,25.8594 143.1563,25.3438 Q143.1094,24.9844 142.9219,24.7969 Q142.5938,24.4219 141.9844,24.2031 Q141.375,23.9844 140.75,23.9844 Q139.9844,23.9844 139.3438,24.3125 Q138.7188,24.6406 138.2188,25.3906 Q137.7344,26.1406 137.7344,27.1719 L137.7344,28.2656 Q137.7344,29.5 138.625,30.3281 Q139.5156,31.1406 141.1094,31.1406 Q142.0469,31.1406 142.7031,30.8906 Q143.0938,30.7344 143.5156,30.2969 Q143.7813,30.0313 143.9219,29.9531 Q144.0781,29.875 144.2813,29.875 Q144.6094,29.875 144.8594,30.1406 Q145.125,30.3906 145.125,30.7344 Q145.125,31.0781 144.7813,31.4844 Q144.2813,32.0625 143.4844,32.3906 Q142.4063,32.8438 141.1094,32.8438 Q139.5938,32.8438 138.3906,32.2188 Q137.4063,31.7188 136.7188,30.6563 Q136.0313,29.5781 136.0313,28.2969 L136.0313,27.1406 Q136.0313,25.8125 136.6406,24.6719 Q137.2656,23.5156 138.3594,22.9063 Q139.4531,22.2813 140.6875,22.2813 Q141.4219,22.2813 142.0625,22.4531 Q142.7188,22.6094 143.2656,22.9688 Z " fill="#000000"/><text fill="#000000" font-family="sans-serif" font-size="14" lengthAdjust="spacing" textLength="42" x="160.5" y="26.5332">JPanel</text><text fill="#000000" font-family="sans-serif" font-size="10" lengthAdjust="spacing" textLength="54" x="154.5" y="39.9902">javax.swing</text></g><!--MD5=[f21d5c9521720e3dd9855ab5daf61682]
reverse link javax.swing.JPanel to nz.ac.vuw.ecs.swen225.gp22.app.GamePanel--><g id="link_javax.swing.JPanel_nz.ac.vuw.ecs.swen225.gp22.app.GamePanel"><path codeLine="20" d="M168.5,67.45 C168.5,79.23 168.5,92.78 168.5,106.86 " fill="none" id="javax.swing.JPanel-backto-nz.ac.vuw.ecs.swen225.gp22.app.GamePanel" style="stroke:#181818;stroke-width:1.0;"/><polygon fill="none" points="161.5,67.31,168.5,47.31,175.5,67.31,161.5,67.31" style="stroke:#181818;stroke-width:1.0;"/></g><rect fill="none" height="12.5781" style="stroke:none;stroke-width:1.0;" width="184" x="68.5" y="345.2813"/><text fill="#888888" font-family="sans-serif" font-size="10" lengthAdjust="spacing" textLength="184" x="68.5" y="355.6621">UMLDoclet 2.0.19, PlantUML 1.2022.8</text><!--MD5=[e13c93820a29633bbdfd7d46f1d354d4]
@startuml
    set namespaceSeparator none
    hide empty fields
    hide empty methods

    class "<size:14>GamePanel\n<size:10>nz.ac.vuw.ecs.swen225.gp22.app" as nz.ac.vuw.ecs.swen225.gp22.app.GamePanel [[GamePanel.html]] {
        +maze: Maze
        +recorder: Recorder
        +GamePanel(Maze, Recorder, JPanel, boolean)
        +startLevel(int): void
        +isPaused(): boolean
        +setPause(boolean): void
        +setSpeed(double): void
        +setTick(int): void
        +getTick(): int
        #paintComponent(Graphics): void
    }

    class "<size:14>JPanel\n<size:10>javax.swing" as javax.swing.JPanel

    javax.swing.JPanel <|- - nz.ac.vuw.ecs.swen225.gp22.app.GamePanel

    center footer UMLDoclet 2.0.19, PlantUML 1.2022.8
@enduml

PlantUML version 1.2022.8(Sun Sep 25 22:00:33 NZDT 2022)
(APACHE source distribution)
Java Runtime: OpenJDK Runtime Environment
JVM: OpenJDK 64-Bit Server VM
Default Encoding: UTF-8
Language: en
Country: NZ
--></g></svg>