<?xml version="1.0" encoding="UTF-8" standalone="no"?><svg xmlns="http://www.w3.org/2000/svg" xmlns:xlink="http://www.w3.org/1999/xlink" contentStyleType="text/css" height="356px" preserveAspectRatio="none" style="width:226px;height:356px;background:#FFFFFF;" version="1.1" viewBox="0 0 226 356" width="226px" zoomAndPan="magnify"><defs/><g><!--MD5=[c0e439df5a386820d2c256d9c0f85091]
class nz.ac.vuw.ecs.swen225.gp22.app.KeyController--><a href="KeyController.html" target="_top" title="KeyController.html" xlink:actuate="onRequest" xlink:href="KeyController.html" xlink:show="new" xlink:title="KeyController.html" xlink:type="simple"><g id="elem_nz.ac.vuw.ecs.swen225.gp22.app.KeyController"><rect codeLine="5" fill="#F1F1F1" height="161.8438" id="nz.ac.vuw.ecs.swen225.gp22.app.KeyController" rx="2.5" ry="2.5" style="stroke:#181818;stroke-width:0.5;" width="212" x="7" y="168"/><ellipse cx="31.9" cy="188.0938" fill="#ADD1B2" rx="11" ry="11" style="stroke:#181818;stroke-width:1.0;"/><path d="M34.6656,183.9688 Q34.8219,183.75 35.0094,183.6406 Q35.1969,183.5313 35.4156,183.5313 Q35.7906,183.5313 36.025,183.7969 Q36.2594,184.0469 36.2594,184.6563 L36.2594,186.1094 Q36.2594,186.7188 36.025,186.9844 Q35.7906,187.25 35.4156,187.25 Q35.0719,187.25 34.8688,187.0469 Q34.6656,186.8594 34.5563,186.3438 Q34.5094,185.9844 34.3219,185.7969 Q33.9938,185.4219 33.3844,185.2031 Q32.775,184.9844 32.15,184.9844 Q31.3844,184.9844 30.7438,185.3125 Q30.1188,185.6406 29.6188,186.3906 Q29.1344,187.1406 29.1344,188.1719 L29.1344,189.2656 Q29.1344,190.5 30.025,191.3281 Q30.9156,192.1406 32.5094,192.1406 Q33.4469,192.1406 34.1031,191.8906 Q34.4938,191.7344 34.9156,191.2969 Q35.1813,191.0313 35.3219,190.9531 Q35.4781,190.875 35.6813,190.875 Q36.0094,190.875 36.2594,191.1406 Q36.525,191.3906 36.525,191.7344 Q36.525,192.0781 36.1813,192.4844 Q35.6813,193.0625 34.8844,193.3906 Q33.8063,193.8438 32.5094,193.8438 Q30.9938,193.8438 29.7906,193.2188 Q28.8063,192.7188 28.1188,191.6563 Q27.4313,190.5781 27.4313,189.2969 L27.4313,188.1406 Q27.4313,186.8125 28.0406,185.6719 Q28.6656,184.5156 29.7594,183.9063 Q30.8531,183.2813 32.0875,183.2813 Q32.8219,183.2813 33.4625,183.4531 Q34.1188,183.6094 34.6656,183.9688 Z " fill="#000000"/><text fill="#000000" font-family="sans-serif" font-size="14" lengthAdjust="spacing" textLength="86" x="84.1" y="187.5332">KeyController</text><text fill="#000000" font-family="sans-serif" font-size="10" lengthAdjust="spacing" textLength="158" x="48.1" y="200.9902">nz.ac.vuw.ecs.swen225.gp22.app</text><line style="stroke:#181818;stroke-width:0.5;" x1="8" x2="218" y1="208.1875" y2="208.1875"/><ellipse cx="18" cy="222.4922" fill="none" rx="3" ry="3" style="stroke:#038048;stroke-width:1.0;"/><text fill="#000000" font-family="sans-serif" font-size="14" lengthAdjust="spacing" textLength="121" x="27" y="226.7207">recorder: Recorder</text><line style="stroke:#181818;stroke-width:0.5;" x1="8" x2="218" y1="233.7969" y2="233.7969"/><ellipse cx="18" cy="248.1016" fill="#84BE84" rx="3" ry="3" style="stroke:#038048;stroke-width:1.0;"/><text fill="#000000" font-family="sans-serif" font-size="14" lengthAdjust="spacing" textLength="181" x="27" y="252.3301">setRecorder(Recorder): void</text><ellipse cx="18" cy="265.7109" fill="#84BE84" rx="3" ry="3" style="stroke:#038048;stroke-width:1.0;"/><text fill="#000000" font-family="sans-serif" font-size="14" lengthAdjust="spacing" textLength="147" x="27" y="269.9395">handle(KeyEvent): void</text><ellipse cx="18" cy="283.3203" fill="#84BE84" rx="3" ry="3" style="stroke:#038048;stroke-width:1.0;"/><text fill="#000000" font-family="sans-serif" font-size="14" lengthAdjust="spacing" textLength="178" x="27" y="287.5488">keyPressed(KeyEvent): void</text><ellipse cx="18" cy="300.9297" fill="#84BE84" rx="3" ry="3" style="stroke:#038048;stroke-width:1.0;"/><text fill="#000000" font-family="sans-serif" font-size="14" lengthAdjust="spacing" textLength="186" x="27" y="305.1582">keyReleased(KeyEvent): void</text><ellipse cx="18" cy="318.5391" fill="#84BE84" rx="3" ry="3" style="stroke:#038048;stroke-width:1.0;"/><text fill="#000000" font-family="sans-serif" font-size="14" lengthAdjust="spacing" textLength="166" x="27" y="322.7676">keyTyped(KeyEvent): void</text></g></a><!--MD5=[3eb55d915ce4c988cc6fe2a782a0fcdf]
class java.awt.event.KeyListener--><g id="elem_java.awt.event.KeyListener"><rect codeLine="14" fill="#F1F1F1" height="101.0156" id="java.awt.event.KeyListener" rx="2.5" ry="2.5" style="stroke:#181818;stroke-width:0.5;" width="211" x="7.5" y="7"/><ellipse cx="71.25" cy="27.0938" fill="#B4A7E5" rx="11" ry="11" style="stroke:#181818;stroke-width:1.0;"/><path d="M72.2031,23.7344 L72.2031,30.3906 L73.9219,30.3906 Q74.5313,30.3906 74.7969,30.625 Q75.0625,30.8594 75.0625,31.25 Q75.0625,31.625 74.7969,31.8594 Q74.5313,32.0938 73.9219,32.0938 L68.7813,32.0938 Q68.1719,32.0938 67.9063,31.8594 Q67.6406,31.625 67.6406,31.2344 Q67.6406,30.8594 67.9063,30.625 Q68.1719,30.3906 68.7813,30.3906 L70.5,30.3906 L70.5,23.7344 L68.7813,23.7344 Q68.1719,23.7344 67.9063,23.5 Q67.6406,23.2656 67.6406,22.875 Q67.6406,22.5 67.9063,22.2656 Q68.1719,22.0313 68.7813,22.0313 L73.9219,22.0313 Q74.5313,22.0313 74.7969,22.2656 Q75.0625,22.5 75.0625,22.875 Q75.0625,23.2656 74.7969,23.5 Q74.5313,23.7344 73.9219,23.7344 L72.2031,23.7344 Z " fill="#000000"/><text fill="#000000" font-family="sans-serif" font-size="14" font-style="italic" lengthAdjust="spacing" textLength="75" x="91.75" y="26.5332">KeyListener</text><text fill="#000000" font-family="sans-serif" font-size="10" font-style="italic" lengthAdjust="spacing" textLength="68" x="95.25" y="39.9902">java.awt.event</text><line style="stroke:#181818;stroke-width:0.5;" x1="8.5" x2="217.5" y1="47.1875" y2="47.1875"/><ellipse cx="18.5" cy="61.4922" fill="#84BE84" rx="3" ry="3" style="stroke:#038048;stroke-width:1.0;"/><text fill="#000000" font-family="sans-serif" font-size="14" font-style="italic" lengthAdjust="spacing" textLength="165" x="27.5" y="65.7207">keyTyped(KeyEvent): void</text><ellipse cx="18.5" cy="79.1016" fill="#84BE84" rx="3" ry="3" style="stroke:#038048;stroke-width:1.0;"/><text fill="#000000" font-family="sans-serif" font-size="14" font-style="italic" lengthAdjust="spacing" textLength="177" x="27.5" y="83.3301">keyPressed(KeyEvent): void</text><ellipse cx="18.5" cy="96.7109" fill="#84BE84" rx="3" ry="3" style="stroke:#038048;stroke-width:1.0;"/><text fill="#000000" font-family="sans-serif" font-size="14" font-style="italic" lengthAdjust="spacing" textLength="185" x="27.5" y="100.9395">keyReleased(KeyEvent): void</text></g><!--MD5=[5b20836789f87bf6e4c018d9a840331f]
reverse link java.awt.event.KeyListener to nz.ac.vuw.ecs.swen225.gp22.app.KeyController--><g id="link_java.awt.event.KeyListener_nz.ac.vuw.ecs.swen225.gp22.app.KeyController"><path codeLine="20" d="M113,128.39 C113,141.21 113,154.67 113,167.76 " fill="none" id="java.awt.event.KeyListener-backto-nz.ac.vuw.ecs.swen225.gp22.app.KeyController" style="stroke:#181818;stroke-width:1.0;stroke-dasharray:7.0,7.0;"/><polygon fill="none" points="106,128.29,113,108.29,120,128.29,106,128.29" style="stroke:#181818;stroke-width:1.0;"/></g><rect fill="none" height="12.5781" style="stroke:none;stroke-width:1.0;" width="184" x="14" y="335.8438"/><text fill="#888888" font-family="sans-serif" font-size="10" lengthAdjust="spacing" textLength="184" x="14" y="346.2246">UMLDoclet 2.0.19, PlantUML 1.2022.8</text><!--MD5=[b510bd685200a6e1b2b796df8afa60c6]
@startuml
    set namespaceSeparator none
    hide empty fields
    hide empty methods

    class "<size:14>KeyController\n<size:10>nz.ac.vuw.ecs.swen225.gp22.app" as nz.ac.vuw.ecs.swen225.gp22.app.KeyController [[KeyController.html]] {
        +recorder: Recorder
        +setRecorder(Recorder): void
        +handle(KeyEvent): void
        +keyPressed(KeyEvent): void
        +keyReleased(KeyEvent): void
        +keyTyped(KeyEvent): void
    }

    interface "<size:14>KeyListener\n<size:10>java.awt.event" as java.awt.event.KeyListener {
        {abstract} +keyTyped(KeyEvent): void
        {abstract} +keyPressed(KeyEvent): void
        {abstract} +keyReleased(KeyEvent): void
    }

    java.awt.event.KeyListener <|.. nz.ac.vuw.ecs.swen225.gp22.app.KeyController

    center footer UMLDoclet 2.0.19, PlantUML 1.2022.8
@enduml

PlantUML version 1.2022.8(Sun Sep 25 22:00:33 NZDT 2022)
(APACHE source distribution)
Java Runtime: OpenJDK Runtime Environment
JVM: OpenJDK 64-Bit Server VM
Default Encoding: UTF-8
Language: en
Country: NZ
--></g></svg>