<?xml version="1.0" encoding="UTF-8" standalone="no"?><svg xmlns="http://www.w3.org/2000/svg" xmlns:xlink="http://www.w3.org/1999/xlink" contentStyleType="text/css" height="199px" preserveAspectRatio="none" style="width:204px;height:199px;background:#FFFFFF;" version="1.1" viewBox="0 0 204 199" width="204px" zoomAndPan="magnify"><defs/><g><!--MD5=[3f3d1e129df0f800c698d42a4c040824]
class nz.ac.vuw.ecs.swen225.gp22.app.MenuBar--><a href="MenuBar.html" target="_top" title="MenuBar.html" xlink:actuate="onRequest" xlink:href="MenuBar.html" xlink:show="new" xlink:title="MenuBar.html" xlink:type="simple"><g id="elem_nz.ac.vuw.ecs.swen225.gp22.app.MenuBar"><rect codeLine="5" fill="#F1F1F1" height="65.7969" id="nz.ac.vuw.ecs.swen225.gp22.app.MenuBar" rx="2.5" ry="2.5" style="stroke:#181818;stroke-width:0.5;" width="190" x="7" y="107"/><ellipse cx="22" cy="127.0938" fill="#ADD1B2" rx="11" ry="11" style="stroke:#181818;stroke-width:1.0;"/><path d="M24.7656,122.9688 Q24.9219,122.75 25.1094,122.6406 Q25.2969,122.5313 25.5156,122.5313 Q25.8906,122.5313 26.125,122.7969 Q26.3594,123.0469 26.3594,123.6563 L26.3594,125.1094 Q26.3594,125.7188 26.125,125.9844 Q25.8906,126.25 25.5156,126.25 Q25.1719,126.25 24.9688,126.0469 Q24.7656,125.8594 24.6563,125.3438 Q24.6094,124.9844 24.4219,124.7969 Q24.0938,124.4219 23.4844,124.2031 Q22.875,123.9844 22.25,123.9844 Q21.4844,123.9844 20.8438,124.3125 Q20.2188,124.6406 19.7188,125.3906 Q19.2344,126.1406 19.2344,127.1719 L19.2344,128.2656 Q19.2344,129.5 20.125,130.3281 Q21.0156,131.1406 22.6094,131.1406 Q23.5469,131.1406 24.2031,130.8906 Q24.5938,130.7344 25.0156,130.2969 Q25.2813,130.0313 25.4219,129.9531 Q25.5781,129.875 25.7813,129.875 Q26.1094,129.875 26.3594,130.1406 Q26.625,130.3906 26.625,130.7344 Q26.625,131.0781 26.2813,131.4844 Q25.7813,132.0625 24.9844,132.3906 Q23.9063,132.8438 22.6094,132.8438 Q21.0938,132.8438 19.8906,132.2188 Q18.9063,131.7188 18.2188,130.6563 Q17.5313,129.5781 17.5313,128.2969 L17.5313,127.1406 Q17.5313,125.8125 18.1406,124.6719 Q18.7656,123.5156 19.8594,122.9063 Q20.9531,122.2813 22.1875,122.2813 Q22.9219,122.2813 23.5625,122.4531 Q24.2188,122.6094 24.7656,122.9688 Z " fill="#000000"/><text fill="#000000" font-family="sans-serif" font-size="14" lengthAdjust="spacing" textLength="57" x="86.5" y="126.5332">MenuBar</text><text fill="#000000" font-family="sans-serif" font-size="10" lengthAdjust="spacing" textLength="158" x="36" y="139.9902">nz.ac.vuw.ecs.swen225.gp22.app</text><line style="stroke:#181818;stroke-width:0.5;" x1="8" x2="196" y1="147.1875" y2="147.1875"/><ellipse cx="18" cy="161.4922" fill="#84BE84" rx="3" ry="3" style="stroke:#038048;stroke-width:1.0;"/><text fill="#000000" font-family="sans-serif" font-size="14" lengthAdjust="spacing" textLength="162" x="27" y="165.7207">MenuBar(WindowActions)</text></g></a><!--MD5=[e1d5997e74a9e0bf94752554eaad51e9]
class javax.swing.JMenuBar--><g id="elem_javax.swing.JMenuBar"><rect codeLine="9" fill="#F1F1F1" height="40.1875" id="javax.swing.JMenuBar" rx="2.5" ry="2.5" style="stroke:#181818;stroke-width:0.5;" width="95" x="54.5" y="7"/><ellipse cx="69.5" cy="27.0938" fill="#ADD1B2" rx="11" ry="11" style="stroke:#181818;stroke-width:1.0;"/><path d="M72.2656,22.9688 Q72.4219,22.75 72.6094,22.6406 Q72.7969,22.5313 73.0156,22.5313 Q73.3906,22.5313 73.625,22.7969 Q73.8594,23.0469 73.8594,23.6563 L73.8594,25.1094 Q73.8594,25.7188 73.625,25.9844 Q73.3906,26.25 73.0156,26.25 Q72.6719,26.25 72.4688,26.0469 Q72.2656,25.8594 72.1563,25.3438 Q72.1094,24.9844 71.9219,24.7969 Q71.5938,24.4219 70.9844,24.2031 Q70.375,23.9844 69.75,23.9844 Q68.9844,23.9844 68.3438,24.3125 Q67.7188,24.6406 67.2188,25.3906 Q66.7344,26.1406 66.7344,27.1719 L66.7344,28.2656 Q66.7344,29.5 67.625,30.3281 Q68.5156,31.1406 70.1094,31.1406 Q71.0469,31.1406 71.7031,30.8906 Q72.0938,30.7344 72.5156,30.2969 Q72.7813,30.0313 72.9219,29.9531 Q73.0781,29.875 73.2813,29.875 Q73.6094,29.875 73.8594,30.1406 Q74.125,30.3906 74.125,30.7344 Q74.125,31.0781 73.7813,31.4844 Q73.2813,32.0625 72.4844,32.3906 Q71.4063,32.8438 70.1094,32.8438 Q68.5938,32.8438 67.3906,32.2188 Q66.4063,31.7188 65.7188,30.6563 Q65.0313,29.5781 65.0313,28.2969 L65.0313,27.1406 Q65.0313,25.8125 65.6406,24.6719 Q66.2656,23.5156 67.3594,22.9063 Q68.4531,22.2813 69.6875,22.2813 Q70.4219,22.2813 71.0625,22.4531 Q71.7188,22.6094 72.2656,22.9688 Z " fill="#000000"/><text fill="#000000" font-family="sans-serif" font-size="14" lengthAdjust="spacing" textLength="63" x="83.5" y="26.5332">JMenuBar</text><text fill="#000000" font-family="sans-serif" font-size="10" lengthAdjust="spacing" textLength="54" x="88" y="39.9902">javax.swing</text></g><!--MD5=[701b9eb874dab92a3e5baad8f1e948b5]
reverse link javax.swing.JMenuBar to nz.ac.vuw.ecs.swen225.gp22.app.MenuBar--><g id="link_javax.swing.JMenuBar_nz.ac.vuw.ecs.swen225.gp22.app.MenuBar"><path codeLine="11" d="M102,67.09 C102,80.05 102,94.32 102,106.71 " fill="none" id="javax.swing.JMenuBar-backto-nz.ac.vuw.ecs.swen225.gp22.app.MenuBar" style="stroke:#181818;stroke-width:1.0;"/><polygon fill="none" points="95,67.08,102,47.08,109,67.08,95,67.08" style="stroke:#181818;stroke-width:1.0;"/></g><rect fill="none" height="12.5781" style="stroke:none;stroke-width:1.0;" width="184" x="3" y="178.7969"/><text fill="#888888" font-family="sans-serif" font-size="10" lengthAdjust="spacing" textLength="184" x="3" y="189.1777">UMLDoclet 2.0.19, PlantUML 1.2022.8</text><!--MD5=[9ea48f9c8632fb1fe8daf6e4ece4231c]
@startuml
    set namespaceSeparator none
    hide empty fields
    hide empty methods

    class "<size:14>MenuBar\n<size:10>nz.ac.vuw.ecs.swen225.gp22.app" as nz.ac.vuw.ecs.swen225.gp22.app.MenuBar [[MenuBar.html]] {
        +MenuBar(WindowActions)
    }

    class "<size:14>JMenuBar\n<size:10>javax.swing" as javax.swing.JMenuBar

    javax.swing.JMenuBar <|- - nz.ac.vuw.ecs.swen225.gp22.app.MenuBar

    center footer UMLDoclet 2.0.19, PlantUML 1.2022.8
@enduml

PlantUML version 1.2022.8(Sun Sep 25 22:00:33 NZDT 2022)
(APACHE source distribution)
Java Runtime: OpenJDK Runtime Environment
JVM: OpenJDK 64-Bit Server VM
Default Encoding: UTF-8
Language: en
Country: NZ
--></g></svg>