<?xml version="1.0" encoding="UTF-8" standalone="no"?><svg xmlns="http://www.w3.org/2000/svg" xmlns:xlink="http://www.w3.org/1999/xlink" contentStyleType="text/css" height="875px" preserveAspectRatio="none" style="width:2270px;height:875px;background:#FFFFFF;" version="1.1" viewBox="0 0 2270 875" width="2270px" zoomAndPan="magnify"><defs/><g><!--MD5=[52976c862519184f821fcadd77b8b983]
cluster nz.ac.vuw.ecs.swen225.gp22.app--><g id="cluster_nz.ac.vuw.ecs.swen225.gp22.app"><path d="M8.5,183 L240.5,183 A3.75,3.75 0 0 1 243,185.5 L250,206.6094 L2187.5,206.6094 A2.5,2.5 0 0 1 2190,209.1094 L2190,846.5 A2.5,2.5 0 0 1 2187.5,849 L8.5,849 A2.5,2.5 0 0 1 6,846.5 L6,185.5 A2.5,2.5 0 0 1 8.5,183 " fill="none" style="stroke:#000000;stroke-width:1.5;"/><line style="stroke:#000000;stroke-width:1.5;" x1="6" x2="250" y1="206.6094" y2="206.6094"/><text fill="#000000" font-family="sans-serif" font-size="14" font-weight="bold" lengthAdjust="spacing" textLength="231" x="10" y="199.5332">nz.ac.vuw.ecs.swen225.gp22.app</text></g><!--MD5=[535aab4de90d4dfa371a9b40d5438fc3]
cluster javax.swing--><g id="cluster_javax.swing"><path d="M1529.5,6 L1612.5,6 A3.75,3.75 0 0 1 1615,8.5 L1622,29.6094 L2059.5,29.6094 A2.5,2.5 0 0 1 2062,32.1094 L2062,156.5 A2.5,2.5 0 0 1 2059.5,159 L1529.5,159 A2.5,2.5 0 0 1 1527,156.5 L1527,8.5 A2.5,2.5 0 0 1 1529.5,6 " fill="none" style="stroke:#000000;stroke-width:1.5;"/><line style="stroke:#000000;stroke-width:1.5;" x1="1527" x2="1622" y1="29.6094" y2="29.6094"/><text fill="#000000" font-family="sans-serif" font-size="14" font-weight="bold" lengthAdjust="spacing" textLength="82" x="1531" y="22.5332">javax.swing</text></g><!--MD5=[d63c23c2d4b14118d71bd46d55a646bd]
cluster java.awt.event--><g id="cluster_java.awt.event"><path d="M8.5,6 L111.5,6 A3.75,3.75 0 0 1 114,8.5 L121,29.6094 L247.5,29.6094 A2.5,2.5 0 0 1 250,32.1094 L250,156.5 A2.5,2.5 0 0 1 247.5,159 L8.5,159 A2.5,2.5 0 0 1 6,156.5 L6,8.5 A2.5,2.5 0 0 1 8.5,6 " fill="none" style="stroke:#000000;stroke-width:1.5;"/><line style="stroke:#000000;stroke-width:1.5;" x1="6" x2="121" y1="29.6094" y2="29.6094"/><text fill="#000000" font-family="sans-serif" font-size="14" font-weight="bold" lengthAdjust="spacing" textLength="102" x="10" y="22.5332">java.awt.event</text></g><!--MD5=[f14bf8ab4ef8ac7dbefd3667437267fe]
class nz.ac.vuw.ecs.swen225.gp22.app.ActionPanel--><a href="ActionPanel.html" target="_top" title="ActionPanel.html" xlink:actuate="onRequest" xlink:href="ActionPanel.html" xlink:show="new" xlink:title="ActionPanel.html" xlink:type="simple"><g id="elem_nz.ac.vuw.ecs.swen225.gp22.app.ActionPanel"><rect codeLine="3" fill="#F1F1F1" height="65.6094" id="nz.ac.vuw.ecs.swen225.gp22.app.ActionPanel" rx="2.5" ry="2.5" style="stroke:#181818;stroke-width:0.5;" width="209" x="269.5" y="298"/><ellipse cx="332.25" cy="314" fill="#ADD1B2" rx="11" ry="11" style="stroke:#181818;stroke-width:1.0;"/><path d="M335.0156,309.875 Q335.1719,309.6563 335.3594,309.5469 Q335.5469,309.4375 335.7656,309.4375 Q336.1406,309.4375 336.375,309.7031 Q336.6094,309.9531 336.6094,310.5625 L336.6094,312.0156 Q336.6094,312.625 336.375,312.8906 Q336.1406,313.1563 335.7656,313.1563 Q335.4219,313.1563 335.2188,312.9531 Q335.0156,312.7656 334.9063,312.25 Q334.8594,311.8906 334.6719,311.7031 Q334.3438,311.3281 333.7344,311.1094 Q333.125,310.8906 332.5,310.8906 Q331.7344,310.8906 331.0938,311.2188 Q330.4688,311.5469 329.9688,312.2969 Q329.4844,313.0469 329.4844,314.0781 L329.4844,315.1719 Q329.4844,316.4063 330.375,317.2344 Q331.2656,318.0469 332.8594,318.0469 Q333.7969,318.0469 334.4531,317.7969 Q334.8438,317.6406 335.2656,317.2031 Q335.5313,316.9375 335.6719,316.8594 Q335.8281,316.7813 336.0313,316.7813 Q336.3594,316.7813 336.6094,317.0469 Q336.875,317.2969 336.875,317.6406 Q336.875,317.9844 336.5313,318.3906 Q336.0313,318.9688 335.2344,319.2969 Q334.1563,319.75 332.8594,319.75 Q331.3438,319.75 330.1406,319.125 Q329.1563,318.625 328.4688,317.5625 Q327.7813,316.4844 327.7813,315.2031 L327.7813,314.0469 Q327.7813,312.7188 328.3906,311.5781 Q329.0156,310.4219 330.1094,309.8125 Q331.2031,309.1875 332.4375,309.1875 Q333.1719,309.1875 333.8125,309.3594 Q334.4688,309.5156 335.0156,309.875 Z " fill="#000000"/><text fill="#000000" font-family="sans-serif" font-size="14" lengthAdjust="spacing" textLength="75" x="352.75" y="319.7285">ActionPanel</text><line style="stroke:#181818;stroke-width:0.5;" x1="270.5" x2="477.5" y1="330" y2="330"/><line style="stroke:#181818;stroke-width:0.5;" x1="270.5" x2="477.5" y1="338" y2="338"/><polygon fill="#FFFF44" points="280.5,347.3047,284.5,351.3047,280.5,355.3047,276.5,351.3047" style="stroke:#B38D22;stroke-width:1.0;"/><text fill="#000000" font-family="sans-serif" font-size="14" lengthAdjust="spacing" textLength="183" x="289.5" y="356.5332">createButton(String): JButton</text></g></a><!--MD5=[eddf5876533f66e37afa5b3ab048c7b1]
class nz.ac.vuw.ecs.swen225.gp22.app.App--><a href="App.html" target="_top" title="App.html" xlink:actuate="onRequest" xlink:href="App.html" xlink:show="new" xlink:title="App.html" xlink:type="simple"><g id="elem_nz.ac.vuw.ecs.swen225.gp22.app.App"><rect codeLine="7" fill="#F1F1F1" height="329.75" id="nz.ac.vuw.ecs.swen225.gp22.app.App" rx="2.5" ry="2.5" style="stroke:#181818;stroke-width:0.5;" width="205" x="1621.5" y="503"/><ellipse cx="1707.25" cy="519" fill="#ADD1B2" rx="11" ry="11" style="stroke:#181818;stroke-width:1.0;"/><path d="M1710.0156,514.875 Q1710.1719,514.6563 1710.3594,514.5469 Q1710.5469,514.4375 1710.7656,514.4375 Q1711.1406,514.4375 1711.375,514.7031 Q1711.6094,514.9531 1711.6094,515.5625 L1711.6094,517.0156 Q1711.6094,517.625 1711.375,517.8906 Q1711.1406,518.1563 1710.7656,518.1563 Q1710.4219,518.1563 1710.2188,517.9531 Q1710.0156,517.7656 1709.9063,517.25 Q1709.8594,516.8906 1709.6719,516.7031 Q1709.3438,516.3281 1708.7344,516.1094 Q1708.125,515.8906 1707.5,515.8906 Q1706.7344,515.8906 1706.0938,516.2188 Q1705.4688,516.5469 1704.9688,517.2969 Q1704.4844,518.0469 1704.4844,519.0781 L1704.4844,520.1719 Q1704.4844,521.4063 1705.375,522.2344 Q1706.2656,523.0469 1707.8594,523.0469 Q1708.7969,523.0469 1709.4531,522.7969 Q1709.8438,522.6406 1710.2656,522.2031 Q1710.5313,521.9375 1710.6719,521.8594 Q1710.8281,521.7813 1711.0313,521.7813 Q1711.3594,521.7813 1711.6094,522.0469 Q1711.875,522.2969 1711.875,522.6406 Q1711.875,522.9844 1711.5313,523.3906 Q1711.0313,523.9688 1710.2344,524.2969 Q1709.1563,524.75 1707.8594,524.75 Q1706.3438,524.75 1705.1406,524.125 Q1704.1563,523.625 1703.4688,522.5625 Q1702.7813,521.4844 1702.7813,520.2031 L1702.7813,519.0469 Q1702.7813,517.7188 1703.3906,516.5781 Q1704.0156,515.4219 1705.1094,514.8125 Q1706.2031,514.1875 1707.4375,514.1875 Q1708.1719,514.1875 1708.8125,514.3594 Q1709.4688,514.5156 1710.0156,514.875 Z " fill="#000000"/><text fill="#000000" font-family="sans-serif" font-size="14" lengthAdjust="spacing" textLength="25" x="1727.75" y="524.7285">App</text><line style="stroke:#181818;stroke-width:0.5;" x1="1622.5" x2="1825.5" y1="535" y2="535"/><line style="stroke:#181818;stroke-width:0.5;" x1="1622.5" x2="1825.5" y1="543" y2="543"/><ellipse cx="1632.5" cy="557.3047" fill="#84BE84" rx="3" ry="3" style="stroke:#038048;stroke-width:1.0;"/><text fill="#000000" font-family="sans-serif" font-size="14" lengthAdjust="spacing" textLength="86" x="1641.5" y="561.5332">App(boolean)</text><ellipse cx="1632.5" cy="574.9141" fill="#84BE84" rx="3" ry="3" style="stroke:#038048;stroke-width:1.0;"/><text fill="#000000" font-family="sans-serif" font-size="14" lengthAdjust="spacing" textLength="121" x="1641.5" y="579.1426">toMainMenu(): void</text><ellipse cx="1632.5" cy="592.5234" fill="#84BE84" rx="3" ry="3" style="stroke:#038048;stroke-width:1.0;"/><text fill="#000000" font-family="sans-serif" font-size="14" lengthAdjust="spacing" textLength="134" x="1641.5" y="596.752">move(Direction): void</text><ellipse cx="1632.5" cy="610.1328" fill="#84BE84" rx="3" ry="3" style="stroke:#038048;stroke-width:1.0;"/><text fill="#000000" font-family="sans-serif" font-size="14" lengthAdjust="spacing" textLength="83" x="1641.5" y="614.3613">pause(): void</text><ellipse cx="1632.5" cy="627.7422" fill="#84BE84" rx="3" ry="3" style="stroke:#038048;stroke-width:1.0;"/><text fill="#000000" font-family="sans-serif" font-size="14" lengthAdjust="spacing" textLength="99" x="1641.5" y="631.9707">unpause(): void</text><ellipse cx="1632.5" cy="645.3516" fill="#84BE84" rx="3" ry="3" style="stroke:#038048;stroke-width:1.0;"/><text fill="#000000" font-family="sans-serif" font-size="14" lengthAdjust="spacing" textLength="123" x="1641.5" y="649.5801">togglePause(): void</text><ellipse cx="1632.5" cy="662.9609" fill="#84BE84" rx="3" ry="3" style="stroke:#038048;stroke-width:1.0;"/><text fill="#000000" font-family="sans-serif" font-size="14" lengthAdjust="spacing" textLength="74" x="1641.5" y="667.1895">save(): void</text><ellipse cx="1632.5" cy="680.5703" fill="#84BE84" rx="3" ry="3" style="stroke:#038048;stroke-width:1.0;"/><text fill="#000000" font-family="sans-serif" font-size="14" lengthAdjust="spacing" textLength="65" x="1641.5" y="684.7988">exit(): void</text><ellipse cx="1632.5" cy="698.1797" fill="#84BE84" rx="3" ry="3" style="stroke:#038048;stroke-width:1.0;"/><text fill="#000000" font-family="sans-serif" font-size="14" lengthAdjust="spacing" textLength="179" x="1641.5" y="702.4082">getGameAndResume(): void</text><ellipse cx="1632.5" cy="715.7891" fill="#84BE84" rx="3" ry="3" style="stroke:#038048;stroke-width:1.0;"/><text fill="#000000" font-family="sans-serif" font-size="14" lengthAdjust="spacing" textLength="121" x="1641.5" y="720.0176">startLevel(int): void</text><ellipse cx="1632.5" cy="733.3984" fill="#84BE84" rx="3" ry="3" style="stroke:#038048;stroke-width:1.0;"/><text fill="#000000" font-family="sans-serif" font-size="14" lengthAdjust="spacing" textLength="143" x="1641.5" y="737.627">startLevel(String): void</text><ellipse cx="1632.5" cy="751.0078" fill="#84BE84" rx="3" ry="3" style="stroke:#038048;stroke-width:1.0;"/><text fill="#000000" font-family="sans-serif" font-size="14" lengthAdjust="spacing" textLength="132" x="1641.5" y="755.2363">replayLevel(int): void</text><ellipse cx="1632.5" cy="768.6172" fill="#84BE84" rx="3" ry="3" style="stroke:#038048;stroke-width:1.0;"/><text fill="#000000" font-family="sans-serif" font-size="14" lengthAdjust="spacing" textLength="115" x="1641.5" y="772.8457">stepReplay(): void</text><ellipse cx="1632.5" cy="786.2266" fill="#84BE84" rx="3" ry="3" style="stroke:#038048;stroke-width:1.0;"/><text fill="#000000" font-family="sans-serif" font-size="14" lengthAdjust="spacing" textLength="148" x="1641.5" y="790.4551">setReplaySpeed(): void</text><ellipse cx="1632.5" cy="803.8359" fill="#84BE84" rx="3" ry="3" style="stroke:#038048;stroke-width:1.0;"/><text fill="#000000" font-family="sans-serif" font-size="14" lengthAdjust="spacing" textLength="154" x="1641.5" y="808.0645">showPopup(String): void</text><ellipse cx="1632.5" cy="821.4453" fill="#84BE84" rx="3" ry="3" style="stroke:#038048;stroke-width:1.0;"/><text fill="#000000" font-family="sans-serif" font-size="14" lengthAdjust="spacing" textLength="90" x="1641.5" y="825.6738">clear(int): void</text></g></a><!--MD5=[b4302d897fc3ecd3f3e217a1fbd4b487]
class nz.ac.vuw.ecs.swen225.gp22.app.GameCanvas--><a href="GameCanvas.html" target="_top" title="GameCanvas.html" xlink:actuate="onRequest" xlink:href="GameCanvas.html" xlink:show="new" xlink:title="GameCanvas.html" xlink:type="simple"><g id="elem_nz.ac.vuw.ecs.swen225.gp22.app.GameCanvas"><rect codeLine="26" fill="#F1F1F1" height="100.8281" id="nz.ac.vuw.ecs.swen225.gp22.app.GameCanvas" rx="2.5" ry="2.5" style="stroke:#181818;stroke-width:0.5;" width="231" x="867.5" y="280.5"/><ellipse cx="935.75" cy="296.5" fill="#ADD1B2" rx="11" ry="11" style="stroke:#181818;stroke-width:1.0;"/><path d="M938.5156,292.375 Q938.6719,292.1563 938.8594,292.0469 Q939.0469,291.9375 939.2656,291.9375 Q939.6406,291.9375 939.875,292.2031 Q940.1094,292.4531 940.1094,293.0625 L940.1094,294.5156 Q940.1094,295.125 939.875,295.3906 Q939.6406,295.6563 939.2656,295.6563 Q938.9219,295.6563 938.7188,295.4531 Q938.5156,295.2656 938.4063,294.75 Q938.3594,294.3906 938.1719,294.2031 Q937.8438,293.8281 937.2344,293.6094 Q936.625,293.3906 936,293.3906 Q935.2344,293.3906 934.5938,293.7188 Q933.9688,294.0469 933.4688,294.7969 Q932.9844,295.5469 932.9844,296.5781 L932.9844,297.6719 Q932.9844,298.9063 933.875,299.7344 Q934.7656,300.5469 936.3594,300.5469 Q937.2969,300.5469 937.9531,300.2969 Q938.3438,300.1406 938.7656,299.7031 Q939.0313,299.4375 939.1719,299.3594 Q939.3281,299.2813 939.5313,299.2813 Q939.8594,299.2813 940.1094,299.5469 Q940.375,299.7969 940.375,300.1406 Q940.375,300.4844 940.0313,300.8906 Q939.5313,301.4688 938.7344,301.7969 Q937.6563,302.25 936.3594,302.25 Q934.8438,302.25 933.6406,301.625 Q932.6563,301.125 931.9688,300.0625 Q931.2813,298.9844 931.2813,297.7031 L931.2813,296.5469 Q931.2813,295.2188 931.8906,294.0781 Q932.5156,292.9219 933.6094,292.3125 Q934.7031,291.6875 935.9375,291.6875 Q936.6719,291.6875 937.3125,291.8594 Q937.9688,292.0156 938.5156,292.375 Z " fill="#000000"/><text fill="#000000" font-family="sans-serif" font-size="14" lengthAdjust="spacing" textLength="86" x="956.25" y="302.2285">GameCanvas</text><line style="stroke:#181818;stroke-width:0.5;" x1="868.5" x2="1097.5" y1="312.5" y2="312.5"/><ellipse cx="878.5" cy="326.8047" fill="none" rx="3" ry="3" style="stroke:#038048;stroke-width:1.0;"/><text fill="#000000" font-family="sans-serif" font-size="14" lengthAdjust="spacing" textLength="74" x="887.5" y="331.0332">maze: Maze</text><line style="stroke:#181818;stroke-width:0.5;" x1="868.5" x2="1097.5" y1="338.1094" y2="338.1094"/><ellipse cx="878.5" cy="352.4141" fill="#84BE84" rx="3" ry="3" style="stroke:#038048;stroke-width:1.0;"/><text fill="#000000" font-family="sans-serif" font-size="14" lengthAdjust="spacing" textLength="121" x="887.5" y="356.6426">update(Maze): void</text><ellipse cx="878.5" cy="370.0234" fill="#84BE84" rx="3" ry="3" style="stroke:#038048;stroke-width:1.0;"/><text fill="#000000" font-family="sans-serif" font-size="14" lengthAdjust="spacing" textLength="205" x="887.5" y="374.252">paintComponent(Graphics): void</text></g></a><!--MD5=[14c5d4fe363245769437778b9f84bd21]
class nz.ac.vuw.ecs.swen225.gp22.app.GamePanel--><a href="GamePanel.html" target="_top" title="GamePanel.html" xlink:actuate="onRequest" xlink:href="GamePanel.html" xlink:show="new" xlink:title="GamePanel.html" xlink:type="simple"><g id="elem_nz.ac.vuw.ecs.swen225.gp22.app.GamePanel"><rect codeLine="32" fill="#F1F1F1" height="224.0938" id="nz.ac.vuw.ecs.swen225.gp22.app.GamePanel" rx="2.5" ry="2.5" style="stroke:#181818;stroke-width:0.5;" width="319" x="513.5" y="219"/><ellipse cx="631.75" cy="235" fill="#ADD1B2" rx="11" ry="11" style="stroke:#181818;stroke-width:1.0;"/><path d="M634.5156,230.875 Q634.6719,230.6563 634.8594,230.5469 Q635.0469,230.4375 635.2656,230.4375 Q635.6406,230.4375 635.875,230.7031 Q636.1094,230.9531 636.1094,231.5625 L636.1094,233.0156 Q636.1094,233.625 635.875,233.8906 Q635.6406,234.1563 635.2656,234.1563 Q634.9219,234.1563 634.7188,233.9531 Q634.5156,233.7656 634.4063,233.25 Q634.3594,232.8906 634.1719,232.7031 Q633.8438,232.3281 633.2344,232.1094 Q632.625,231.8906 632,231.8906 Q631.2344,231.8906 630.5938,232.2188 Q629.9688,232.5469 629.4688,233.2969 Q628.9844,234.0469 628.9844,235.0781 L628.9844,236.1719 Q628.9844,237.4063 629.875,238.2344 Q630.7656,239.0469 632.3594,239.0469 Q633.2969,239.0469 633.9531,238.7969 Q634.3438,238.6406 634.7656,238.2031 Q635.0313,237.9375 635.1719,237.8594 Q635.3281,237.7813 635.5313,237.7813 Q635.8594,237.7813 636.1094,238.0469 Q636.375,238.2969 636.375,238.6406 Q636.375,238.9844 636.0313,239.3906 Q635.5313,239.9688 634.7344,240.2969 Q633.6563,240.75 632.3594,240.75 Q630.8438,240.75 629.6406,240.125 Q628.6563,239.625 627.9688,238.5625 Q627.2813,237.4844 627.2813,236.2031 L627.2813,235.0469 Q627.2813,233.7188 627.8906,232.5781 Q628.5156,231.4219 629.6094,230.8125 Q630.7031,230.1875 631.9375,230.1875 Q632.6719,230.1875 633.3125,230.3594 Q633.9688,230.5156 634.5156,230.875 Z " fill="#000000"/><text fill="#000000" font-family="sans-serif" font-size="14" lengthAdjust="spacing" textLength="74" x="652.25" y="240.7285">GamePanel</text><line style="stroke:#181818;stroke-width:0.5;" x1="514.5" x2="831.5" y1="251" y2="251"/><ellipse cx="524.5" cy="265.3047" fill="none" rx="3" ry="3" style="stroke:#038048;stroke-width:1.0;"/><text fill="#000000" font-family="sans-serif" font-size="14" lengthAdjust="spacing" textLength="74" x="533.5" y="269.5332">maze: Maze</text><ellipse cx="524.5" cy="282.9141" fill="none" rx="3" ry="3" style="stroke:#038048;stroke-width:1.0;"/><text fill="#000000" font-family="sans-serif" font-size="14" lengthAdjust="spacing" textLength="121" x="533.5" y="287.1426">recorder: Recorder</text><line style="stroke:#181818;stroke-width:0.5;" x1="514.5" x2="831.5" y1="294.2188" y2="294.2188"/><ellipse cx="524.5" cy="308.5234" fill="#84BE84" rx="3" ry="3" style="stroke:#038048;stroke-width:1.0;"/><text fill="#000000" font-family="sans-serif" font-size="14" lengthAdjust="spacing" textLength="293" x="533.5" y="312.752">GamePanel(Maze, Recorder, JPanel, boolean)</text><ellipse cx="524.5" cy="326.1328" fill="#84BE84" rx="3" ry="3" style="stroke:#038048;stroke-width:1.0;"/><text fill="#000000" font-family="sans-serif" font-size="14" lengthAdjust="spacing" textLength="121" x="533.5" y="330.3613">startLevel(int): void</text><ellipse cx="524.5" cy="343.7422" fill="#84BE84" rx="3" ry="3" style="stroke:#038048;stroke-width:1.0;"/><text fill="#000000" font-family="sans-serif" font-size="14" lengthAdjust="spacing" textLength="127" x="533.5" y="347.9707">isPaused(): boolean</text><ellipse cx="524.5" cy="361.3516" fill="#84BE84" rx="3" ry="3" style="stroke:#038048;stroke-width:1.0;"/><text fill="#000000" font-family="sans-serif" font-size="14" lengthAdjust="spacing" textLength="154" x="533.5" y="365.5801">setPause(boolean): void</text><ellipse cx="524.5" cy="378.9609" fill="#84BE84" rx="3" ry="3" style="stroke:#038048;stroke-width:1.0;"/><text fill="#000000" font-family="sans-serif" font-size="14" lengthAdjust="spacing" textLength="147" x="533.5" y="383.1895">setSpeed(double): void</text><ellipse cx="524.5" cy="396.5703" fill="#84BE84" rx="3" ry="3" style="stroke:#038048;stroke-width:1.0;"/><text fill="#000000" font-family="sans-serif" font-size="14" lengthAdjust="spacing" textLength="104" x="533.5" y="400.7988">setTick(int): void</text><ellipse cx="524.5" cy="414.1797" fill="#84BE84" rx="3" ry="3" style="stroke:#038048;stroke-width:1.0;"/><text fill="#000000" font-family="sans-serif" font-size="14" lengthAdjust="spacing" textLength="79" x="533.5" y="418.4082">getTick(): int</text><polygon fill="#FFFF44" points="524.5,426.7891,528.5,430.7891,524.5,434.7891,520.5,430.7891" style="stroke:#B38D22;stroke-width:1.0;"/><text fill="#000000" font-family="sans-serif" font-size="14" lengthAdjust="spacing" textLength="205" x="533.5" y="436.0176">paintComponent(Graphics): void</text></g></a><!--MD5=[c0e439df5a386820d2c256d9c0f85091]
class nz.ac.vuw.ecs.swen225.gp22.app.KeyController--><a href="KeyController.html" target="_top" title="KeyController.html" xlink:actuate="onRequest" xlink:href="KeyController.html" xlink:show="new" xlink:title="KeyController.html" xlink:type="simple"><g id="elem_nz.ac.vuw.ecs.swen225.gp22.app.KeyController"><rect codeLine="45" fill="#F1F1F1" height="153.6563" id="nz.ac.vuw.ecs.swen225.gp22.app.KeyController" rx="2.5" ry="2.5" style="stroke:#181818;stroke-width:0.5;" width="212" x="22" y="254"/><ellipse cx="80.75" cy="270" fill="#ADD1B2" rx="11" ry="11" style="stroke:#181818;stroke-width:1.0;"/><path d="M83.5156,265.875 Q83.6719,265.6563 83.8594,265.5469 Q84.0469,265.4375 84.2656,265.4375 Q84.6406,265.4375 84.875,265.7031 Q85.1094,265.9531 85.1094,266.5625 L85.1094,268.0156 Q85.1094,268.625 84.875,268.8906 Q84.6406,269.1563 84.2656,269.1563 Q83.9219,269.1563 83.7188,268.9531 Q83.5156,268.7656 83.4063,268.25 Q83.3594,267.8906 83.1719,267.7031 Q82.8438,267.3281 82.2344,267.1094 Q81.625,266.8906 81,266.8906 Q80.2344,266.8906 79.5938,267.2188 Q78.9688,267.5469 78.4688,268.2969 Q77.9844,269.0469 77.9844,270.0781 L77.9844,271.1719 Q77.9844,272.4063 78.875,273.2344 Q79.7656,274.0469 81.3594,274.0469 Q82.2969,274.0469 82.9531,273.7969 Q83.3438,273.6406 83.7656,273.2031 Q84.0313,272.9375 84.1719,272.8594 Q84.3281,272.7813 84.5313,272.7813 Q84.8594,272.7813 85.1094,273.0469 Q85.375,273.2969 85.375,273.6406 Q85.375,273.9844 85.0313,274.3906 Q84.5313,274.9688 83.7344,275.2969 Q82.6563,275.75 81.3594,275.75 Q79.8438,275.75 78.6406,275.125 Q77.6563,274.625 76.9688,273.5625 Q76.2813,272.4844 76.2813,271.2031 L76.2813,270.0469 Q76.2813,268.7188 76.8906,267.5781 Q77.5156,266.4219 78.6094,265.8125 Q79.7031,265.1875 80.9375,265.1875 Q81.6719,265.1875 82.3125,265.3594 Q82.9688,265.5156 83.5156,265.875 Z " fill="#000000"/><text fill="#000000" font-family="sans-serif" font-size="14" lengthAdjust="spacing" textLength="86" x="101.25" y="275.7285">KeyController</text><line style="stroke:#181818;stroke-width:0.5;" x1="23" x2="233" y1="286" y2="286"/><ellipse cx="33" cy="300.3047" fill="none" rx="3" ry="3" style="stroke:#038048;stroke-width:1.0;"/><text fill="#000000" font-family="sans-serif" font-size="14" lengthAdjust="spacing" textLength="121" x="42" y="304.5332">recorder: Recorder</text><line style="stroke:#181818;stroke-width:0.5;" x1="23" x2="233" y1="311.6094" y2="311.6094"/><ellipse cx="33" cy="325.9141" fill="#84BE84" rx="3" ry="3" style="stroke:#038048;stroke-width:1.0;"/><text fill="#000000" font-family="sans-serif" font-size="14" lengthAdjust="spacing" textLength="181" x="42" y="330.1426">setRecorder(Recorder): void</text><ellipse cx="33" cy="343.5234" fill="#84BE84" rx="3" ry="3" style="stroke:#038048;stroke-width:1.0;"/><text fill="#000000" font-family="sans-serif" font-size="14" lengthAdjust="spacing" textLength="147" x="42" y="347.752">handle(KeyEvent): void</text><ellipse cx="33" cy="361.1328" fill="#84BE84" rx="3" ry="3" style="stroke:#038048;stroke-width:1.0;"/><text fill="#000000" font-family="sans-serif" font-size="14" lengthAdjust="spacing" textLength="178" x="42" y="365.3613">keyPressed(KeyEvent): void</text><ellipse cx="33" cy="378.7422" fill="#84BE84" rx="3" ry="3" style="stroke:#038048;stroke-width:1.0;"/><text fill="#000000" font-family="sans-serif" font-size="14" lengthAdjust="spacing" textLength="186" x="42" y="382.9707">keyReleased(KeyEvent): void</text><ellipse cx="33" cy="396.3516" fill="#84BE84" rx="3" ry="3" style="stroke:#038048;stroke-width:1.0;"/><text fill="#000000" font-family="sans-serif" font-size="14" lengthAdjust="spacing" textLength="166" x="42" y="400.5801">keyTyped(KeyEvent): void</text></g></a><!--MD5=[977d3d20510a40db2430d6193efd3856]
class nz.ac.vuw.ecs.swen225.gp22.app.Main--><a href="Main.html" target="_top" title="Main.html" xlink:actuate="onRequest" xlink:href="Main.html" xlink:show="new" xlink:title="Main.html" xlink:type="simple"><g id="elem_nz.ac.vuw.ecs.swen225.gp22.app.Main"><rect codeLine="54" fill="#F1F1F1" height="65.6094" id="nz.ac.vuw.ecs.swen225.gp22.app.Main" rx="2.5" ry="2.5" style="stroke:#181818;stroke-width:0.5;" width="145" x="1133.5" y="298"/><ellipse cx="1186.75" cy="314" fill="#ADD1B2" rx="11" ry="11" style="stroke:#181818;stroke-width:1.0;"/><path d="M1189.5156,309.875 Q1189.6719,309.6563 1189.8594,309.5469 Q1190.0469,309.4375 1190.2656,309.4375 Q1190.6406,309.4375 1190.875,309.7031 Q1191.1094,309.9531 1191.1094,310.5625 L1191.1094,312.0156 Q1191.1094,312.625 1190.875,312.8906 Q1190.6406,313.1563 1190.2656,313.1563 Q1189.9219,313.1563 1189.7188,312.9531 Q1189.5156,312.7656 1189.4063,312.25 Q1189.3594,311.8906 1189.1719,311.7031 Q1188.8438,311.3281 1188.2344,311.1094 Q1187.625,310.8906 1187,310.8906 Q1186.2344,310.8906 1185.5938,311.2188 Q1184.9688,311.5469 1184.4688,312.2969 Q1183.9844,313.0469 1183.9844,314.0781 L1183.9844,315.1719 Q1183.9844,316.4063 1184.875,317.2344 Q1185.7656,318.0469 1187.3594,318.0469 Q1188.2969,318.0469 1188.9531,317.7969 Q1189.3438,317.6406 1189.7656,317.2031 Q1190.0313,316.9375 1190.1719,316.8594 Q1190.3281,316.7813 1190.5313,316.7813 Q1190.8594,316.7813 1191.1094,317.0469 Q1191.375,317.2969 1191.375,317.6406 Q1191.375,317.9844 1191.0313,318.3906 Q1190.5313,318.9688 1189.7344,319.2969 Q1188.6563,319.75 1187.3594,319.75 Q1185.8438,319.75 1184.6406,319.125 Q1183.6563,318.625 1182.9688,317.5625 Q1182.2813,316.4844 1182.2813,315.2031 L1182.2813,314.0469 Q1182.2813,312.7188 1182.8906,311.5781 Q1183.5156,310.4219 1184.6094,309.8125 Q1185.7031,309.1875 1186.9375,309.1875 Q1187.6719,309.1875 1188.3125,309.3594 Q1188.9688,309.5156 1189.5156,309.875 Z " fill="#000000"/><text fill="#000000" font-family="sans-serif" font-size="14" lengthAdjust="spacing" textLength="30" x="1207.25" y="319.7285">Main</text><line style="stroke:#181818;stroke-width:0.5;" x1="1134.5" x2="1277.5" y1="330" y2="330"/><line style="stroke:#181818;stroke-width:0.5;" x1="1134.5" x2="1277.5" y1="338" y2="338"/><ellipse cx="1144.5" cy="352.3047" fill="#84BE84" rx="3" ry="3" style="stroke:#038048;stroke-width:1.0;"/><text fill="#000000" font-family="sans-serif" font-size="14" lengthAdjust="spacing" text-decoration="underline" textLength="119" x="1153.5" y="356.5332">main(String[]): void</text></g></a><!--MD5=[3f3d1e129df0f800c698d42a4c040824]
class nz.ac.vuw.ecs.swen225.gp22.app.MenuBar--><a href="MenuBar.html" target="_top" title="MenuBar.html" xlink:actuate="onRequest" xlink:href="MenuBar.html" xlink:show="new" xlink:title="MenuBar.html" xlink:type="simple"><g id="elem_nz.ac.vuw.ecs.swen225.gp22.app.MenuBar"><rect codeLine="58" fill="#F1F1F1" height="65.6094" id="nz.ac.vuw.ecs.swen225.gp22.app.MenuBar" rx="2.5" ry="2.5" style="stroke:#181818;stroke-width:0.5;" width="188" x="1986" y="298"/><ellipse cx="2047.25" cy="314" fill="#ADD1B2" rx="11" ry="11" style="stroke:#181818;stroke-width:1.0;"/><path d="M2050.0156,309.875 Q2050.1719,309.6563 2050.3594,309.5469 Q2050.5469,309.4375 2050.7656,309.4375 Q2051.1406,309.4375 2051.375,309.7031 Q2051.6094,309.9531 2051.6094,310.5625 L2051.6094,312.0156 Q2051.6094,312.625 2051.375,312.8906 Q2051.1406,313.1563 2050.7656,313.1563 Q2050.4219,313.1563 2050.2188,312.9531 Q2050.0156,312.7656 2049.9063,312.25 Q2049.8594,311.8906 2049.6719,311.7031 Q2049.3438,311.3281 2048.7344,311.1094 Q2048.125,310.8906 2047.5,310.8906 Q2046.7344,310.8906 2046.0938,311.2188 Q2045.4688,311.5469 2044.9688,312.2969 Q2044.4844,313.0469 2044.4844,314.0781 L2044.4844,315.1719 Q2044.4844,316.4063 2045.375,317.2344 Q2046.2656,318.0469 2047.8594,318.0469 Q2048.7969,318.0469 2049.4531,317.7969 Q2049.8438,317.6406 2050.2656,317.2031 Q2050.5313,316.9375 2050.6719,316.8594 Q2050.8281,316.7813 2051.0313,316.7813 Q2051.3594,316.7813 2051.6094,317.0469 Q2051.875,317.2969 2051.875,317.6406 Q2051.875,317.9844 2051.5313,318.3906 Q2051.0313,318.9688 2050.2344,319.2969 Q2049.1563,319.75 2047.8594,319.75 Q2046.3438,319.75 2045.1406,319.125 Q2044.1563,318.625 2043.4688,317.5625 Q2042.7813,316.4844 2042.7813,315.2031 L2042.7813,314.0469 Q2042.7813,312.7188 2043.3906,311.5781 Q2044.0156,310.4219 2045.1094,309.8125 Q2046.2031,309.1875 2047.4375,309.1875 Q2048.1719,309.1875 2048.8125,309.3594 Q2049.4688,309.5156 2050.0156,309.875 Z " fill="#000000"/><text fill="#000000" font-family="sans-serif" font-size="14" lengthAdjust="spacing" textLength="57" x="2067.75" y="319.7285">MenuBar</text><line style="stroke:#181818;stroke-width:0.5;" x1="1987" x2="2173" y1="330" y2="330"/><line style="stroke:#181818;stroke-width:0.5;" x1="1987" x2="2173" y1="338" y2="338"/><ellipse cx="1997" cy="352.3047" fill="#84BE84" rx="3" ry="3" style="stroke:#038048;stroke-width:1.0;"/><text fill="#000000" font-family="sans-serif" font-size="14" lengthAdjust="spacing" textLength="162" x="2006" y="356.5332">MenuBar(WindowActions)</text></g></a><!--MD5=[d53b6f4b918f9b0016d10d02f1965a2a]
class nz.ac.vuw.ecs.swen225.gp22.app.PlayingButtons--><a href="PlayingButtons.html" target="_top" title="PlayingButtons.html" xlink:actuate="onRequest" xlink:href="PlayingButtons.html" xlink:show="new" xlink:title="PlayingButtons.html" xlink:type="simple"><g id="elem_nz.ac.vuw.ecs.swen225.gp22.app.PlayingButtons"><rect codeLine="62" fill="#F1F1F1" height="65.6094" id="nz.ac.vuw.ecs.swen225.gp22.app.PlayingButtons" rx="2.5" ry="2.5" style="stroke:#181818;stroke-width:0.5;" width="225" x="415.5" y="635"/><ellipse cx="476.75" cy="651" fill="#ADD1B2" rx="11" ry="11" style="stroke:#181818;stroke-width:1.0;"/><path d="M479.5156,646.875 Q479.6719,646.6563 479.8594,646.5469 Q480.0469,646.4375 480.2656,646.4375 Q480.6406,646.4375 480.875,646.7031 Q481.1094,646.9531 481.1094,647.5625 L481.1094,649.0156 Q481.1094,649.625 480.875,649.8906 Q480.6406,650.1563 480.2656,650.1563 Q479.9219,650.1563 479.7188,649.9531 Q479.5156,649.7656 479.4063,649.25 Q479.3594,648.8906 479.1719,648.7031 Q478.8438,648.3281 478.2344,648.1094 Q477.625,647.8906 477,647.8906 Q476.2344,647.8906 475.5938,648.2188 Q474.9688,648.5469 474.4688,649.2969 Q473.9844,650.0469 473.9844,651.0781 L473.9844,652.1719 Q473.9844,653.4063 474.875,654.2344 Q475.7656,655.0469 477.3594,655.0469 Q478.2969,655.0469 478.9531,654.7969 Q479.3438,654.6406 479.7656,654.2031 Q480.0313,653.9375 480.1719,653.8594 Q480.3281,653.7813 480.5313,653.7813 Q480.8594,653.7813 481.1094,654.0469 Q481.375,654.2969 481.375,654.6406 Q481.375,654.9844 481.0313,655.3906 Q480.5313,655.9688 479.7344,656.2969 Q478.6563,656.75 477.3594,656.75 Q475.8438,656.75 474.6406,656.125 Q473.6563,655.625 472.9688,654.5625 Q472.2813,653.4844 472.2813,652.2031 L472.2813,651.0469 Q472.2813,649.7188 472.8906,648.5781 Q473.5156,647.4219 474.6094,646.8125 Q475.7031,646.1875 476.9375,646.1875 Q477.6719,646.1875 478.3125,646.3594 Q478.9688,646.5156 479.5156,646.875 Z " fill="#000000"/><text fill="#000000" font-family="sans-serif" font-size="14" lengthAdjust="spacing" textLength="94" x="497.25" y="656.7285">PlayingButtons</text><line style="stroke:#181818;stroke-width:0.5;" x1="416.5" x2="639.5" y1="667" y2="667"/><line style="stroke:#181818;stroke-width:0.5;" x1="416.5" x2="639.5" y1="675" y2="675"/><ellipse cx="426.5" cy="689.3047" fill="#84BE84" rx="3" ry="3" style="stroke:#038048;stroke-width:1.0;"/><text fill="#000000" font-family="sans-serif" font-size="14" lengthAdjust="spacing" textLength="199" x="435.5" y="693.5332">PlayingButtons(WindowActions)</text></g></a><!--MD5=[7cbbbc72c0c7ccca3345032c83aa06ba]
class nz.ac.vuw.ecs.swen225.gp22.app.ReplayingButtons--><a href="ReplayingButtons.html" target="_top" title="ReplayingButtons.html" xlink:actuate="onRequest" xlink:href="ReplayingButtons.html" xlink:show="new" xlink:title="ReplayingButtons.html" xlink:type="simple"><g id="elem_nz.ac.vuw.ecs.swen225.gp22.app.ReplayingButtons"><rect codeLine="66" fill="#F1F1F1" height="65.6094" id="nz.ac.vuw.ecs.swen225.gp22.app.ReplayingButtons" rx="2.5" ry="2.5" style="stroke:#181818;stroke-width:0.5;" width="242" x="138" y="635"/><ellipse cx="199.25" cy="651" fill="#ADD1B2" rx="11" ry="11" style="stroke:#181818;stroke-width:1.0;"/><path d="M202.0156,646.875 Q202.1719,646.6563 202.3594,646.5469 Q202.5469,646.4375 202.7656,646.4375 Q203.1406,646.4375 203.375,646.7031 Q203.6094,646.9531 203.6094,647.5625 L203.6094,649.0156 Q203.6094,649.625 203.375,649.8906 Q203.1406,650.1563 202.7656,650.1563 Q202.4219,650.1563 202.2188,649.9531 Q202.0156,649.7656 201.9063,649.25 Q201.8594,648.8906 201.6719,648.7031 Q201.3438,648.3281 200.7344,648.1094 Q200.125,647.8906 199.5,647.8906 Q198.7344,647.8906 198.0938,648.2188 Q197.4688,648.5469 196.9688,649.2969 Q196.4844,650.0469 196.4844,651.0781 L196.4844,652.1719 Q196.4844,653.4063 197.375,654.2344 Q198.2656,655.0469 199.8594,655.0469 Q200.7969,655.0469 201.4531,654.7969 Q201.8438,654.6406 202.2656,654.2031 Q202.5313,653.9375 202.6719,653.8594 Q202.8281,653.7813 203.0313,653.7813 Q203.3594,653.7813 203.6094,654.0469 Q203.875,654.2969 203.875,654.6406 Q203.875,654.9844 203.5313,655.3906 Q203.0313,655.9688 202.2344,656.2969 Q201.1563,656.75 199.8594,656.75 Q198.3438,656.75 197.1406,656.125 Q196.1563,655.625 195.4688,654.5625 Q194.7813,653.4844 194.7813,652.2031 L194.7813,651.0469 Q194.7813,649.7188 195.3906,648.5781 Q196.0156,647.4219 197.1094,646.8125 Q198.2031,646.1875 199.4375,646.1875 Q200.1719,646.1875 200.8125,646.3594 Q201.4688,646.5156 202.0156,646.875 Z " fill="#000000"/><text fill="#000000" font-family="sans-serif" font-size="14" lengthAdjust="spacing" textLength="111" x="219.75" y="656.7285">ReplayingButtons</text><line style="stroke:#181818;stroke-width:0.5;" x1="139" x2="379" y1="667" y2="667"/><line style="stroke:#181818;stroke-width:0.5;" x1="139" x2="379" y1="675" y2="675"/><ellipse cx="149" cy="689.3047" fill="#84BE84" rx="3" ry="3" style="stroke:#038048;stroke-width:1.0;"/><text fill="#000000" font-family="sans-serif" font-size="14" lengthAdjust="spacing" textLength="216" x="158" y="693.5332">ReplayingButtons(WindowActions)</text></g></a><!--MD5=[087bf4767665b3667405af5aac1826ea]
class nz.ac.vuw.ecs.swen225.gp22.app.StartPanel--><a href="StartPanel.html" target="_top" title="StartPanel.html" xlink:actuate="onRequest" xlink:href="StartPanel.html" xlink:show="new" xlink:title="StartPanel.html" xlink:type="simple"><g id="elem_nz.ac.vuw.ecs.swen225.gp22.app.StartPanel"><rect codeLine="70" fill="#F1F1F1" height="83.2188" id="nz.ac.vuw.ecs.swen225.gp22.app.StartPanel" rx="2.5" ry="2.5" style="stroke:#181818;stroke-width:0.5;" width="231" x="1719.5" y="289.5"/><ellipse cx="1797.75" cy="305.5" fill="#ADD1B2" rx="11" ry="11" style="stroke:#181818;stroke-width:1.0;"/><path d="M1800.5156,301.375 Q1800.6719,301.1563 1800.8594,301.0469 Q1801.0469,300.9375 1801.2656,300.9375 Q1801.6406,300.9375 1801.875,301.2031 Q1802.1094,301.4531 1802.1094,302.0625 L1802.1094,303.5156 Q1802.1094,304.125 1801.875,304.3906 Q1801.6406,304.6563 1801.2656,304.6563 Q1800.9219,304.6563 1800.7188,304.4531 Q1800.5156,304.2656 1800.4063,303.75 Q1800.3594,303.3906 1800.1719,303.2031 Q1799.8438,302.8281 1799.2344,302.6094 Q1798.625,302.3906 1798,302.3906 Q1797.2344,302.3906 1796.5938,302.7188 Q1795.9688,303.0469 1795.4688,303.7969 Q1794.9844,304.5469 1794.9844,305.5781 L1794.9844,306.6719 Q1794.9844,307.9063 1795.875,308.7344 Q1796.7656,309.5469 1798.3594,309.5469 Q1799.2969,309.5469 1799.9531,309.2969 Q1800.3438,309.1406 1800.7656,308.7031 Q1801.0313,308.4375 1801.1719,308.3594 Q1801.3281,308.2813 1801.5313,308.2813 Q1801.8594,308.2813 1802.1094,308.5469 Q1802.375,308.7969 1802.375,309.1406 Q1802.375,309.4844 1802.0313,309.8906 Q1801.5313,310.4688 1800.7344,310.7969 Q1799.6563,311.25 1798.3594,311.25 Q1796.8438,311.25 1795.6406,310.625 Q1794.6563,310.125 1793.9688,309.0625 Q1793.2813,307.9844 1793.2813,306.7031 L1793.2813,305.5469 Q1793.2813,304.2188 1793.8906,303.0781 Q1794.5156,301.9219 1795.6094,301.3125 Q1796.7031,300.6875 1797.9375,300.6875 Q1798.6719,300.6875 1799.3125,300.8594 Q1799.9688,301.0156 1800.5156,301.375 Z " fill="#000000"/><text fill="#000000" font-family="sans-serif" font-size="14" lengthAdjust="spacing" textLength="66" x="1818.25" y="311.2285">StartPanel</text><line style="stroke:#181818;stroke-width:0.5;" x1="1720.5" x2="1949.5" y1="321.5" y2="321.5"/><line style="stroke:#181818;stroke-width:0.5;" x1="1720.5" x2="1949.5" y1="329.5" y2="329.5"/><ellipse cx="1730.5" cy="343.8047" fill="#84BE84" rx="3" ry="3" style="stroke:#038048;stroke-width:1.0;"/><text fill="#000000" font-family="sans-serif" font-size="14" lengthAdjust="spacing" textLength="171" x="1739.5" y="348.0332">StartPanel(WindowActions)</text><polygon fill="#FFFF44" points="1730.5,356.4141,1734.5,360.4141,1730.5,364.4141,1726.5,360.4141" style="stroke:#B38D22;stroke-width:1.0;"/><text fill="#000000" font-family="sans-serif" font-size="14" lengthAdjust="spacing" textLength="205" x="1739.5" y="365.6426">paintComponent(Graphics): void</text></g></a><!--MD5=[ec19380e1b468893ce5c8bf2dc25d45f]
class nz.ac.vuw.ecs.swen225.gp22.app.StatePanel--><a href="StatePanel.html" target="_top" title="StatePanel.html" xlink:actuate="onRequest" xlink:href="StatePanel.html" xlink:show="new" xlink:title="StatePanel.html" xlink:type="simple"><g id="elem_nz.ac.vuw.ecs.swen225.gp22.app.StatePanel"><rect codeLine="75" fill="#F1F1F1" height="136.0469" id="nz.ac.vuw.ecs.swen225.gp22.app.StatePanel" rx="2.5" ry="2.5" style="stroke:#181818;stroke-width:0.5;" width="208" x="1476" y="263"/><ellipse cx="1541.25" cy="279" fill="#ADD1B2" rx="11" ry="11" style="stroke:#181818;stroke-width:1.0;"/><path d="M1544.0156,274.875 Q1544.1719,274.6563 1544.3594,274.5469 Q1544.5469,274.4375 1544.7656,274.4375 Q1545.1406,274.4375 1545.375,274.7031 Q1545.6094,274.9531 1545.6094,275.5625 L1545.6094,277.0156 Q1545.6094,277.625 1545.375,277.8906 Q1545.1406,278.1563 1544.7656,278.1563 Q1544.4219,278.1563 1544.2188,277.9531 Q1544.0156,277.7656 1543.9063,277.25 Q1543.8594,276.8906 1543.6719,276.7031 Q1543.3438,276.3281 1542.7344,276.1094 Q1542.125,275.8906 1541.5,275.8906 Q1540.7344,275.8906 1540.0938,276.2188 Q1539.4688,276.5469 1538.9688,277.2969 Q1538.4844,278.0469 1538.4844,279.0781 L1538.4844,280.1719 Q1538.4844,281.4063 1539.375,282.2344 Q1540.2656,283.0469 1541.8594,283.0469 Q1542.7969,283.0469 1543.4531,282.7969 Q1543.8438,282.6406 1544.2656,282.2031 Q1544.5313,281.9375 1544.6719,281.8594 Q1544.8281,281.7813 1545.0313,281.7813 Q1545.3594,281.7813 1545.6094,282.0469 Q1545.875,282.2969 1545.875,282.6406 Q1545.875,282.9844 1545.5313,283.3906 Q1545.0313,283.9688 1544.2344,284.2969 Q1543.1563,284.75 1541.8594,284.75 Q1540.3438,284.75 1539.1406,284.125 Q1538.1563,283.625 1537.4688,282.5625 Q1536.7813,281.4844 1536.7813,280.2031 L1536.7813,279.0469 Q1536.7813,277.7188 1537.3906,276.5781 Q1538.0156,275.4219 1539.1094,274.8125 Q1540.2031,274.1875 1541.4375,274.1875 Q1542.1719,274.1875 1542.8125,274.3594 Q1543.4688,274.5156 1544.0156,274.875 Z " fill="#000000"/><text fill="#000000" font-family="sans-serif" font-size="14" lengthAdjust="spacing" textLength="69" x="1561.75" y="284.7285">StatePanel</text><line style="stroke:#181818;stroke-width:0.5;" x1="1477" x2="1683" y1="295" y2="295"/><line style="stroke:#181818;stroke-width:0.5;" x1="1477" x2="1683" y1="303" y2="303"/><ellipse cx="1487" cy="317.3047" fill="#84BE84" rx="3" ry="3" style="stroke:#038048;stroke-width:1.0;"/><text fill="#000000" font-family="sans-serif" font-size="14" lengthAdjust="spacing" textLength="112" x="1496" y="321.5332">setLevel(int): void</text><ellipse cx="1487" cy="334.9141" fill="#84BE84" rx="3" ry="3" style="stroke:#038048;stroke-width:1.0;"/><text fill="#000000" font-family="sans-serif" font-size="14" lengthAdjust="spacing" textLength="137" x="1496" y="339.1426">setTime(double): void</text><ellipse cx="1487" cy="352.5234" fill="#84BE84" rx="3" ry="3" style="stroke:#038048;stroke-width:1.0;"/><text fill="#000000" font-family="sans-serif" font-size="14" lengthAdjust="spacing" textLength="138" x="1496" y="356.752">setChipsLeft(int): void</text><ellipse cx="1487" cy="370.1328" fill="#84BE84" rx="3" ry="3" style="stroke:#038048;stroke-width:1.0;"/><text fill="#000000" font-family="sans-serif" font-size="14" lengthAdjust="spacing" textLength="133" x="1496" y="374.3613">setKeysLeft(int): void</text><ellipse cx="1487" cy="387.7422" fill="#84BE84" rx="3" ry="3" style="stroke:#038048;stroke-width:1.0;"/><text fill="#000000" font-family="sans-serif" font-size="14" lengthAdjust="spacing" textLength="182" x="1496" y="391.9707">setInventory(List&lt;Tile&gt;): void</text></g></a><!--MD5=[ffd6f034cfad678921a5ab837a155e30]
class nz.ac.vuw.ecs.swen225.gp22.app.WindowActions--><g id="elem_nz.ac.vuw.ecs.swen225.gp22.app.WindowActions"><rect fill="#F1F1F1" height="48" id="nz.ac.vuw.ecs.swen225.gp22.app.WindowActions" rx="2.5" ry="2.5" style="stroke:#181818;stroke-width:0.5;" width="127" x="1313.5" y="307"/><ellipse cx="1328.5" cy="323" fill="#ADD1B2" rx="11" ry="11" style="stroke:#181818;stroke-width:1.0;"/><path d="M1331.2656,318.875 Q1331.4219,318.6563 1331.6094,318.5469 Q1331.7969,318.4375 1332.0156,318.4375 Q1332.3906,318.4375 1332.625,318.7031 Q1332.8594,318.9531 1332.8594,319.5625 L1332.8594,321.0156 Q1332.8594,321.625 1332.625,321.8906 Q1332.3906,322.1563 1332.0156,322.1563 Q1331.6719,322.1563 1331.4688,321.9531 Q1331.2656,321.7656 1331.1563,321.25 Q1331.1094,320.8906 1330.9219,320.7031 Q1330.5938,320.3281 1329.9844,320.1094 Q1329.375,319.8906 1328.75,319.8906 Q1327.9844,319.8906 1327.3438,320.2188 Q1326.7188,320.5469 1326.2188,321.2969 Q1325.7344,322.0469 1325.7344,323.0781 L1325.7344,324.1719 Q1325.7344,325.4063 1326.625,326.2344 Q1327.5156,327.0469 1329.1094,327.0469 Q1330.0469,327.0469 1330.7031,326.7969 Q1331.0938,326.6406 1331.5156,326.2031 Q1331.7813,325.9375 1331.9219,325.8594 Q1332.0781,325.7813 1332.2813,325.7813 Q1332.6094,325.7813 1332.8594,326.0469 Q1333.125,326.2969 1333.125,326.6406 Q1333.125,326.9844 1332.7813,327.3906 Q1332.2813,327.9688 1331.4844,328.2969 Q1330.4063,328.75 1329.1094,328.75 Q1327.5938,328.75 1326.3906,328.125 Q1325.4063,327.625 1324.7188,326.5625 Q1324.0313,325.4844 1324.0313,324.2031 L1324.0313,323.0469 Q1324.0313,321.7188 1324.6406,320.5781 Q1325.2656,319.4219 1326.3594,318.8125 Q1327.4531,318.1875 1328.6875,318.1875 Q1329.4219,318.1875 1330.0625,318.3594 Q1330.7188,318.5156 1331.2656,318.875 Z " fill="#000000"/><text fill="#000000" font-family="sans-serif" font-size="14" lengthAdjust="spacing" textLength="95" x="1342.5" y="328.7285">WindowActions</text><line style="stroke:#181818;stroke-width:0.5;" x1="1314.5" x2="1439.5" y1="339" y2="339"/><line style="stroke:#181818;stroke-width:0.5;" x1="1314.5" x2="1439.5" y1="347" y2="347"/></g><!--MD5=[56a185cb33bdc7c23303e5865f20a19b]
class javax.swing.JPanel--><g id="elem_javax.swing.JPanel"><rect codeLine="97" fill="#F1F1F1" height="48" id="javax.swing.JPanel" rx="2.5" ry="2.5" style="stroke:#181818;stroke-width:0.5;" width="74" x="1543" y="68.5"/><ellipse cx="1558" cy="84.5" fill="#ADD1B2" rx="11" ry="11" style="stroke:#181818;stroke-width:1.0;"/><path d="M1560.7656,80.375 Q1560.9219,80.1563 1561.1094,80.0469 Q1561.2969,79.9375 1561.5156,79.9375 Q1561.8906,79.9375 1562.125,80.2031 Q1562.3594,80.4531 1562.3594,81.0625 L1562.3594,82.5156 Q1562.3594,83.125 1562.125,83.3906 Q1561.8906,83.6563 1561.5156,83.6563 Q1561.1719,83.6563 1560.9688,83.4531 Q1560.7656,83.2656 1560.6563,82.75 Q1560.6094,82.3906 1560.4219,82.2031 Q1560.0938,81.8281 1559.4844,81.6094 Q1558.875,81.3906 1558.25,81.3906 Q1557.4844,81.3906 1556.8438,81.7188 Q1556.2188,82.0469 1555.7188,82.7969 Q1555.2344,83.5469 1555.2344,84.5781 L1555.2344,85.6719 Q1555.2344,86.9063 1556.125,87.7344 Q1557.0156,88.5469 1558.6094,88.5469 Q1559.5469,88.5469 1560.2031,88.2969 Q1560.5938,88.1406 1561.0156,87.7031 Q1561.2813,87.4375 1561.4219,87.3594 Q1561.5781,87.2813 1561.7813,87.2813 Q1562.1094,87.2813 1562.3594,87.5469 Q1562.625,87.7969 1562.625,88.1406 Q1562.625,88.4844 1562.2813,88.8906 Q1561.7813,89.4688 1560.9844,89.7969 Q1559.9063,90.25 1558.6094,90.25 Q1557.0938,90.25 1555.8906,89.625 Q1554.9063,89.125 1554.2188,88.0625 Q1553.5313,86.9844 1553.5313,85.7031 L1553.5313,84.5469 Q1553.5313,83.2188 1554.1406,82.0781 Q1554.7656,80.9219 1555.8594,80.3125 Q1556.9531,79.6875 1558.1875,79.6875 Q1558.9219,79.6875 1559.5625,79.8594 Q1560.2188,80.0156 1560.7656,80.375 Z " fill="#000000"/><text fill="#000000" font-family="sans-serif" font-size="14" lengthAdjust="spacing" textLength="42" x="1572" y="90.2285">JPanel</text><line style="stroke:#181818;stroke-width:0.5;" x1="1544" x2="1616" y1="100.5" y2="100.5"/><line style="stroke:#181818;stroke-width:0.5;" x1="1544" x2="1616" y1="108.5" y2="108.5"/></g><!--MD5=[18a7562403221f513ca44e0f82c4c17a]
class javax.swing.JFrame--><g id="elem_javax.swing.JFrame"><rect codeLine="99" fill="#F1F1F1" height="100.8281" id="javax.swing.JFrame" rx="2.5" ry="2.5" style="stroke:#181818;stroke-width:0.5;" width="263" x="1782.5" y="42"/><ellipse cx="1886.25" cy="58" fill="#ADD1B2" rx="11" ry="11" style="stroke:#181818;stroke-width:1.0;"/><path d="M1889.0156,53.875 Q1889.1719,53.6563 1889.3594,53.5469 Q1889.5469,53.4375 1889.7656,53.4375 Q1890.1406,53.4375 1890.375,53.7031 Q1890.6094,53.9531 1890.6094,54.5625 L1890.6094,56.0156 Q1890.6094,56.625 1890.375,56.8906 Q1890.1406,57.1563 1889.7656,57.1563 Q1889.4219,57.1563 1889.2188,56.9531 Q1889.0156,56.7656 1888.9063,56.25 Q1888.8594,55.8906 1888.6719,55.7031 Q1888.3438,55.3281 1887.7344,55.1094 Q1887.125,54.8906 1886.5,54.8906 Q1885.7344,54.8906 1885.0938,55.2188 Q1884.4688,55.5469 1883.9688,56.2969 Q1883.4844,57.0469 1883.4844,58.0781 L1883.4844,59.1719 Q1883.4844,60.4063 1884.375,61.2344 Q1885.2656,62.0469 1886.8594,62.0469 Q1887.7969,62.0469 1888.4531,61.7969 Q1888.8438,61.6406 1889.2656,61.2031 Q1889.5313,60.9375 1889.6719,60.8594 Q1889.8281,60.7813 1890.0313,60.7813 Q1890.3594,60.7813 1890.6094,61.0469 Q1890.875,61.2969 1890.875,61.6406 Q1890.875,61.9844 1890.5313,62.3906 Q1890.0313,62.9688 1889.2344,63.2969 Q1888.1563,63.75 1886.8594,63.75 Q1885.3438,63.75 1884.1406,63.125 Q1883.1563,62.625 1882.4688,61.5625 Q1881.7813,60.4844 1881.7813,59.2031 L1881.7813,58.0469 Q1881.7813,56.7188 1882.3906,55.5781 Q1883.0156,54.4219 1884.1094,53.8125 Q1885.2031,53.1875 1886.4375,53.1875 Q1887.1719,53.1875 1887.8125,53.3594 Q1888.4688,53.5156 1889.0156,53.875 Z " fill="#000000"/><text fill="#000000" font-family="sans-serif" font-size="14" lengthAdjust="spacing" textLength="47" x="1906.75" y="63.7285">JFrame</text><line style="stroke:#181818;stroke-width:0.5;" x1="1783.5" x2="2044.5" y1="74" y2="74"/><polygon fill="none" points="1793.5,83.3047,1797.5,87.3047,1793.5,91.3047,1789.5,87.3047" style="stroke:#B38D22;stroke-width:1.0;"/><text fill="#000000" font-family="sans-serif" font-size="14" lengthAdjust="spacing" textLength="135" x="1802.5" y="92.5332">rootPane: JRootPane</text><polygon fill="none" points="1793.5,100.9141,1797.5,104.9141,1793.5,108.9141,1789.5,104.9141" style="stroke:#B38D22;stroke-width:1.0;"/><text fill="#000000" font-family="sans-serif" font-size="14" lengthAdjust="spacing" textLength="228" x="1802.5" y="110.1426">rootPaneCheckingEnabled: boolean</text><polygon fill="none" points="1793.5,118.5234,1797.5,122.5234,1793.5,126.5234,1789.5,122.5234" style="stroke:#B38D22;stroke-width:1.0;"/><text fill="#000000" font-family="sans-serif" font-size="14" lengthAdjust="spacing" textLength="237" x="1802.5" y="127.752">accessibleContext: AccessibleContext</text><line style="stroke:#181818;stroke-width:0.5;" x1="1783.5" x2="2044.5" y1="134.8281" y2="134.8281"/></g><!--MD5=[e1d5997e74a9e0bf94752554eaad51e9]
class javax.swing.JMenuBar--><g id="elem_javax.swing.JMenuBar"><rect codeLine="104" fill="#F1F1F1" height="48" id="javax.swing.JMenuBar" rx="2.5" ry="2.5" style="stroke:#181818;stroke-width:0.5;" width="95" x="1652.5" y="68.5"/><ellipse cx="1667.5" cy="84.5" fill="#ADD1B2" rx="11" ry="11" style="stroke:#181818;stroke-width:1.0;"/><path d="M1670.2656,80.375 Q1670.4219,80.1563 1670.6094,80.0469 Q1670.7969,79.9375 1671.0156,79.9375 Q1671.3906,79.9375 1671.625,80.2031 Q1671.8594,80.4531 1671.8594,81.0625 L1671.8594,82.5156 Q1671.8594,83.125 1671.625,83.3906 Q1671.3906,83.6563 1671.0156,83.6563 Q1670.6719,83.6563 1670.4688,83.4531 Q1670.2656,83.2656 1670.1563,82.75 Q1670.1094,82.3906 1669.9219,82.2031 Q1669.5938,81.8281 1668.9844,81.6094 Q1668.375,81.3906 1667.75,81.3906 Q1666.9844,81.3906 1666.3438,81.7188 Q1665.7188,82.0469 1665.2188,82.7969 Q1664.7344,83.5469 1664.7344,84.5781 L1664.7344,85.6719 Q1664.7344,86.9063 1665.625,87.7344 Q1666.5156,88.5469 1668.1094,88.5469 Q1669.0469,88.5469 1669.7031,88.2969 Q1670.0938,88.1406 1670.5156,87.7031 Q1670.7813,87.4375 1670.9219,87.3594 Q1671.0781,87.2813 1671.2813,87.2813 Q1671.6094,87.2813 1671.8594,87.5469 Q1672.125,87.7969 1672.125,88.1406 Q1672.125,88.4844 1671.7813,88.8906 Q1671.2813,89.4688 1670.4844,89.7969 Q1669.4063,90.25 1668.1094,90.25 Q1666.5938,90.25 1665.3906,89.625 Q1664.4063,89.125 1663.7188,88.0625 Q1663.0313,86.9844 1663.0313,85.7031 L1663.0313,84.5469 Q1663.0313,83.2188 1663.6406,82.0781 Q1664.2656,80.9219 1665.3594,80.3125 Q1666.4531,79.6875 1667.6875,79.6875 Q1668.4219,79.6875 1669.0625,79.8594 Q1669.7188,80.0156 1670.2656,80.375 Z " fill="#000000"/><text fill="#000000" font-family="sans-serif" font-size="14" lengthAdjust="spacing" textLength="63" x="1681.5" y="90.2285">JMenuBar</text><line style="stroke:#181818;stroke-width:0.5;" x1="1653.5" x2="1746.5" y1="100.5" y2="100.5"/><line style="stroke:#181818;stroke-width:0.5;" x1="1653.5" x2="1746.5" y1="108.5" y2="108.5"/></g><!--MD5=[3eb55d915ce4c988cc6fe2a782a0fcdf]
class java.awt.event.KeyListener--><g id="elem_java.awt.event.KeyListener"><rect codeLine="109" fill="#F1F1F1" height="100.8281" id="java.awt.event.KeyListener" rx="2.5" ry="2.5" style="stroke:#181818;stroke-width:0.5;" width="211" x="22.5" y="42"/><ellipse cx="86.25" cy="58" fill="#B4A7E5" rx="11" ry="11" style="stroke:#181818;stroke-width:1.0;"/><path d="M87.2031,54.6406 L87.2031,61.2969 L88.9219,61.2969 Q89.5313,61.2969 89.7969,61.5313 Q90.0625,61.7656 90.0625,62.1563 Q90.0625,62.5313 89.7969,62.7656 Q89.5313,63 88.9219,63 L83.7813,63 Q83.1719,63 82.9063,62.7656 Q82.6406,62.5313 82.6406,62.1406 Q82.6406,61.7656 82.9063,61.5313 Q83.1719,61.2969 83.7813,61.2969 L85.5,61.2969 L85.5,54.6406 L83.7813,54.6406 Q83.1719,54.6406 82.9063,54.4063 Q82.6406,54.1719 82.6406,53.7813 Q82.6406,53.4063 82.9063,53.1719 Q83.1719,52.9375 83.7813,52.9375 L88.9219,52.9375 Q89.5313,52.9375 89.7969,53.1719 Q90.0625,53.4063 90.0625,53.7813 Q90.0625,54.1719 89.7969,54.4063 Q89.5313,54.6406 88.9219,54.6406 L87.2031,54.6406 Z " fill="#000000"/><text fill="#000000" font-family="sans-serif" font-size="14" font-style="italic" lengthAdjust="spacing" textLength="75" x="106.75" y="63.7285">KeyListener</text><line style="stroke:#181818;stroke-width:0.5;" x1="23.5" x2="232.5" y1="74" y2="74"/><line style="stroke:#181818;stroke-width:0.5;" x1="23.5" x2="232.5" y1="82" y2="82"/><ellipse cx="33.5" cy="96.3047" fill="#84BE84" rx="3" ry="3" style="stroke:#038048;stroke-width:1.0;"/><text fill="#000000" font-family="sans-serif" font-size="14" font-style="italic" lengthAdjust="spacing" textLength="165" x="42.5" y="100.5332">keyTyped(KeyEvent): void</text><ellipse cx="33.5" cy="113.9141" fill="#84BE84" rx="3" ry="3" style="stroke:#038048;stroke-width:1.0;"/><text fill="#000000" font-family="sans-serif" font-size="14" font-style="italic" lengthAdjust="spacing" textLength="177" x="42.5" y="118.1426">keyPressed(KeyEvent): void</text><ellipse cx="33.5" cy="131.5234" fill="#84BE84" rx="3" ry="3" style="stroke:#038048;stroke-width:1.0;"/><text fill="#000000" font-family="sans-serif" font-size="14" font-style="italic" lengthAdjust="spacing" textLength="185" x="42.5" y="135.752">keyReleased(KeyEvent): void</text></g><!--MD5=[56b59739c465d43f137de3e595037556]
reverse link javax.swing.JPanel to nz.ac.vuw.ecs.swen225.gp22.app.ActionPanel--><g id="link_javax.swing.JPanel_nz.ac.vuw.ecs.swen225.gp22.app.ActionPanel"><path codeLine="83" d="M1522.56,95.12 C1311.58,101.45 586.94,126.55 496,175 C444.92,202.21 408.11,261.05 389,297.89 " fill="none" id="javax.swing.JPanel-backto-nz.ac.vuw.ecs.swen225.gp22.app.ActionPanel" style="stroke:#181818;stroke-width:1.0;"/><polygon fill="none" points="1522.51,88.12,1542.71,94.53,1522.92,102.12,1522.51,88.12" style="stroke:#181818;stroke-width:1.0;"/></g><!--MD5=[51c36962e29644d77dc98068282f9dbb]
reverse link javax.swing.JFrame to nz.ac.vuw.ecs.swen225.gp22.app.App--><g id="link_javax.swing.JFrame_nz.ac.vuw.ecs.swen225.gp22.app.App"><path codeLine="84" d="M2065.56,121.09 C2121.51,134.61 2175.38,152.81 2192,175 C2263.4,270.34 2255.49,342.22 2192,443 C2112.11,569.8 1938.39,626.4 1826.55,650.48 " fill="none" id="javax.swing.JFrame-backto-nz.ac.vuw.ecs.swen225.gp22.app.App" style="stroke:#181818;stroke-width:1.0;"/><polygon fill="none" points="2063.65,127.83,2045.75,116.5,2066.81,114.19,2063.65,127.83" style="stroke:#181818;stroke-width:1.0;"/></g><!--MD5=[99c900415ffdbeb8a0a591e249646092]
reverse link nz.ac.vuw.ecs.swen225.gp22.app.WindowActions to nz.ac.vuw.ecs.swen225.gp22.app.App--><g id="link_nz.ac.vuw.ecs.swen225.gp22.app.WindowActions_nz.ac.vuw.ecs.swen225.gp22.app.App"><path codeLine="85" d="M1403.13,371.95 C1418.3,393.89 1438.43,421.03 1459,443 C1508.52,495.87 1569.99,548.5 1621.25,589.44 " fill="none" id="nz.ac.vuw.ecs.swen225.gp22.app.WindowActions-backto-nz.ac.vuw.ecs.swen225.gp22.app.App" style="stroke:#181818;stroke-width:1.0;stroke-dasharray:7.0,7.0;"/><polygon fill="none" points="1397.29,375.81,1391.89,355.32,1408.89,367.97,1397.29,375.81" style="stroke:#181818;stroke-width:1.0;"/></g><!--MD5=[b6a764235874161bb362e4ae22081302]
reverse link javax.swing.JPanel to nz.ac.vuw.ecs.swen225.gp22.app.GameCanvas--><g id="link_javax.swing.JPanel_nz.ac.vuw.ecs.swen225.gp22.app.GameCanvas"><path codeLine="86" d="M1522.65,98.72 C1414.41,109.34 1184.72,135.86 1116,175 C1072.09,200.01 1035.86,245.2 1012.36,280.36 " fill="none" id="javax.swing.JPanel-backto-nz.ac.vuw.ecs.swen225.gp22.app.GameCanvas" style="stroke:#181818;stroke-width:1.0;"/><polygon fill="none" points="1522.32,91.72,1542.9,96.78,1523.65,105.65,1522.32,91.72" style="stroke:#181818;stroke-width:1.0;"/></g><!--MD5=[f21d5c9521720e3dd9855ab5daf61682]
reverse link javax.swing.JPanel to nz.ac.vuw.ecs.swen225.gp22.app.GamePanel--><g id="link_javax.swing.JPanel_nz.ac.vuw.ecs.swen225.gp22.app.GamePanel"><path codeLine="87" d="M1522.39,95.5 C1371.93,101.41 970.53,121.86 850,175 C825.15,185.96 801.26,201.68 779.52,218.95 " fill="none" id="javax.swing.JPanel-backto-nz.ac.vuw.ecs.swen225.gp22.app.GamePanel" style="stroke:#181818;stroke-width:1.0;"/><polygon fill="none" points="1522.45,88.49,1542.7,94.73,1522.98,102.48,1522.45,88.49" style="stroke:#181818;stroke-width:1.0;"/></g><!--MD5=[5b20836789f87bf6e4c018d9a840331f]
reverse link java.awt.event.KeyListener to nz.ac.vuw.ecs.swen225.gp22.app.KeyController--><g id="link_java.awt.event.KeyListener_nz.ac.vuw.ecs.swen225.gp22.app.KeyController"><path codeLine="88" d="M128,163.36 C128,191.84 128,224.85 128,253.94 " fill="none" id="java.awt.event.KeyListener-backto-nz.ac.vuw.ecs.swen225.gp22.app.KeyController" style="stroke:#181818;stroke-width:1.0;stroke-dasharray:7.0,7.0;"/><polygon fill="none" points="121,163.08,128,143.08,135,163.08,121,163.08" style="stroke:#181818;stroke-width:1.0;"/></g><!--MD5=[701b9eb874dab92a3e5baad8f1e948b5]
reverse link javax.swing.JMenuBar to nz.ac.vuw.ecs.swen225.gp22.app.MenuBar--><g id="link_javax.swing.JMenuBar_nz.ac.vuw.ecs.swen225.gp22.app.MenuBar"><path codeLine="89" d="M1725.02,132.95 C1735.62,146.2 1749.2,159.5 1765,167 C1805.79,186.35 1928.21,153.66 1968,175 C2017.59,201.59 2050.61,260.92 2067.27,297.98 " fill="none" id="javax.swing.JMenuBar-backto-nz.ac.vuw.ecs.swen225.gp22.app.MenuBar" style="stroke:#181818;stroke-width:1.0;"/><polygon fill="none" points="1719.28,136.96,1713.24,116.64,1730.63,128.76,1719.28,136.96" style="stroke:#181818;stroke-width:1.0;"/></g><!--MD5=[2d5e254a6c694cd25972819ef785f83e]
reverse link nz.ac.vuw.ecs.swen225.gp22.app.ActionPanel to nz.ac.vuw.ecs.swen225.gp22.app.PlayingButtons--><g id="link_nz.ac.vuw.ecs.swen225.gp22.app.ActionPanel_nz.ac.vuw.ecs.swen225.gp22.app.PlayingButtons"><path codeLine="90" d="M397.32,382.72 C429.47,452.66 486.46,576.64 513.28,634.98 " fill="none" id="nz.ac.vuw.ecs.swen225.gp22.app.ActionPanel-backto-nz.ac.vuw.ecs.swen225.gp22.app.PlayingButtons" style="stroke:#181818;stroke-width:1.0;"/><polygon fill="none" points="390.76,385.22,388.77,364.12,403.48,379.37,390.76,385.22" style="stroke:#181818;stroke-width:1.0;"/></g><!--MD5=[adf9b9e29d83993d0619be42f347e369]
reverse link nz.ac.vuw.ecs.swen225.gp22.app.ActionPanel to nz.ac.vuw.ecs.swen225.gp22.app.ReplayingButtons--><g id="link_nz.ac.vuw.ecs.swen225.gp22.app.ActionPanel_nz.ac.vuw.ecs.swen225.gp22.app.ReplayingButtons"><path codeLine="91" d="M356.43,383.17 C332.4,453.19 289.97,576.77 269.99,634.98 " fill="none" id="nz.ac.vuw.ecs.swen225.gp22.app.ActionPanel-backto-nz.ac.vuw.ecs.swen225.gp22.app.ReplayingButtons" style="stroke:#181818;stroke-width:1.0;"/><polygon fill="none" points="349.86,380.76,362.97,364.12,363.1,385.31,349.86,380.76" style="stroke:#181818;stroke-width:1.0;"/></g><!--MD5=[8ce5391e0b19e2fbbf22b4ff339d57be]
reverse link javax.swing.JPanel to nz.ac.vuw.ecs.swen225.gp22.app.StartPanel--><g id="link_javax.swing.JPanel_nz.ac.vuw.ecs.swen225.gp22.app.StartPanel"><path codeLine="92" d="M1601.57,134.06 C1610.27,146.62 1621.49,159.2 1635,167 C1660.97,182 1675.54,160.88 1702,175 C1750.8,201.04 1789.51,252.9 1812.31,289.45 " fill="none" id="javax.swing.JPanel-backto-nz.ac.vuw.ecs.swen225.gp22.app.StartPanel" style="stroke:#181818;stroke-width:1.0;"/><polygon fill="none" points="1595.47,137.51,1590.96,116.81,1607.4,130.18,1595.47,137.51" style="stroke:#181818;stroke-width:1.0;"/></g><!--MD5=[27e01049f2db9df8fa59ea354d0a9c10]
reverse link javax.swing.JPanel to nz.ac.vuw.ecs.swen225.gp22.app.StatePanel--><g id="link_javax.swing.JPanel_nz.ac.vuw.ecs.swen225.gp22.app.StatePanel"><path codeLine="93" d="M1580,136.62 C1580,171.89 1580,222.39 1580,262.94 " fill="none" id="javax.swing.JPanel-backto-nz.ac.vuw.ecs.swen225.gp22.app.StatePanel" style="stroke:#181818;stroke-width:1.0;"/><polygon fill="none" points="1573,136.61,1580,116.61,1587,136.61,1573,136.61" style="stroke:#181818;stroke-width:1.0;"/></g><rect fill="none" height="12.5781" style="stroke:none;stroke-width:1.0;" width="184" x="1036.2" y="855"/><text fill="#888888" font-family="sans-serif" font-size="10" lengthAdjust="spacing" textLength="184" x="1036.2" y="865.3809">UMLDoclet 2.0.19, PlantUML 1.2022.8</text><!--MD5=[2dc692eda17876d501ee4bc1ed50e021]
@startuml
    namespace nz.ac.vuw.ecs.swen225.gp22.app {

        class ActionPanel [[ActionPanel.html]] {
            #createButton(String): JButton
        }

        class App [[App.html]] {
            +App(boolean)
            +toMainMenu(): void
            +move(Direction): void
            +pause(): void
            +unpause(): void
            +togglePause(): void
            +save(): void
            +exit(): void
            +getGameAndResume(): void
            +startLevel(int): void
            +startLevel(String): void
            +replayLevel(int): void
            +stepReplay(): void
            +setReplaySpeed(): void
            +showPopup(String): void
            +clear(int): void
        }

        class GameCanvas [[GameCanvas.html]] {
            +maze: Maze
            +update(Maze): void
            +paintComponent(Graphics): void
        }

        class GamePanel [[GamePanel.html]] {
            +maze: Maze
            +recorder: Recorder
            +GamePanel(Maze, Recorder, JPanel, boolean)
            +startLevel(int): void
            +isPaused(): boolean
            +setPause(boolean): void
            +setSpeed(double): void
            +setTick(int): void
            +getTick(): int
            #paintComponent(Graphics): void
        }

        class KeyController [[KeyController.html]] {
            +recorder: Recorder
            +setRecorder(Recorder): void
            +handle(KeyEvent): void
            +keyPressed(KeyEvent): void
            +keyReleased(KeyEvent): void
            +keyTyped(KeyEvent): void
        }

        class Main [[Main.html]] {
            {static} +main(String[]): void
        }

        class MenuBar [[MenuBar.html]] {
            +MenuBar(WindowActions)
        }

        class PlayingButtons [[PlayingButtons.html]] {
            +PlayingButtons(WindowActions)
        }

        class ReplayingButtons [[ReplayingButtons.html]] {
            +ReplayingButtons(WindowActions)
        }

        class StartPanel [[StartPanel.html]] {
            +StartPanel(WindowActions)
            #paintComponent(Graphics): void
        }

        class StatePanel [[StatePanel.html]] {
            +setLevel(int): void
            +setTime(double): void
            +setChipsLeft(int): void
            +setKeysLeft(int): void
            +setInventory(List<Tile>): void
        }

        javax.swing.JPanel <|- - ActionPanel
        javax.swing.JFrame <|- - App
        WindowActions <|.. App
        javax.swing.JPanel <|- - GameCanvas
        javax.swing.JPanel <|- - GamePanel
        java.awt.event.KeyListener <|.. KeyController
        javax.swing.JMenuBar <|- - MenuBar
        ActionPanel <|- - PlayingButtons
        ActionPanel <|- - ReplayingButtons
        javax.swing.JPanel <|- - StartPanel
        javax.swing.JPanel <|- - StatePanel
    }

    namespace javax.swing {
        class JPanel {
        }
        class JFrame {
            #rootPane: JRootPane
            #rootPaneCheckingEnabled: boolean
            #accessibleContext: AccessibleContext
        }
        class JMenuBar {
        }
    }

    namespace java.awt.event {
        interface KeyListener {
            {abstract} +keyTyped(KeyEvent): void
            {abstract} +keyPressed(KeyEvent): void
            {abstract} +keyReleased(KeyEvent): void
        }
    }

    center footer UMLDoclet 2.0.19, PlantUML 1.2022.8
@enduml

PlantUML version 1.2022.8(Sun Sep 25 22:00:33 NZDT 2022)
(APACHE source distribution)
Java Runtime: OpenJDK Runtime Environment
JVM: OpenJDK 64-Bit Server VM
Default Encoding: UTF-8
Language: en
Country: NZ
--></g></svg>