<?xml version="1.0" encoding="UTF-8" standalone="no"?><svg xmlns="http://www.w3.org/2000/svg" xmlns:xlink="http://www.w3.org/1999/xlink" contentStyleType="text/css" height="199px" preserveAspectRatio="none" style="width:239px;height:199px;background:#FFFFFF;" version="1.1" viewBox="0 0 239 199" width="239px" zoomAndPan="magnify"><defs/><g><!--MD5=[d53b6f4b918f9b0016d10d02f1965a2a]
class nz.ac.vuw.ecs.swen225.gp22.app.PlayingButtons--><a href="PlayingButtons.html" target="_top" title="PlayingButtons.html" xlink:actuate="onRequest" xlink:href="PlayingButtons.html" xlink:show="new" xlink:title="PlayingButtons.html" xlink:type="simple"><g id="elem_nz.ac.vuw.ecs.swen225.gp22.app.PlayingButtons"><rect codeLine="5" fill="#F1F1F1" height="65.7969" id="nz.ac.vuw.ecs.swen225.gp22.app.PlayingButtons" rx="2.5" ry="2.5" style="stroke:#181818;stroke-width:0.5;" width="225" x="7" y="107"/><ellipse cx="37.75" cy="127.0938" fill="#ADD1B2" rx="11" ry="11" style="stroke:#181818;stroke-width:1.0;"/><path d="M40.5156,122.9688 Q40.6719,122.75 40.8594,122.6406 Q41.0469,122.5313 41.2656,122.5313 Q41.6406,122.5313 41.875,122.7969 Q42.1094,123.0469 42.1094,123.6563 L42.1094,125.1094 Q42.1094,125.7188 41.875,125.9844 Q41.6406,126.25 41.2656,126.25 Q40.9219,126.25 40.7188,126.0469 Q40.5156,125.8594 40.4063,125.3438 Q40.3594,124.9844 40.1719,124.7969 Q39.8438,124.4219 39.2344,124.2031 Q38.625,123.9844 38,123.9844 Q37.2344,123.9844 36.5938,124.3125 Q35.9688,124.6406 35.4688,125.3906 Q34.9844,126.1406 34.9844,127.1719 L34.9844,128.2656 Q34.9844,129.5 35.875,130.3281 Q36.7656,131.1406 38.3594,131.1406 Q39.2969,131.1406 39.9531,130.8906 Q40.3438,130.7344 40.7656,130.2969 Q41.0313,130.0313 41.1719,129.9531 Q41.3281,129.875 41.5313,129.875 Q41.8594,129.875 42.1094,130.1406 Q42.375,130.3906 42.375,130.7344 Q42.375,131.0781 42.0313,131.4844 Q41.5313,132.0625 40.7344,132.3906 Q39.6563,132.8438 38.3594,132.8438 Q36.8438,132.8438 35.6406,132.2188 Q34.6563,131.7188 33.9688,130.6563 Q33.2813,129.5781 33.2813,128.2969 L33.2813,127.1406 Q33.2813,125.8125 33.8906,124.6719 Q34.5156,123.5156 35.6094,122.9063 Q36.7031,122.2813 37.9375,122.2813 Q38.6719,122.2813 39.3125,122.4531 Q39.9688,122.6094 40.5156,122.9688 Z " fill="#000000"/><text fill="#000000" font-family="sans-serif" font-size="14" lengthAdjust="spacing" textLength="94" x="87.25" y="126.5332">PlayingButtons</text><text fill="#000000" font-family="sans-serif" font-size="10" lengthAdjust="spacing" textLength="158" x="55.25" y="139.9902">nz.ac.vuw.ecs.swen225.gp22.app</text><line style="stroke:#181818;stroke-width:0.5;" x1="8" x2="231" y1="147.1875" y2="147.1875"/><ellipse cx="18" cy="161.4922" fill="#84BE84" rx="3" ry="3" style="stroke:#038048;stroke-width:1.0;"/><text fill="#000000" font-family="sans-serif" font-size="14" lengthAdjust="spacing" textLength="199" x="27" y="165.7207">PlayingButtons(WindowActions)</text></g></a><!--MD5=[f14bf8ab4ef8ac7dbefd3667437267fe]
class nz.ac.vuw.ecs.swen225.gp22.app.ActionPanel--><a href="ActionPanel.html" target="_top" title="ActionPanel.html" xlink:actuate="onRequest" xlink:href="ActionPanel.html" xlink:show="new" xlink:title="ActionPanel.html" xlink:type="simple"><g id="elem_nz.ac.vuw.ecs.swen225.gp22.app.ActionPanel"><rect codeLine="9" fill="#F1F1F1" height="40.1875" id="nz.ac.vuw.ecs.swen225.gp22.app.ActionPanel" rx="2.5" ry="2.5" style="stroke:#181818;stroke-width:0.5;" width="190" x="24.5" y="7"/><ellipse cx="39.5" cy="27.0938" fill="#ADD1B2" rx="11" ry="11" style="stroke:#181818;stroke-width:1.0;"/><path d="M42.2656,22.9688 Q42.4219,22.75 42.6094,22.6406 Q42.7969,22.5313 43.0156,22.5313 Q43.3906,22.5313 43.625,22.7969 Q43.8594,23.0469 43.8594,23.6563 L43.8594,25.1094 Q43.8594,25.7188 43.625,25.9844 Q43.3906,26.25 43.0156,26.25 Q42.6719,26.25 42.4688,26.0469 Q42.2656,25.8594 42.1563,25.3438 Q42.1094,24.9844 41.9219,24.7969 Q41.5938,24.4219 40.9844,24.2031 Q40.375,23.9844 39.75,23.9844 Q38.9844,23.9844 38.3438,24.3125 Q37.7188,24.6406 37.2188,25.3906 Q36.7344,26.1406 36.7344,27.1719 L36.7344,28.2656 Q36.7344,29.5 37.625,30.3281 Q38.5156,31.1406 40.1094,31.1406 Q41.0469,31.1406 41.7031,30.8906 Q42.0938,30.7344 42.5156,30.2969 Q42.7813,30.0313 42.9219,29.9531 Q43.0781,29.875 43.2813,29.875 Q43.6094,29.875 43.8594,30.1406 Q44.125,30.3906 44.125,30.7344 Q44.125,31.0781 43.7813,31.4844 Q43.2813,32.0625 42.4844,32.3906 Q41.4063,32.8438 40.1094,32.8438 Q38.5938,32.8438 37.3906,32.2188 Q36.4063,31.7188 35.7188,30.6563 Q35.0313,29.5781 35.0313,28.2969 L35.0313,27.1406 Q35.0313,25.8125 35.6406,24.6719 Q36.2656,23.5156 37.3594,22.9063 Q38.4531,22.2813 39.6875,22.2813 Q40.4219,22.2813 41.0625,22.4531 Q41.7188,22.6094 42.2656,22.9688 Z " fill="#000000"/><text fill="#000000" font-family="sans-serif" font-size="14" lengthAdjust="spacing" textLength="75" x="95" y="26.5332">ActionPanel</text><text fill="#000000" font-family="sans-serif" font-size="10" lengthAdjust="spacing" textLength="158" x="53.5" y="39.9902">nz.ac.vuw.ecs.swen225.gp22.app</text></g></a><!--MD5=[2d5e254a6c694cd25972819ef785f83e]
reverse link nz.ac.vuw.ecs.swen225.gp22.app.ActionPanel to nz.ac.vuw.ecs.swen225.gp22.app.PlayingButtons--><g id="link_nz.ac.vuw.ecs.swen225.gp22.app.ActionPanel_nz.ac.vuw.ecs.swen225.gp22.app.PlayingButtons"><path codeLine="11" d="M119.5,67.09 C119.5,80.05 119.5,94.32 119.5,106.71 " fill="none" id="nz.ac.vuw.ecs.swen225.gp22.app.ActionPanel-backto-nz.ac.vuw.ecs.swen225.gp22.app.PlayingButtons" style="stroke:#181818;stroke-width:1.0;"/><polygon fill="none" points="112.5,67.08,119.5,47.08,126.5,67.08,112.5,67.08" style="stroke:#181818;stroke-width:1.0;"/></g><rect fill="none" height="12.5781" style="stroke:none;stroke-width:1.0;" width="184" x="20.5" y="178.7969"/><text fill="#888888" font-family="sans-serif" font-size="10" lengthAdjust="spacing" textLength="184" x="20.5" y="189.1777">UMLDoclet 2.0.19, PlantUML 1.2022.8</text><!--MD5=[9d9383217736cdb6cefcbc72d91b3add]
@startuml
    set namespaceSeparator none
    hide empty fields
    hide empty methods

    class "<size:14>PlayingButtons\n<size:10>nz.ac.vuw.ecs.swen225.gp22.app" as nz.ac.vuw.ecs.swen225.gp22.app.PlayingButtons [[PlayingButtons.html]] {
        +PlayingButtons(WindowActions)
    }

    class "<size:14>ActionPanel\n<size:10>nz.ac.vuw.ecs.swen225.gp22.app" as nz.ac.vuw.ecs.swen225.gp22.app.ActionPanel [[ActionPanel.html]]

    nz.ac.vuw.ecs.swen225.gp22.app.ActionPanel <|- - nz.ac.vuw.ecs.swen225.gp22.app.PlayingButtons

    center footer UMLDoclet 2.0.19, PlantUML 1.2022.8
@enduml

PlantUML version 1.2022.8(Sun Sep 25 22:00:33 NZDT 2022)
(APACHE source distribution)
Java Runtime: OpenJDK Runtime Environment
JVM: OpenJDK 64-Bit Server VM
Default Encoding: UTF-8
Language: en
Country: NZ
--></g></svg>