<?xml version="1.0" encoding="UTF-8" standalone="no"?><svg xmlns="http://www.w3.org/2000/svg" xmlns:xlink="http://www.w3.org/1999/xlink" contentStyleType="text/css" height="199px" preserveAspectRatio="none" style="width:256px;height:199px;background:#FFFFFF;" version="1.1" viewBox="0 0 256 199" width="256px" zoomAndPan="magnify"><defs/><g><!--MD5=[7cbbbc72c0c7ccca3345032c83aa06ba]
class nz.ac.vuw.ecs.swen225.gp22.app.ReplayingButtons--><a href="ReplayingButtons.html" target="_top" title="ReplayingButtons.html" xlink:actuate="onRequest" xlink:href="ReplayingButtons.html" xlink:show="new" xlink:title="ReplayingButtons.html" xlink:type="simple"><g id="elem_nz.ac.vuw.ecs.swen225.gp22.app.ReplayingButtons"><rect codeLine="5" fill="#F1F1F1" height="65.7969" id="nz.ac.vuw.ecs.swen225.gp22.app.ReplayingButtons" rx="2.5" ry="2.5" style="stroke:#181818;stroke-width:0.5;" width="242" x="7" y="107"/><ellipse cx="45.4" cy="127.0938" fill="#ADD1B2" rx="11" ry="11" style="stroke:#181818;stroke-width:1.0;"/><path d="M48.1656,122.9688 Q48.3219,122.75 48.5094,122.6406 Q48.6969,122.5313 48.9156,122.5313 Q49.2906,122.5313 49.525,122.7969 Q49.7594,123.0469 49.7594,123.6563 L49.7594,125.1094 Q49.7594,125.7188 49.525,125.9844 Q49.2906,126.25 48.9156,126.25 Q48.5719,126.25 48.3688,126.0469 Q48.1656,125.8594 48.0563,125.3438 Q48.0094,124.9844 47.8219,124.7969 Q47.4938,124.4219 46.8844,124.2031 Q46.275,123.9844 45.65,123.9844 Q44.8844,123.9844 44.2438,124.3125 Q43.6188,124.6406 43.1188,125.3906 Q42.6344,126.1406 42.6344,127.1719 L42.6344,128.2656 Q42.6344,129.5 43.525,130.3281 Q44.4156,131.1406 46.0094,131.1406 Q46.9469,131.1406 47.6031,130.8906 Q47.9938,130.7344 48.4156,130.2969 Q48.6813,130.0313 48.8219,129.9531 Q48.9781,129.875 49.1813,129.875 Q49.5094,129.875 49.7594,130.1406 Q50.025,130.3906 50.025,130.7344 Q50.025,131.0781 49.6813,131.4844 Q49.1813,132.0625 48.3844,132.3906 Q47.3063,132.8438 46.0094,132.8438 Q44.4938,132.8438 43.2906,132.2188 Q42.3063,131.7188 41.6188,130.6563 Q40.9313,129.5781 40.9313,128.2969 L40.9313,127.1406 Q40.9313,125.8125 41.5406,124.6719 Q42.1656,123.5156 43.2594,122.9063 Q44.3531,122.2813 45.5875,122.2813 Q46.3219,122.2813 46.9625,122.4531 Q47.6188,122.6094 48.1656,122.9688 Z " fill="#000000"/><text fill="#000000" font-family="sans-serif" font-size="14" lengthAdjust="spacing" textLength="111" x="88.1" y="126.5332">ReplayingButtons</text><text fill="#000000" font-family="sans-serif" font-size="10" lengthAdjust="spacing" textLength="158" x="64.6" y="139.9902">nz.ac.vuw.ecs.swen225.gp22.app</text><line style="stroke:#181818;stroke-width:0.5;" x1="8" x2="248" y1="147.1875" y2="147.1875"/><ellipse cx="18" cy="161.4922" fill="#84BE84" rx="3" ry="3" style="stroke:#038048;stroke-width:1.0;"/><text fill="#000000" font-family="sans-serif" font-size="14" lengthAdjust="spacing" textLength="216" x="27" y="165.7207">ReplayingButtons(WindowActions)</text></g></a><!--MD5=[f14bf8ab4ef8ac7dbefd3667437267fe]
class nz.ac.vuw.ecs.swen225.gp22.app.ActionPanel--><a href="ActionPanel.html" target="_top" title="ActionPanel.html" xlink:actuate="onRequest" xlink:href="ActionPanel.html" xlink:show="new" xlink:title="ActionPanel.html" xlink:type="simple"><g id="elem_nz.ac.vuw.ecs.swen225.gp22.app.ActionPanel"><rect codeLine="9" fill="#F1F1F1" height="40.1875" id="nz.ac.vuw.ecs.swen225.gp22.app.ActionPanel" rx="2.5" ry="2.5" style="stroke:#181818;stroke-width:0.5;" width="190" x="33" y="7"/><ellipse cx="48" cy="27.0938" fill="#ADD1B2" rx="11" ry="11" style="stroke:#181818;stroke-width:1.0;"/><path d="M50.7656,22.9688 Q50.9219,22.75 51.1094,22.6406 Q51.2969,22.5313 51.5156,22.5313 Q51.8906,22.5313 52.125,22.7969 Q52.3594,23.0469 52.3594,23.6563 L52.3594,25.1094 Q52.3594,25.7188 52.125,25.9844 Q51.8906,26.25 51.5156,26.25 Q51.1719,26.25 50.9688,26.0469 Q50.7656,25.8594 50.6563,25.3438 Q50.6094,24.9844 50.4219,24.7969 Q50.0938,24.4219 49.4844,24.2031 Q48.875,23.9844 48.25,23.9844 Q47.4844,23.9844 46.8438,24.3125 Q46.2188,24.6406 45.7188,25.3906 Q45.2344,26.1406 45.2344,27.1719 L45.2344,28.2656 Q45.2344,29.5 46.125,30.3281 Q47.0156,31.1406 48.6094,31.1406 Q49.5469,31.1406 50.2031,30.8906 Q50.5938,30.7344 51.0156,30.2969 Q51.2813,30.0313 51.4219,29.9531 Q51.5781,29.875 51.7813,29.875 Q52.1094,29.875 52.3594,30.1406 Q52.625,30.3906 52.625,30.7344 Q52.625,31.0781 52.2813,31.4844 Q51.7813,32.0625 50.9844,32.3906 Q49.9063,32.8438 48.6094,32.8438 Q47.0938,32.8438 45.8906,32.2188 Q44.9063,31.7188 44.2188,30.6563 Q43.5313,29.5781 43.5313,28.2969 L43.5313,27.1406 Q43.5313,25.8125 44.1406,24.6719 Q44.7656,23.5156 45.8594,22.9063 Q46.9531,22.2813 48.1875,22.2813 Q48.9219,22.2813 49.5625,22.4531 Q50.2188,22.6094 50.7656,22.9688 Z " fill="#000000"/><text fill="#000000" font-family="sans-serif" font-size="14" lengthAdjust="spacing" textLength="75" x="103.5" y="26.5332">ActionPanel</text><text fill="#000000" font-family="sans-serif" font-size="10" lengthAdjust="spacing" textLength="158" x="62" y="39.9902">nz.ac.vuw.ecs.swen225.gp22.app</text></g></a><!--MD5=[adf9b9e29d83993d0619be42f347e369]
reverse link nz.ac.vuw.ecs.swen225.gp22.app.ActionPanel to nz.ac.vuw.ecs.swen225.gp22.app.ReplayingButtons--><g id="link_nz.ac.vuw.ecs.swen225.gp22.app.ActionPanel_nz.ac.vuw.ecs.swen225.gp22.app.ReplayingButtons"><path codeLine="11" d="M128,67.09 C128,80.05 128,94.32 128,106.71 " fill="none" id="nz.ac.vuw.ecs.swen225.gp22.app.ActionPanel-backto-nz.ac.vuw.ecs.swen225.gp22.app.ReplayingButtons" style="stroke:#181818;stroke-width:1.0;"/><polygon fill="none" points="121,67.08,128,47.08,135,67.08,121,67.08" style="stroke:#181818;stroke-width:1.0;"/></g><rect fill="none" height="12.5781" style="stroke:none;stroke-width:1.0;" width="184" x="29" y="178.7969"/><text fill="#888888" font-family="sans-serif" font-size="10" lengthAdjust="spacing" textLength="184" x="29" y="189.1777">UMLDoclet 2.0.19, PlantUML 1.2022.8</text><!--MD5=[f6442d40f38f3f07283c7570c9ae3642]
@startuml
    set namespaceSeparator none
    hide empty fields
    hide empty methods

    class "<size:14>ReplayingButtons\n<size:10>nz.ac.vuw.ecs.swen225.gp22.app" as nz.ac.vuw.ecs.swen225.gp22.app.ReplayingButtons [[ReplayingButtons.html]] {
        +ReplayingButtons(WindowActions)
    }

    class "<size:14>ActionPanel\n<size:10>nz.ac.vuw.ecs.swen225.gp22.app" as nz.ac.vuw.ecs.swen225.gp22.app.ActionPanel [[ActionPanel.html]]

    nz.ac.vuw.ecs.swen225.gp22.app.ActionPanel <|- - nz.ac.vuw.ecs.swen225.gp22.app.ReplayingButtons

    center footer UMLDoclet 2.0.19, PlantUML 1.2022.8
@enduml

PlantUML version 1.2022.8(Sun Sep 25 22:00:33 NZDT 2022)
(APACHE source distribution)
Java Runtime: OpenJDK Runtime Environment
JVM: OpenJDK 64-Bit Server VM
Default Encoding: UTF-8
Language: en
Country: NZ
--></g></svg>