<?xml version="1.0" encoding="UTF-8" standalone="no"?><svg xmlns="http://www.w3.org/2000/svg" xmlns:xlink="http://www.w3.org/1999/xlink" contentStyleType="text/css" height="216px" preserveAspectRatio="none" style="width:247px;height:216px;background:#FFFFFF;" version="1.1" viewBox="0 0 247 216" width="247px" zoomAndPan="magnify"><defs/><g><!--MD5=[087bf4767665b3667405af5aac1826ea]
class nz.ac.vuw.ecs.swen225.gp22.app.StartPanel--><a href="StartPanel.html" target="_top" title="StartPanel.html" xlink:actuate="onRequest" xlink:href="StartPanel.html" xlink:show="new" xlink:title="StartPanel.html" xlink:type="simple"><g id="elem_nz.ac.vuw.ecs.swen225.gp22.app.StartPanel"><rect codeLine="5" fill="#F1F1F1" height="83.4063" id="nz.ac.vuw.ecs.swen225.gp22.app.StartPanel" rx="2.5" ry="2.5" style="stroke:#181818;stroke-width:0.5;" width="231" x="9" y="107"/><ellipse cx="42.45" cy="127.0938" fill="#ADD1B2" rx="11" ry="11" style="stroke:#181818;stroke-width:1.0;"/><path d="M45.2156,122.9688 Q45.3719,122.75 45.5594,122.6406 Q45.7469,122.5313 45.9656,122.5313 Q46.3406,122.5313 46.575,122.7969 Q46.8094,123.0469 46.8094,123.6563 L46.8094,125.1094 Q46.8094,125.7188 46.575,125.9844 Q46.3406,126.25 45.9656,126.25 Q45.6219,126.25 45.4188,126.0469 Q45.2156,125.8594 45.1063,125.3438 Q45.0594,124.9844 44.8719,124.7969 Q44.5438,124.4219 43.9344,124.2031 Q43.325,123.9844 42.7,123.9844 Q41.9344,123.9844 41.2938,124.3125 Q40.6688,124.6406 40.1688,125.3906 Q39.6844,126.1406 39.6844,127.1719 L39.6844,128.2656 Q39.6844,129.5 40.575,130.3281 Q41.4656,131.1406 43.0594,131.1406 Q43.9969,131.1406 44.6531,130.8906 Q45.0438,130.7344 45.4656,130.2969 Q45.7313,130.0313 45.8719,129.9531 Q46.0281,129.875 46.2313,129.875 Q46.5594,129.875 46.8094,130.1406 Q47.075,130.3906 47.075,130.7344 Q47.075,131.0781 46.7313,131.4844 Q46.2313,132.0625 45.4344,132.3906 Q44.3563,132.8438 43.0594,132.8438 Q41.5438,132.8438 40.3406,132.2188 Q39.3563,131.7188 38.6688,130.6563 Q37.9813,129.5781 37.9813,128.2969 L37.9813,127.1406 Q37.9813,125.8125 38.5906,124.6719 Q39.2156,123.5156 40.3094,122.9063 Q41.4031,122.2813 42.6375,122.2813 Q43.3719,122.2813 44.0125,122.4531 Q44.6688,122.6094 45.2156,122.9688 Z " fill="#000000"/><text fill="#000000" font-family="sans-serif" font-size="14" lengthAdjust="spacing" textLength="66" x="106.55" y="126.5332">StartPanel</text><text fill="#000000" font-family="sans-serif" font-size="10" lengthAdjust="spacing" textLength="158" x="60.55" y="139.9902">nz.ac.vuw.ecs.swen225.gp22.app</text><line style="stroke:#181818;stroke-width:0.5;" x1="10" x2="239" y1="147.1875" y2="147.1875"/><ellipse cx="20" cy="161.4922" fill="#84BE84" rx="3" ry="3" style="stroke:#038048;stroke-width:1.0;"/><text fill="#000000" font-family="sans-serif" font-size="14" lengthAdjust="spacing" textLength="171" x="29" y="165.7207">StartPanel(WindowActions)</text><polygon fill="#FFFF44" points="20,174.1016,24,178.1016,20,182.1016,16,178.1016" style="stroke:#B38D22;stroke-width:1.0;"/><text fill="#000000" font-family="sans-serif" font-size="14" lengthAdjust="spacing" textLength="205" x="29" y="183.3301">paintComponent(Graphics): void</text></g></a><!--MD5=[56a185cb33bdc7c23303e5865f20a19b]
class javax.swing.JPanel--><g id="elem_javax.swing.JPanel"><rect codeLine="10" fill="#F1F1F1" height="40.1875" id="javax.swing.JPanel" rx="2.5" ry="2.5" style="stroke:#181818;stroke-width:0.5;" width="86" x="81.5" y="7"/><ellipse cx="96.5" cy="27.0938" fill="#ADD1B2" rx="11" ry="11" style="stroke:#181818;stroke-width:1.0;"/><path d="M99.2656,22.9688 Q99.4219,22.75 99.6094,22.6406 Q99.7969,22.5313 100.0156,22.5313 Q100.3906,22.5313 100.625,22.7969 Q100.8594,23.0469 100.8594,23.6563 L100.8594,25.1094 Q100.8594,25.7188 100.625,25.9844 Q100.3906,26.25 100.0156,26.25 Q99.6719,26.25 99.4688,26.0469 Q99.2656,25.8594 99.1563,25.3438 Q99.1094,24.9844 98.9219,24.7969 Q98.5938,24.4219 97.9844,24.2031 Q97.375,23.9844 96.75,23.9844 Q95.9844,23.9844 95.3438,24.3125 Q94.7188,24.6406 94.2188,25.3906 Q93.7344,26.1406 93.7344,27.1719 L93.7344,28.2656 Q93.7344,29.5 94.625,30.3281 Q95.5156,31.1406 97.1094,31.1406 Q98.0469,31.1406 98.7031,30.8906 Q99.0938,30.7344 99.5156,30.2969 Q99.7813,30.0313 99.9219,29.9531 Q100.0781,29.875 100.2813,29.875 Q100.6094,29.875 100.8594,30.1406 Q101.125,30.3906 101.125,30.7344 Q101.125,31.0781 100.7813,31.4844 Q100.2813,32.0625 99.4844,32.3906 Q98.4063,32.8438 97.1094,32.8438 Q95.5938,32.8438 94.3906,32.2188 Q93.4063,31.7188 92.7188,30.6563 Q92.0313,29.5781 92.0313,28.2969 L92.0313,27.1406 Q92.0313,25.8125 92.6406,24.6719 Q93.2656,23.5156 94.3594,22.9063 Q95.4531,22.2813 96.6875,22.2813 Q97.4219,22.2813 98.0625,22.4531 Q98.7188,22.6094 99.2656,22.9688 Z " fill="#000000"/><text fill="#000000" font-family="sans-serif" font-size="14" lengthAdjust="spacing" textLength="42" x="116.5" y="26.5332">JPanel</text><text fill="#000000" font-family="sans-serif" font-size="10" lengthAdjust="spacing" textLength="54" x="110.5" y="39.9902">javax.swing</text></g><!--MD5=[8ce5391e0b19e2fbbf22b4ff339d57be]
reverse link javax.swing.JPanel to nz.ac.vuw.ecs.swen225.gp22.app.StartPanel--><g id="link_javax.swing.JPanel_nz.ac.vuw.ecs.swen225.gp22.app.StartPanel"><path codeLine="12" d="M124.5,67.23 C124.5,79.84 124.5,93.83 124.5,106.56 " fill="none" id="javax.swing.JPanel-backto-nz.ac.vuw.ecs.swen225.gp22.app.StartPanel" style="stroke:#181818;stroke-width:1.0;"/><polygon fill="none" points="117.5,67.2,124.5,47.2,131.5,67.2,117.5,67.2" style="stroke:#181818;stroke-width:1.0;"/></g><rect fill="none" height="12.5781" style="stroke:none;stroke-width:1.0;" width="184" x="24.5" y="196.4063"/><text fill="#888888" font-family="sans-serif" font-size="10" lengthAdjust="spacing" textLength="184" x="24.5" y="206.7871">UMLDoclet 2.0.19, PlantUML 1.2022.8</text><!--MD5=[891271cb07510c4acead25b8a570a163]
@startuml
    set namespaceSeparator none
    hide empty fields
    hide empty methods

    class "<size:14>StartPanel\n<size:10>nz.ac.vuw.ecs.swen225.gp22.app" as nz.ac.vuw.ecs.swen225.gp22.app.StartPanel [[StartPanel.html]] {
        +StartPanel(WindowActions)
        #paintComponent(Graphics): void
    }

    class "<size:14>JPanel\n<size:10>javax.swing" as javax.swing.JPanel

    javax.swing.JPanel <|- - nz.ac.vuw.ecs.swen225.gp22.app.StartPanel

    center footer UMLDoclet 2.0.19, PlantUML 1.2022.8
@enduml

PlantUML version 1.2022.8(Sun Sep 25 22:00:33 NZDT 2022)
(APACHE source distribution)
Java Runtime: OpenJDK Runtime Environment
JVM: OpenJDK 64-Bit Server VM
Default Encoding: UTF-8
Language: en
Country: NZ
--></g></svg>