<?xml version="1.0" encoding="UTF-8" standalone="no"?><svg xmlns="http://www.w3.org/2000/svg" xmlns:xlink="http://www.w3.org/1999/xlink" contentStyleType="text/css" height="269px" preserveAspectRatio="none" style="width:222px;height:269px;background:#FFFFFF;" version="1.1" viewBox="0 0 222 269" width="222px" zoomAndPan="magnify"><defs/><g><!--MD5=[ec19380e1b468893ce5c8bf2dc25d45f]
class nz.ac.vuw.ecs.swen225.gp22.app.StatePanel--><a href="StatePanel.html" target="_top" title="StatePanel.html" xlink:actuate="onRequest" xlink:href="StatePanel.html" xlink:show="new" xlink:title="StatePanel.html" xlink:type="simple"><g id="elem_nz.ac.vuw.ecs.swen225.gp22.app.StatePanel"><rect codeLine="5" fill="#F1F1F1" height="136.2344" id="nz.ac.vuw.ecs.swen225.gp22.app.StatePanel" rx="2.5" ry="2.5" style="stroke:#181818;stroke-width:0.5;" width="208" x="7" y="107"/><ellipse cx="30.1" cy="127.0938" fill="#ADD1B2" rx="11" ry="11" style="stroke:#181818;stroke-width:1.0;"/><path d="M32.8656,122.9688 Q33.0219,122.75 33.2094,122.6406 Q33.3969,122.5313 33.6156,122.5313 Q33.9906,122.5313 34.225,122.7969 Q34.4594,123.0469 34.4594,123.6563 L34.4594,125.1094 Q34.4594,125.7188 34.225,125.9844 Q33.9906,126.25 33.6156,126.25 Q33.2719,126.25 33.0688,126.0469 Q32.8656,125.8594 32.7563,125.3438 Q32.7094,124.9844 32.5219,124.7969 Q32.1938,124.4219 31.5844,124.2031 Q30.975,123.9844 30.35,123.9844 Q29.5844,123.9844 28.9438,124.3125 Q28.3188,124.6406 27.8188,125.3906 Q27.3344,126.1406 27.3344,127.1719 L27.3344,128.2656 Q27.3344,129.5 28.225,130.3281 Q29.1156,131.1406 30.7094,131.1406 Q31.6469,131.1406 32.3031,130.8906 Q32.6938,130.7344 33.1156,130.2969 Q33.3813,130.0313 33.5219,129.9531 Q33.6781,129.875 33.8813,129.875 Q34.2094,129.875 34.4594,130.1406 Q34.725,130.3906 34.725,130.7344 Q34.725,131.0781 34.3813,131.4844 Q33.8813,132.0625 33.0844,132.3906 Q32.0063,132.8438 30.7094,132.8438 Q29.1938,132.8438 27.9906,132.2188 Q27.0063,131.7188 26.3188,130.6563 Q25.6313,129.5781 25.6313,128.2969 L25.6313,127.1406 Q25.6313,125.8125 26.2406,124.6719 Q26.8656,123.5156 27.9594,122.9063 Q29.0531,122.2813 30.2875,122.2813 Q31.0219,122.2813 31.6625,122.4531 Q32.3188,122.6094 32.8656,122.9688 Z " fill="#000000"/><text fill="#000000" font-family="sans-serif" font-size="14" lengthAdjust="spacing" textLength="69" x="90.4" y="126.5332">StatePanel</text><text fill="#000000" font-family="sans-serif" font-size="10" lengthAdjust="spacing" textLength="158" x="45.9" y="139.9902">nz.ac.vuw.ecs.swen225.gp22.app</text><line style="stroke:#181818;stroke-width:0.5;" x1="8" x2="214" y1="147.1875" y2="147.1875"/><ellipse cx="18" cy="161.4922" fill="#84BE84" rx="3" ry="3" style="stroke:#038048;stroke-width:1.0;"/><text fill="#000000" font-family="sans-serif" font-size="14" lengthAdjust="spacing" textLength="112" x="27" y="165.7207">setLevel(int): void</text><ellipse cx="18" cy="179.1016" fill="#84BE84" rx="3" ry="3" style="stroke:#038048;stroke-width:1.0;"/><text fill="#000000" font-family="sans-serif" font-size="14" lengthAdjust="spacing" textLength="137" x="27" y="183.3301">setTime(double): void</text><ellipse cx="18" cy="196.7109" fill="#84BE84" rx="3" ry="3" style="stroke:#038048;stroke-width:1.0;"/><text fill="#000000" font-family="sans-serif" font-size="14" lengthAdjust="spacing" textLength="138" x="27" y="200.9395">setChipsLeft(int): void</text><ellipse cx="18" cy="214.3203" fill="#84BE84" rx="3" ry="3" style="stroke:#038048;stroke-width:1.0;"/><text fill="#000000" font-family="sans-serif" font-size="14" lengthAdjust="spacing" textLength="133" x="27" y="218.5488">setKeysLeft(int): void</text><ellipse cx="18" cy="231.9297" fill="#84BE84" rx="3" ry="3" style="stroke:#038048;stroke-width:1.0;"/><text fill="#000000" font-family="sans-serif" font-size="14" lengthAdjust="spacing" textLength="182" x="27" y="236.1582">setInventory(List&lt;Tile&gt;): void</text></g></a><!--MD5=[56a185cb33bdc7c23303e5865f20a19b]
class javax.swing.JPanel--><g id="elem_javax.swing.JPanel"><rect codeLine="13" fill="#F1F1F1" height="40.1875" id="javax.swing.JPanel" rx="2.5" ry="2.5" style="stroke:#181818;stroke-width:0.5;" width="86" x="68" y="7"/><ellipse cx="83" cy="27.0938" fill="#ADD1B2" rx="11" ry="11" style="stroke:#181818;stroke-width:1.0;"/><path d="M85.7656,22.9688 Q85.9219,22.75 86.1094,22.6406 Q86.2969,22.5313 86.5156,22.5313 Q86.8906,22.5313 87.125,22.7969 Q87.3594,23.0469 87.3594,23.6563 L87.3594,25.1094 Q87.3594,25.7188 87.125,25.9844 Q86.8906,26.25 86.5156,26.25 Q86.1719,26.25 85.9688,26.0469 Q85.7656,25.8594 85.6563,25.3438 Q85.6094,24.9844 85.4219,24.7969 Q85.0938,24.4219 84.4844,24.2031 Q83.875,23.9844 83.25,23.9844 Q82.4844,23.9844 81.8438,24.3125 Q81.2188,24.6406 80.7188,25.3906 Q80.2344,26.1406 80.2344,27.1719 L80.2344,28.2656 Q80.2344,29.5 81.125,30.3281 Q82.0156,31.1406 83.6094,31.1406 Q84.5469,31.1406 85.2031,30.8906 Q85.5938,30.7344 86.0156,30.2969 Q86.2813,30.0313 86.4219,29.9531 Q86.5781,29.875 86.7813,29.875 Q87.1094,29.875 87.3594,30.1406 Q87.625,30.3906 87.625,30.7344 Q87.625,31.0781 87.2813,31.4844 Q86.7813,32.0625 85.9844,32.3906 Q84.9063,32.8438 83.6094,32.8438 Q82.0938,32.8438 80.8906,32.2188 Q79.9063,31.7188 79.2188,30.6563 Q78.5313,29.5781 78.5313,28.2969 L78.5313,27.1406 Q78.5313,25.8125 79.1406,24.6719 Q79.7656,23.5156 80.8594,22.9063 Q81.9531,22.2813 83.1875,22.2813 Q83.9219,22.2813 84.5625,22.4531 Q85.2188,22.6094 85.7656,22.9688 Z " fill="#000000"/><text fill="#000000" font-family="sans-serif" font-size="14" lengthAdjust="spacing" textLength="42" x="103" y="26.5332">JPanel</text><text fill="#000000" font-family="sans-serif" font-size="10" lengthAdjust="spacing" textLength="54" x="97" y="39.9902">javax.swing</text></g><!--MD5=[27e01049f2db9df8fa59ea354d0a9c10]
reverse link javax.swing.JPanel to nz.ac.vuw.ecs.swen225.gp22.app.StatePanel--><g id="link_javax.swing.JPanel_nz.ac.vuw.ecs.swen225.gp22.app.StatePanel"><path codeLine="15" d="M111,67.48 C111,79.66 111,93.44 111,106.95 " fill="none" id="javax.swing.JPanel-backto-nz.ac.vuw.ecs.swen225.gp22.app.StatePanel" style="stroke:#181818;stroke-width:1.0;"/><polygon fill="none" points="104,67.09,111,47.09,118,67.09,104,67.09" style="stroke:#181818;stroke-width:1.0;"/></g><rect fill="none" height="12.5781" style="stroke:none;stroke-width:1.0;" width="184" x="12" y="249.2344"/><text fill="#888888" font-family="sans-serif" font-size="10" lengthAdjust="spacing" textLength="184" x="12" y="259.6152">UMLDoclet 2.0.19, PlantUML 1.2022.8</text><!--MD5=[7537a9b35cd6056a2564d4b1559d6be6]
@startuml
    set namespaceSeparator none
    hide empty fields
    hide empty methods

    class "<size:14>StatePanel\n<size:10>nz.ac.vuw.ecs.swen225.gp22.app" as nz.ac.vuw.ecs.swen225.gp22.app.StatePanel [[StatePanel.html]] {
        +setLevel(int): void
        +setTime(double): void
        +setChipsLeft(int): void
        +setKeysLeft(int): void
        +setInventory(List<Tile>): void
    }

    class "<size:14>JPanel\n<size:10>javax.swing" as javax.swing.JPanel

    javax.swing.JPanel <|- - nz.ac.vuw.ecs.swen225.gp22.app.StatePanel

    center footer UMLDoclet 2.0.19, PlantUML 1.2022.8
@enduml

PlantUML version 1.2022.8(Sun Sep 25 22:00:33 NZDT 2022)
(APACHE source distribution)
Java Runtime: OpenJDK Runtime Environment
JVM: OpenJDK 64-Bit Server VM
Default Encoding: UTF-8
Language: en
Country: NZ
--></g></svg>