<?xml version="1.0" encoding="UTF-8" standalone="no"?><svg xmlns="http://www.w3.org/2000/svg" xmlns:xlink="http://www.w3.org/1999/xlink" contentStyleType="text/css" height="290px" preserveAspectRatio="none" style="width:331px;height:290px;background:#FFFFFF;" version="1.1" viewBox="0 0 331 290" width="331px" zoomAndPan="magnify"><defs/><g><!--MD5=[1b02d7203d936c7abd83488c023a191e]
cluster nz.ac.vuw.ecs.swen225.gp22.recorder--><g id="cluster_nz.ac.vuw.ecs.swen225.gp22.recorder"><path d="M8.5,6 L276.5,6 A3.75,3.75 0 0 1 279,8.5 L286,29.6094 L321.5,29.6094 A2.5,2.5 0 0 1 324,32.1094 L324,261.5 A2.5,2.5 0 0 1 321.5,264 L8.5,264 A2.5,2.5 0 0 1 6,261.5 L6,8.5 A2.5,2.5 0 0 1 8.5,6 " fill="none" style="stroke:#000000;stroke-width:1.5;"/><line style="stroke:#000000;stroke-width:1.5;" x1="6" x2="286" y1="29.6094" y2="29.6094"/><text fill="#000000" font-family="sans-serif" font-size="14" font-weight="bold" lengthAdjust="spacing" textLength="267" x="10" y="22.5332">nz.ac.vuw.ecs.swen225.gp22.recorder</text></g><!--MD5=[05dc728495d45c37ddd07a23bda3fd1e]
class nz.ac.vuw.ecs.swen225.gp22.recorder.Recorder--><a href="Recorder.html" target="_top" title="Recorder.html" xlink:actuate="onRequest" xlink:href="Recorder.html" xlink:show="new" xlink:title="Recorder.html" xlink:type="simple"><g id="elem_nz.ac.vuw.ecs.swen225.gp22.recorder.Recorder"><rect codeLine="3" fill="#F1F1F1" height="206.4844" id="nz.ac.vuw.ecs.swen225.gp22.recorder.Recorder" rx="2.5" ry="2.5" style="stroke:#181818;stroke-width:0.5;" width="286" x="22" y="42"/><ellipse cx="131.25" cy="58" fill="#ADD1B2" rx="11" ry="11" style="stroke:#181818;stroke-width:1.0;"/><path d="M134.0156,53.875 Q134.1719,53.6563 134.3594,53.5469 Q134.5469,53.4375 134.7656,53.4375 Q135.1406,53.4375 135.375,53.7031 Q135.6094,53.9531 135.6094,54.5625 L135.6094,56.0156 Q135.6094,56.625 135.375,56.8906 Q135.1406,57.1563 134.7656,57.1563 Q134.4219,57.1563 134.2188,56.9531 Q134.0156,56.7656 133.9063,56.25 Q133.8594,55.8906 133.6719,55.7031 Q133.3438,55.3281 132.7344,55.1094 Q132.125,54.8906 131.5,54.8906 Q130.7344,54.8906 130.0938,55.2188 Q129.4688,55.5469 128.9688,56.2969 Q128.4844,57.0469 128.4844,58.0781 L128.4844,59.1719 Q128.4844,60.4063 129.375,61.2344 Q130.2656,62.0469 131.8594,62.0469 Q132.7969,62.0469 133.4531,61.7969 Q133.8438,61.6406 134.2656,61.2031 Q134.5313,60.9375 134.6719,60.8594 Q134.8281,60.7813 135.0313,60.7813 Q135.3594,60.7813 135.6094,61.0469 Q135.875,61.2969 135.875,61.6406 Q135.875,61.9844 135.5313,62.3906 Q135.0313,62.9688 134.2344,63.2969 Q133.1563,63.75 131.8594,63.75 Q130.3438,63.75 129.1406,63.125 Q128.1563,62.625 127.4688,61.5625 Q126.7813,60.4844 126.7813,59.2031 L126.7813,58.0469 Q126.7813,56.7188 127.3906,55.5781 Q128.0156,54.4219 129.1094,53.8125 Q130.2031,53.1875 131.4375,53.1875 Q132.1719,53.1875 132.8125,53.3594 Q133.4688,53.5156 134.0156,53.875 Z " fill="#000000"/><text fill="#000000" font-family="sans-serif" font-size="14" lengthAdjust="spacing" textLength="59" x="151.75" y="63.7285">Recorder</text><line style="stroke:#181818;stroke-width:0.5;" x1="23" x2="307" y1="74" y2="74"/><line style="stroke:#181818;stroke-width:0.5;" x1="23" x2="307" y1="82" y2="82"/><ellipse cx="33" cy="96.3047" fill="#84BE84" rx="3" ry="3" style="stroke:#038048;stroke-width:1.0;"/><text fill="#000000" font-family="sans-serif" font-size="14" lengthAdjust="spacing" textLength="188" x="42" y="100.5332">Recorder(int, boolean, String)</text><ellipse cx="33" cy="113.9141" fill="#84BE84" rx="3" ry="3" style="stroke:#038048;stroke-width:1.0;"/><text fill="#000000" font-family="sans-serif" font-size="14" lengthAdjust="spacing" textLength="194" x="42" y="118.1426">savePlayerMovement(int): void</text><ellipse cx="33" cy="131.5234" fill="#84BE84" rx="3" ry="3" style="stroke:#038048;stroke-width:1.0;"/><text fill="#000000" font-family="sans-serif" font-size="14" lengthAdjust="spacing" textLength="228" x="42" y="135.752">saveActorMovement(Direction): void</text><ellipse cx="33" cy="149.1328" fill="#84BE84" rx="3" ry="3" style="stroke:#038048;stroke-width:1.0;"/><text fill="#000000" font-family="sans-serif" font-size="14" lengthAdjust="spacing" textLength="113" x="42" y="153.3613">saveToXml(): void</text><ellipse cx="33" cy="166.7422" fill="#84BE84" rx="3" ry="3" style="stroke:#038048;stroke-width:1.0;"/><text fill="#000000" font-family="sans-serif" font-size="14" lengthAdjust="spacing" textLength="210" x="42" y="170.9707">doPlayerMovement(int): Direction</text><ellipse cx="33" cy="184.3516" fill="#84BE84" rx="3" ry="3" style="stroke:#038048;stroke-width:1.0;"/><text fill="#000000" font-family="sans-serif" font-size="14" lengthAdjust="spacing" textLength="203" x="42" y="188.5801">doActorMovement(int): Direction</text><ellipse cx="33" cy="201.9609" fill="#84BE84" rx="3" ry="3" style="stroke:#038048;stroke-width:1.0;"/><text fill="#000000" font-family="sans-serif" font-size="14" lengthAdjust="spacing" textLength="260" x="42" y="206.1895">getNextMovementTick(int, String): Integer</text><ellipse cx="33" cy="219.5703" fill="#84BE84" rx="3" ry="3" style="stroke:#038048;stroke-width:1.0;"/><text fill="#000000" font-family="sans-serif" font-size="14" lengthAdjust="spacing" textLength="104" x="42" y="223.7988">setTick(int): void</text><ellipse cx="33" cy="237.1797" fill="#84BE84" rx="3" ry="3" style="stroke:#038048;stroke-width:1.0;"/><text fill="#000000" font-family="sans-serif" font-size="14" lengthAdjust="spacing" textLength="79" x="42" y="241.4082">getTick(): int</text></g></a><rect fill="none" height="12.5781" style="stroke:none;stroke-width:1.0;" width="184" x="66.5" y="270"/><text fill="#888888" font-family="sans-serif" font-size="10" lengthAdjust="spacing" textLength="184" x="66.5" y="280.3809">UMLDoclet 2.0.19, PlantUML 1.2022.8</text><!--MD5=[1f6876e6db44104b45a3fcb62623496d]
@startuml
    namespace nz.ac.vuw.ecs.swen225.gp22.recorder {

        class Recorder [[Recorder.html]] {
            +Recorder(int, boolean, String)
            +savePlayerMovement(int): void
            +saveActorMovement(Direction): void
            +saveToXml(): void
            +doPlayerMovement(int): Direction
            +doActorMovement(int): Direction
            +getNextMovementTick(int, String): Integer
            +setTick(int): void
            +getTick(): int
        }

    }

    center footer UMLDoclet 2.0.19, PlantUML 1.2022.8
@enduml

PlantUML version 1.2022.8(Sun Sep 25 22:00:33 NZDT 2022)
(APACHE source distribution)
Java Runtime: OpenJDK Runtime Environment
JVM: OpenJDK 64-Bit Server VM
Default Encoding: UTF-8
Language: en
Country: NZ
--></g></svg>