<?xml version="1.0" encoding="UTF-8" standalone="no"?><svg xmlns="http://www.w3.org/2000/svg" xmlns:xlink="http://www.w3.org/1999/xlink" contentStyleType="text/css" height="241px" preserveAspectRatio="none" style="width:307px;height:241px;background:#FFFFFF;" version="1.1" viewBox="0 0 307 241" width="307px" zoomAndPan="magnify"><defs/><g><!--MD5=[05dc728495d45c37ddd07a23bda3fd1e]
class nz.ac.vuw.ecs.swen225.gp22.recorder.Recorder--><a href="Recorder.html" target="_top" title="Recorder.html" xlink:actuate="onRequest" xlink:href="Recorder.html" xlink:show="new" xlink:title="Recorder.html" xlink:type="simple"><g id="elem_nz.ac.vuw.ecs.swen225.gp22.recorder.Recorder"><rect codeLine="5" fill="#F1F1F1" height="206.6719" id="nz.ac.vuw.ecs.swen225.gp22.recorder.Recorder" rx="2.5" ry="2.5" style="stroke:#181818;stroke-width:0.5;" width="286" x="7" y="7"/><ellipse cx="56.25" cy="27.0938" fill="#ADD1B2" rx="11" ry="11" style="stroke:#181818;stroke-width:1.0;"/><path d="M59.0156,22.9688 Q59.1719,22.75 59.3594,22.6406 Q59.5469,22.5313 59.7656,22.5313 Q60.1406,22.5313 60.375,22.7969 Q60.6094,23.0469 60.6094,23.6563 L60.6094,25.1094 Q60.6094,25.7188 60.375,25.9844 Q60.1406,26.25 59.7656,26.25 Q59.4219,26.25 59.2188,26.0469 Q59.0156,25.8594 58.9063,25.3438 Q58.8594,24.9844 58.6719,24.7969 Q58.3438,24.4219 57.7344,24.2031 Q57.125,23.9844 56.5,23.9844 Q55.7344,23.9844 55.0938,24.3125 Q54.4688,24.6406 53.9688,25.3906 Q53.4844,26.1406 53.4844,27.1719 L53.4844,28.2656 Q53.4844,29.5 54.375,30.3281 Q55.2656,31.1406 56.8594,31.1406 Q57.7969,31.1406 58.4531,30.8906 Q58.8438,30.7344 59.2656,30.2969 Q59.5313,30.0313 59.6719,29.9531 Q59.8281,29.875 60.0313,29.875 Q60.3594,29.875 60.6094,30.1406 Q60.875,30.3906 60.875,30.7344 Q60.875,31.0781 60.5313,31.4844 Q60.0313,32.0625 59.2344,32.3906 Q58.1563,32.8438 56.8594,32.8438 Q55.3438,32.8438 54.1406,32.2188 Q53.1563,31.7188 52.4688,30.6563 Q51.7813,29.5781 51.7813,28.2969 L51.7813,27.1406 Q51.7813,25.8125 52.3906,24.6719 Q53.0156,23.5156 54.1094,22.9063 Q55.2031,22.2813 56.4375,22.2813 Q57.1719,22.2813 57.8125,22.4531 Q58.4688,22.6094 59.0156,22.9688 Z " fill="#000000"/><text fill="#000000" font-family="sans-serif" font-size="14" lengthAdjust="spacing" textLength="59" x="136.75" y="26.5332">Recorder</text><text fill="#000000" font-family="sans-serif" font-size="10" lengthAdjust="spacing" textLength="179" x="76.75" y="39.9902">nz.ac.vuw.ecs.swen225.gp22.recorder</text><line style="stroke:#181818;stroke-width:0.5;" x1="8" x2="292" y1="47.1875" y2="47.1875"/><ellipse cx="18" cy="61.4922" fill="#84BE84" rx="3" ry="3" style="stroke:#038048;stroke-width:1.0;"/><text fill="#000000" font-family="sans-serif" font-size="14" lengthAdjust="spacing" textLength="188" x="27" y="65.7207">Recorder(int, boolean, String)</text><ellipse cx="18" cy="79.1016" fill="#84BE84" rx="3" ry="3" style="stroke:#038048;stroke-width:1.0;"/><text fill="#000000" font-family="sans-serif" font-size="14" lengthAdjust="spacing" textLength="194" x="27" y="83.3301">savePlayerMovement(int): void</text><ellipse cx="18" cy="96.7109" fill="#84BE84" rx="3" ry="3" style="stroke:#038048;stroke-width:1.0;"/><text fill="#000000" font-family="sans-serif" font-size="14" lengthAdjust="spacing" textLength="228" x="27" y="100.9395">saveActorMovement(Direction): void</text><ellipse cx="18" cy="114.3203" fill="#84BE84" rx="3" ry="3" style="stroke:#038048;stroke-width:1.0;"/><text fill="#000000" font-family="sans-serif" font-size="14" lengthAdjust="spacing" textLength="113" x="27" y="118.5488">saveToXml(): void</text><ellipse cx="18" cy="131.9297" fill="#84BE84" rx="3" ry="3" style="stroke:#038048;stroke-width:1.0;"/><text fill="#000000" font-family="sans-serif" font-size="14" lengthAdjust="spacing" textLength="210" x="27" y="136.1582">doPlayerMovement(int): Direction</text><ellipse cx="18" cy="149.5391" fill="#84BE84" rx="3" ry="3" style="stroke:#038048;stroke-width:1.0;"/><text fill="#000000" font-family="sans-serif" font-size="14" lengthAdjust="spacing" textLength="203" x="27" y="153.7676">doActorMovement(int): Direction</text><ellipse cx="18" cy="167.1484" fill="#84BE84" rx="3" ry="3" style="stroke:#038048;stroke-width:1.0;"/><text fill="#000000" font-family="sans-serif" font-size="14" lengthAdjust="spacing" textLength="260" x="27" y="171.377">getNextMovementTick(int, String): Integer</text><ellipse cx="18" cy="184.7578" fill="#84BE84" rx="3" ry="3" style="stroke:#038048;stroke-width:1.0;"/><text fill="#000000" font-family="sans-serif" font-size="14" lengthAdjust="spacing" textLength="104" x="27" y="188.9863">setTick(int): void</text><ellipse cx="18" cy="202.3672" fill="#84BE84" rx="3" ry="3" style="stroke:#038048;stroke-width:1.0;"/><text fill="#000000" font-family="sans-serif" font-size="14" lengthAdjust="spacing" textLength="79" x="27" y="206.5957">getTick(): int</text></g></a><rect fill="none" height="12.5781" style="stroke:none;stroke-width:1.0;" width="184" x="57.5" y="220.6719"/><text fill="#888888" font-family="sans-serif" font-size="10" lengthAdjust="spacing" textLength="184" x="57.5" y="231.0527">UMLDoclet 2.0.19, PlantUML 1.2022.8</text><!--MD5=[1cae392786cbcb3144db2c6ca10c1935]
@startuml
    set namespaceSeparator none
    hide empty fields
    hide empty methods

    class "<size:14>Recorder\n<size:10>nz.ac.vuw.ecs.swen225.gp22.recorder" as nz.ac.vuw.ecs.swen225.gp22.recorder.Recorder [[Recorder.html]] {
        +Recorder(int, boolean, String)
        +savePlayerMovement(int): void
        +saveActorMovement(Direction): void
        +saveToXml(): void
        +doPlayerMovement(int): Direction
        +doActorMovement(int): Direction
        +getNextMovementTick(int, String): Integer
        +setTick(int): void
        +getTick(): int
    }

    center footer UMLDoclet 2.0.19, PlantUML 1.2022.8
@enduml

PlantUML version 1.2022.8(Sun Sep 25 22:00:33 NZDT 2022)
(APACHE source distribution)
Java Runtime: OpenJDK Runtime Environment
JVM: OpenJDK 64-Bit Server VM
Default Encoding: UTF-8
Language: en
Country: NZ
--></g></svg>